<svg xmlns="http://www.w3.org/2000/svg" xmlns:xlink="http://www.w3.org/1999/xlink" width="355" height="274" viewBox="0 0 355 274">
  <defs>
    <clipPath id="clip-path">
      <rect id="長方形_116" data-name="長方形 116" width="335.601" height="185.202" transform="translate(11)" fill="none"/>
    </clipPath>
    <clipPath id="clip-path-2">
      <rect id="長方形_117" data-name="長方形 117" width="165.863" height="114.706" fill="none"/>
    </clipPath>
  </defs>
  <g id="img__mannerism" data-name="img_ mannerism" transform="translate(-945 -1090)">
    <g id="グループ_217" data-name="グループ 217">
      <g id="長方形_7" data-name="長方形 7" transform="translate(945 1090)" fill="#fff" stroke="#1a1a17" stroke-linejoin="bevel" stroke-width="8">
        <rect width="355" height="274" stroke="none"/>
        <rect x="4" y="4" width="347" height="266" fill="none"/>
      </g>
      <g id="グループ_56" data-name="グループ 56" transform="translate(945.44 1174.245)">
        <g id="グループ_55" data-name="グループ 55" transform="translate(0)" clip-path="url(#clip-path)">
          <path id="パス_509" data-name="パス 509" d="M541.02,336.225c-4.422,1.031-11.043,1.806-12.743,11.691s-3.855,20.645-6.292,21.487C529.2,368,538.81,361.889,542,355.112s2.435-12.223,2.886-12.877" transform="translate(-374.111 -240.975)" fill="#fdda09"/>
          <path id="パス_510" data-name="パス 510" d="M519.688,368.016a.907.907,0,0,1-.3-1.765c.2-.069,1.266-.715,2.841-6.725,1.124-4.289,2.115-9.766,2.853-14.059,1.688-9.814,8.2-11.258,12.512-12.214.315-.07.622-.138.919-.207a.907.907,0,0,1,.412,1.767c-.3.071-.617.14-.938.212-4.293.951-9.636,2.136-11.117,10.75-1.814,10.548-3.264,16.688-4.765,19.765,6.445-2.084,14.044-7.308,16.776-13.11a28.178,28.178,0,0,0,2.595-10.966,4.12,4.12,0,0,1,.366-2.04.907.907,0,0,1,1.548.941,11.944,11.944,0,0,0-.1,1.2,29.839,29.839,0,0,1-2.765,11.633c-3.345,7.1-13.386,13.385-20.665,14.8a.908.908,0,0,1-.173.017m23.652-27.562h0" transform="translate(-371.815 -238.68)" fill="#1a1311"/>
          <path id="パス_511" data-name="パス 511" d="M566.346,373.892a17.918,17.918,0,0,1-5.052,9.863" transform="translate(-402.284 -267.971)" fill="#fdda09"/>
          <path id="パス_512" data-name="パス 512" d="M559,382.368a.907.907,0,0,1-.589-1.6,16.913,16.913,0,0,0,4.741-9.293.907.907,0,0,1,1.8.241,18.7,18.7,0,0,1-5.363,10.433.9.9,0,0,1-.588.217" transform="translate(-399.989 -265.676)" fill="#1a1311"/>
          <path id="パス_513" data-name="パス 513" d="M602.459,457.343c-.489,5.118,2.551,27.671,3.016,28.539s-9.531,5.24-24.233,5.922c-18.569.861-31.156-3.685-31.156-3.685s7.267-23.664,7.419-24.328c-8.277-8.716-10.466-19.547-14.128-32.635-1.131-4.043-3.255-16.4.078-18.689a93.529,93.529,0,0,1,8.564-4.294l2.429-.672s3.212-.774,7.379-1.531l.744-.133c.5-.089,1.016-.176,1.538-.262a74.16,74.16,0,0,1,9.426-1.03,15.406,15.406,0,0,1,7.849,1.41c1.432.527,2.088-1.077,4.919-1.377,5.895-.626,8.937.969,11.708,3.59,0,0,3.652,6.532,4.2,17.412" transform="translate(-388.214 -289.865)" fill="#fdda09"/>
          <path id="パス_514" data-name="パス 514" d="M574.2,490.522c-15.868,0-26.249-3.678-26.724-3.849a.906.906,0,0,1-.559-1.119c1.843-6,6.429-20.961,7.273-23.817-7.218-7.815-9.8-17.3-12.782-28.246-.39-1.434-.789-2.9-1.206-4.39a56.378,56.378,0,0,1-1.667-10.186c-.341-5.181.347-8.287,2.1-9.495A90.172,90.172,0,0,1,549.478,405l2.427-.672.03-.008c.032-.008,3.285-.788,7.429-1.542l.75-.134q.759-.134,1.549-.264a73.873,73.873,0,0,1,9.547-1.041,16.16,16.16,0,0,1,8.21,1.473c.3.1.507.021,1.205-.353a8.281,8.281,0,0,1,3.283-1.084c6.247-.663,9.486,1.052,12.427,3.833a.9.9,0,0,1,.169.217c.153.274,3.761,6.844,4.313,17.809a.907.907,0,0,1-1.812.091,43.26,43.26,0,0,0-4.022-16.9c-2.618-2.443-5.381-3.831-10.882-3.246a6.518,6.518,0,0,0-2.62.879,3.043,3.043,0,0,1-2.71.447l-.051-.021a14.465,14.465,0,0,0-7.459-1.333,72.089,72.089,0,0,0-9.3,1.018c-.518.085-1.028.172-1.527.26l-.74.133c-3.951.718-7.076,1.46-7.314,1.517l-2.415.669c-.739.207-7.4,3.556-8.291,4.167-2.535,1.742-1.144,12.6.281,17.7.419,1.5.818,2.964,1.21,4.4,2.966,10.892,5.528,20.3,12.7,27.853a.909.909,0,0,1,.226.828c-.144.626-5.745,18.881-7.175,23.542a68.949,68.949,0,0,0,7.7,1.867,97.837,97.837,0,0,0,22.282,1.5c12.84-.6,21.72-4.028,23.3-5.161-.9-3.831-3.377-23.954-2.944-28.48a.907.907,0,0,1,1.806.173c-.471,4.925,2.467,26.612,2.939,28.077a1.081,1.081,0,0,1-.058,1c-1.01,1.778-11.515,5.576-24.958,6.2q-2.464.114-4.782.111m28.108-6.676a.77.77,0,0,0,.065.165,1.06,1.06,0,0,1-.065-.165m1.7-.622h0Zm-.032-.069.017.033c-.006-.013-.012-.024-.017-.033" transform="translate(-385.912 -287.567)" fill="#1a1311"/>
          <path id="パス_515" data-name="パス 515" d="M630.478,415.519s-29.244,3.5-28.372,3.178,23.021,40.671,23.021,40.671,10.636-21.137,9.109-26.291-4.656-15.514-3.758-17.559" transform="translate(-431.521 -297.806)" fill="#1a1311"/>
          <path id="パス_516" data-name="パス 516" d="M613.845,351.718s.056,9.914-2.683,14.4-5.626,3.682-5.626,3.682,12.323,14.4,18.149,13.449c7.6-1.24,8.438-13.456,8.438-13.456s-4.729,1.6-7.977-4.258-1.512-14.721-1.512-14.721" transform="translate(-433.992 -251.43)" fill="#fff"/>
          <path id="パス_517" data-name="パス 517" d="M620.844,381.9c-6.285,0-17.043-12.35-18.291-13.808a.907.907,0,0,1,.932-1.464c.076.018,2.306.488,4.609-3.281,2.572-4.21,2.551-13.822,2.55-13.919a.907.907,0,0,1,1.814-.01c0,.415.025,10.225-2.816,14.875-1.571,2.57-3.24,3.588-4.513,3.965,1.235,1.355,3.3,3.544,5.626,5.666,6.338,5.79,9.293,6.326,10.489,6.131,5.509-.9,7.127-8.549,7.547-11.484-1.846.109-5.242-.4-7.733-4.895-3.37-6.078-1.683-14.96-1.609-15.335a.907.907,0,0,1,1.781.348c-.016.086-1.631,8.613,1.416,14.107a7.059,7.059,0,0,0,4.6,3.878,4.884,4.884,0,0,0,2.294-.039.907.907,0,0,1,1.2.921,26.628,26.628,0,0,1-1.42,6.509c-1.635,4.526-4.324,7.217-7.778,7.78a4.3,4.3,0,0,1-.693.054" transform="translate(-431.698 -249.136)" fill="#1a1311"/>
          <path id="パス_518" data-name="パス 518" d="M635.455,453.264a.907.907,0,0,1-.739-.38,134.023,134.023,0,0,0-8.6-10.548c-5.32-5.9-11.074-29.063-11.316-30.046a.907.907,0,1,1,1.761-.435c.058.237,5.885,23.7,10.9,29.266,3.557,3.947,6.315,7.478,7.716,9.334,4.706-14.322.721-37.193.131-39.24a.908.908,0,0,1,1.544-.932c.462.589,1.705,8.582,2.162,15.725.5,7.766.43,18.7-2.714,26.681a.908.908,0,0,1-.844.575m.03-41.789a.894.894,0,0,0,.771.265.9.9,0,0,1-.771-.265" transform="translate(-440.61 -293.803)" fill="#1a1311"/>
          <path id="パス_519" data-name="パス 519" d="M585.406,418.44s1.519-14,.859-13.979,8.617-1.783,8.617-1.783,3.53,10.7,6.087,15.474c3.085,5.764,12.174,30.964,12.174,30.964s-6.953-7.019-11.772-11.292S588.962,424.8,588.962,424.8l4.014-4.244c-4.689-1.388-7.57-2.12-7.57-2.12" transform="translate(-419.565 -288.603)" fill="#fdda09"/>
          <path id="パス_520" data-name="パス 520" d="M610.848,447.73a.906.906,0,0,1-.645-.269c-.069-.07-6.988-7.048-11.73-11.251-4.809-4.263-12.18-12.746-12.492-13.106a.907.907,0,0,1,.026-1.218l3-3.168c-3.781-1.1-6.091-1.688-6.116-1.694a.907.907,0,0,1-.679-.977c.614-5.656,1.135-11.965,1.006-13.333a.927.927,0,0,1-.18-.452c-.09-.817.689-1,1.064-1.087.24-.056.585-.131,1-.219.813-.172,1.9-.392,2.984-.608,2.166-.433,4.334-.854,4.334-.854a.907.907,0,0,1,1.034.607c.035.106,3.535,10.678,6.025,15.33,3.081,5.755,11.855,30.053,12.227,31.085a.907.907,0,0,1-.853,1.215m-22.955-25.2c1.816,2.065,7.8,8.788,11.784,12.319,2.841,2.518,6.446,6.014,8.923,8.455-2.667-7.268-8.43-22.73-10.726-27.02-2.2-4.1-5.034-12.312-5.895-14.86-2.378.465-5.495,1.084-6.947,1.4a61.1,61.1,0,0,1-.361,6.643c-.208,2.41-.452,4.806-.576,6,1.156.307,3.572.963,6.843,1.93a.907.907,0,0,1,.4,1.493Zm-3.948-21.273h0Z" transform="translate(-417.27 -286.308)" fill="#1a1311"/>
          <path id="パス_521" data-name="パス 521" d="M676.4,410.644c-.981-6.215-5.275-12.706-5.275-12.706l8.208-.449s9.33,14.6,8.012,14.5a12.149,12.149,0,0,0-5.185,1.963c2.161.915,4.669,1.918,4.676,2.165.012.44.095,8.664-1.959,14.009s-10.3,15.27-10.3,15.27,2.5-30.462,1.822-34.754" transform="translate(-481.001 -284.884)" fill="#fdda09"/>
          <path id="パス_522" data-name="パス 522" d="M672.283,444.01a.908.908,0,0,1-.9-.981c.862-10.5,2.352-31.226,1.83-34.539-.938-5.942-5.094-12.284-5.136-12.347a.907.907,0,0,1,.707-1.406l8.208-.449a.91.91,0,0,1,.814.417c.022.034,2.2,3.438,4.275,6.909,4.471,7.464,4.2,7.921,3.856,8.5a1.009,1.009,0,0,1-.948.488,8.523,8.523,0,0,0-3.011.96c3.094,1.3,3.454,1.521,3.474,2.237,0,.084.143,8.734-2.019,14.36-2.084,5.422-10.106,15.114-10.446,15.524a.906.906,0,0,1-.7.328M670.4,396.465a36.607,36.607,0,0,1,4.6,11.742h0c.567,3.59-.968,24.223-1.579,32.024,2.528-3.226,6.924-9.114,8.311-12.724,1.769-4.6,1.9-11.447,1.9-13.225-.607-.312-1.987-.891-3.042-1.333-.362-.152-.728-.3-1.084-.456a.907.907,0,0,1-.11-1.615,16.859,16.859,0,0,1,4.641-1.982,144.337,144.337,0,0,0-7.484-12.769Z" transform="translate(-478.705 -282.589)" fill="#1a1311"/>
          <path id="パス_523" data-name="パス 523" d="M628.519,179.022s13.287-5.825,19.564,6.3c5.109,9.867-.268,19.7-.268,19.7Z" transform="translate(-450.465 -127.304)" fill="#fdda09"/>
          <path id="パス_524" data-name="パス 524" d="M645.52,203.63a.907.907,0,0,1-.728-.367l-19.3-26a.907.907,0,0,1,.364-1.371,20.635,20.635,0,0,1,7.805-1.473c3.994.058,9.48,1.525,12.929,8.186,5.271,10.178-.049,20.132-.278,20.55a.907.907,0,0,1-.733.469l-.063,0m-17.842-26.467,17.654,23.784c1.19-2.939,3.4-10.266-.349-17.5-2.428-4.689-6.225-7.113-11.286-7.2a19.21,19.21,0,0,0-6.019.926" transform="translate(-448.17 -125.008)" fill="#1a1311"/>
          <path id="パス_525" data-name="パス 525" d="M584.2,200.729c2.48,4.466,3.8,10.356,5.885,17.1,3.174,10.262-.386,22.547-10.666,25.165-9.572,2.438-19.488-1.9-25.525-8.6-4.029-4.467-8.742-14.166-9-21.046s8.106-20.9,18.534-21.311,16.295.616,20.775,8.685" transform="translate(-390.525 -137.585)" fill="#fff"/>
          <path id="パス_526" data-name="パス 526" d="M571.616,242.3a28.328,28.328,0,0,1-20.688-9.576c-4.243-4.7-8.966-14.513-9.236-21.619-.275-7.251,8.34-21.817,19.4-22.252,10.957-.429,16.983.829,21.6,9.152,1.914,3.448,3.123,7.613,4.522,12.436.452,1.56.921,3.173,1.436,4.839,1.989,6.429,1.421,13.4-1.517,18.642a15.431,15.431,0,0,1-9.792,7.67,23.22,23.22,0,0,1-5.734.708m-7.059-51.708c-1.067,0-2.194.027-3.389.074-9.887.388-17.909,13.9-17.663,20.371.251,6.613,4.823,16.1,8.77,20.473,6.5,7.21,16.169,10.478,24.627,8.324a13.657,13.657,0,0,0,8.657-6.8c2.7-4.819,3.211-11.256,1.367-17.219-.52-1.681-.99-3.3-1.445-4.87-1.369-4.717-2.551-8.792-4.366-12.061-3.706-6.674-8.325-8.294-16.558-8.294" transform="translate(-388.23 -135.297)" fill="#1a1311"/>
          <path id="パス_527" data-name="パス 527" d="M556.372,175.207c1.03.448-1.608,13.261-10.286,24.1s-13.423,16.042-13.423,16.042-15.971-13.549-5.054-30.121c7.26-11.02,21.174-13.324,28.763-10.019" transform="translate(-375.406 -124.576)" fill="#fdda09"/>
          <path id="パス_528" data-name="パス 528" d="M530.4,213.993a.9.9,0,0,1-.586-.215,30.179,30.179,0,0,1-6.852-9.144c-2.5-5.192-4.246-13.252,1.627-22.167,7.8-11.846,22.368-13.624,29.883-10.351a1.2,1.2,0,0,1,.678.877c.637,2.577-2.807,14.866-10.618,24.619-8.6,10.735-13.412,16.033-13.46,16.086a.9.9,0,0,1-.671.3m16.333-41.53a24.979,24.979,0,0,0-6.877.993A24.584,24.584,0,0,0,526.1,183.465c-4.328,6.57-4.844,13.409-1.533,20.328a29.334,29.334,0,0,0,5.77,8c1.543-1.739,5.962-6.809,12.774-15.315,7.9-9.869,10.423-20.809,10.3-22.836a18.042,18.042,0,0,0-6.686-1.178" transform="translate(-373.144 -122.316)" fill="#1a1311"/>
          <path id="パス_529" data-name="パス 529" d="M608.02,281.266a1.671,1.671,0,1,0,1.661-1.682,1.671,1.671,0,0,0-1.661,1.682" transform="translate(-435.773 -200.38)" fill="#1a1311"/>
          <path id="パス_530" data-name="パス 530" d="M666.451,256.912a1.671,1.671,0,1,0,1.661-1.682,1.672,1.672,0,0,0-1.661,1.682" transform="translate(-477.651 -182.925)" fill="#1a1311"/>
          <path id="パス_531" data-name="パス 531" d="M559.492,236.492a.907.907,0,0,1-.451-1.695c3.5-2,7.789-8.545,9-13.732a.907.907,0,0,1,1.767.413c-1.181,5.052-5.524,12.411-9.868,14.894a.9.9,0,0,1-.449.12" transform="translate(-400.341 -157.937)" fill="#1a1311"/>
          <path id="パス_532" data-name="パス 532" d="M546.736,230.145a.907.907,0,0,1-.442-1.7c2.919-1.622,5.491-6.62,6.2-10.321a.907.907,0,1,1,1.782.342c-1.061,5.538-4.451,10.092-7.1,11.565a.9.9,0,0,1-.44.114" transform="translate(-391.199 -155.804)" fill="#1a1311"/>
          <path id="パス_533" data-name="パス 533" d="M656.835,277.17c4.168,3.544,7.1,3.722,7.1,3.722l-4.232,4.06" transform="translate(-470.759 -198.65)" fill="#fff"/>
          <path id="パス_534" data-name="パス 534" d="M657.408,283.565A.907.907,0,0,1,656.78,282l3.038-2.914a18.353,18.353,0,0,1-5.866-3.522.907.907,0,0,1,1.175-1.382c3.83,3.257,6.542,3.506,6.568,3.507a.907.907,0,0,1,.573,1.56l-4.232,4.06a.9.9,0,0,1-.628.253" transform="translate(-468.463 -196.356)" fill="#1a1311"/>
          <path id="パス_535" data-name="パス 535" d="M557.043,310.51c-3.12,1.29-5.27,3.559-4.049,6.51a5.954,5.954,0,0,0,7.858,3.007" transform="translate(-396.086 -222.545)" fill="#fff"/>
          <path id="パス_536" data-name="パス 536" d="M556.1,319.126a6.7,6.7,0,0,1-6.259-4.056c-1.286-3.111.411-5.987,4.541-7.7a.907.907,0,0,1,.693,1.677c-4.28,1.77-4.066,4.1-3.558,5.325a5.053,5.053,0,0,0,6.673,2.516.907.907,0,1,1,.693,1.677,7.274,7.274,0,0,1-2.783.557" transform="translate(-393.777 -220.249)" fill="#1a1311"/>
          <path id="パス_537" data-name="パス 537" d="M572.19,342.787a2.129,2.129,0,1,0,1.747-2.452,2.129,2.129,0,0,0-1.747,2.452" transform="translate(-410.072 -243.9)" fill="#fff"/>
          <path id="パス_538" data-name="パス 538" d="M571.987,343.176a3.044,3.044,0,1,1,.509-.043,3.093,3.093,0,0,1-.509.043m.009-4.259a1.227,1.227,0,0,0-.205.017,1.223,1.223,0,0,0-1,1.407h0A1.222,1.222,0,1,0,572,338.916" transform="translate(-407.776 -241.604)" fill="#1a1311"/>
          <path id="パス_539" data-name="パス 539" d="M679.266,606.031a2.2,2.2,0,1,0,2.135-2.258,2.2,2.2,0,0,0-2.135,2.258" transform="translate(-486.835 -432.728)" fill="#fff"/>
          <path id="パス_540" data-name="パス 540" d="M679.167,606.778a3.108,3.108,0,0,1-3.1-3.018h0a3.1,3.1,0,1,1,3.19,3.017h-.087m-1.289-3.069a1.29,1.29,0,1,0,1.254-1.326,1.3,1.3,0,0,0-1.254,1.326" transform="translate(-484.539 -430.432)" fill="#1a1311"/>
          <path id="パス_541" data-name="パス 541" d="M650.9,330.875c1.191-2.011,4.631-3.165,6.746-2.542" transform="translate(-466.507 -235.198)" fill="#fff"/>
          <path id="パス_542" data-name="パス 542" d="M648.607,329.47a.907.907,0,0,1-.78-1.369,7.561,7.561,0,0,1,7.783-2.95.907.907,0,1,1-.513,1.74c-1.669-.492-4.69.414-5.709,2.134a.907.907,0,0,1-.781.445" transform="translate(-464.212 -232.885)" fill="#1a1311"/>
          <path id="パス_543" data-name="パス 543" d="M735.4,463.282c10,11.407,18.681,2.035,18.883-3.813s-17.419-41.876-17.419-41.876" transform="translate(-527.069 -299.292)" fill="#fdda09"/>
          <path id="パス_544" data-name="パス 544" d="M742.663,467.283c-4.479,0-8.212-3.388-10.238-5.7a.907.907,0,0,1,1.365-1.2c4.79,5.467,8.79,5.547,11.3,4.651a9.52,9.52,0,0,0,5.992-7.9c.159-4.613-12.453-31.482-17.327-41.446a.907.907,0,1,1,1.629-.8C737.2,418.607,753.1,451.3,752.9,457.2a11.315,11.315,0,0,1-7.2,9.544,8.986,8.986,0,0,1-3.039.534" transform="translate(-524.774 -296.997)" fill="#1a1311"/>
          <path id="パス_545" data-name="パス 545" d="M569.336,509.393s-10.42-.636-14.216.748-13.419,9.869-11.169,12,8.823-4.446,11.367-4.882,5.743,2.944,11.2,2.244,8.163-8.053,2.816-10.108" transform="translate(-389.613 -364.982)" fill="#fff"/>
          <path id="パス_546" data-name="パス 546" d="M542.8,521.183a2.478,2.478,0,0,1-1.774-.683,2.114,2.114,0,0,1-.557-2.091c.724-3.5,8.49-10.124,12.039-11.418,3.928-1.432,14.148-.828,14.582-.8a.906.906,0,0,1,.27.059,5.038,5.038,0,0,1,3.438,5.516,7.553,7.553,0,0,1-6.464,6.338,14.95,14.95,0,0,1-8.038-1.439,6.735,6.735,0,0,0-3.125-.81,15.267,15.267,0,0,0-3.725,2.127c-2.352,1.581-4.763,3.2-6.645,3.2m18.887-13.327c-3.078,0-6.7.164-8.558.839-3.194,1.165-10.347,7.487-10.883,10.081-.025.118-.054.329.027.405.888.839,4.188-1.381,6.16-2.707,1.767-1.188,3.294-2.215,4.431-2.41,1.311-.226,2.612.305,4.117.919a13.244,13.244,0,0,0,7.122,1.32A5.694,5.694,0,0,0,569,511.548a3.216,3.216,0,0,0-2.16-3.556c-.559-.03-2.677-.136-5.149-.136" transform="translate(-387.316 -362.684)" fill="#1a1311"/>
          <path id="パス_547" data-name="パス 547" d="M574.468,347.513c-4.992-2.681-6.038-1.945-8.76-5.753s-8.032-11.489-8.228-12.89,2.946-4.458,6.406-2.181,8.769,10.292,9.635,10.361,4.894.15,7.084,3.556,1.489,5.336,1.489,5.336l-.946,14.126-8.41-1.98Z" transform="translate(-399.545 -233.555)" fill="#fff"/>
          <path id="パス_548" data-name="パス 548" d="M578.855,358.667a.908.908,0,0,1-.208-.024l-8.41-1.981a.907.907,0,0,1-.687-1.029l1.625-9.93c-1.24-.64-2.222-1.063-3.033-1.412a10.425,10.425,0,0,1-5.464-4.312c-2.44-3.415-8.144-11.545-8.388-13.292a3.725,3.725,0,0,1,2.007-3.22,5.163,5.163,0,0,1,5.8.156c2.146,1.413,4.8,4.7,6.93,7.35a34.993,34.993,0,0,0,2.454,2.877c3.508.239,6.065,1.57,7.6,3.957,2.106,3.276,1.782,5.393,1.624,5.987l-.94,14.026a.908.908,0,0,1-.9.846m-7.378-3.577,6.545,1.541.875-13.058a.9.9,0,0,1,.052-.249s.466-1.634-1.4-4.535c-1.822-2.834-5.125-3.056-6.21-3.129l-.183-.013c-.688-.055-1.207-.629-3.547-3.535-1.944-2.413-4.605-5.717-6.514-6.973a3.371,3.371,0,0,0-3.751-.187,2.439,2.439,0,0,0-1.258,1.486c.17.92,3.638,6.291,8.067,12.486a8.616,8.616,0,0,0,4.705,3.7c.963.414,2.162.93,3.746,1.781a.907.907,0,0,1,.466.946Z" transform="translate(-397.251 -231.247)" fill="#1a1311"/>
          <path id="パス_549" data-name="パス 549" d="M600.206,443.767l.828-6.974,12.44,1.892-1.062,8.3" transform="translate(-430.173 -313.053)" fill="#fff"/>
          <path id="パス_550" data-name="パス 550" d="M610.118,445.6a.952.952,0,0,1-.116-.007.907.907,0,0,1-.785-1.015l.95-7.423-10.638-1.618-.717,6.043a.907.907,0,0,1-1.8-.214l.828-6.974a.908.908,0,0,1,1.037-.79l12.44,1.893a.907.907,0,0,1,.763,1.012l-1.062,8.3a.907.907,0,0,1-.9.792" transform="translate(-427.877 -310.757)" fill="#1a1311"/>
          <path id="パス_551" data-name="パス 551" d="M654.09,538.434l-7.536-1.953,1.977-12.046,8.934,1.834" transform="translate(-463.39 -375.868)" fill="#fff"/>
          <path id="パス_552" data-name="パス 552" d="M651.8,537.047a.9.9,0,0,1-.228-.029l-7.536-1.952a.907.907,0,0,1-.668-1.025L645.341,522a.907.907,0,0,1,1.077-.742l8.934,1.834a.907.907,0,0,1-.365,1.777l-8.01-1.645-1.69,10.3,6.735,1.745a.907.907,0,0,1-.227,1.785" transform="translate(-461.095 -373.573)" fill="#1a1311"/>
          <path id="パス_553" data-name="パス 553" d="M583.9,475.094l3.091-24.55,16.382,2.175s.7,14.943.209,18.1c0,0,.176,10.9-.192,14s-4.857,13.912-11.441,13.162c-2.646-.3-5.187-2.655-4.1-1.387" transform="translate(-418.482 -322.908)" fill="#fdda09"/>
          <path id="パス_554" data-name="パス 554" d="M590.308,496.624a6.728,6.728,0,0,1-.761-.043,10.456,10.456,0,0,1-3.806-1.4.906.906,0,0,1-.876-.3c-.254-.3-.784-.912-.266-1.537s1.167-.246,1.689.056a9.657,9.657,0,0,0,3.463,1.375c5.617.638,10.055-9.142,10.437-12.367.357-3,.187-13.766.186-13.874a.906.906,0,0,1,.01-.154c.409-2.63-.052-14.092-.185-17.16l-14.724-1.955L582.5,472.912a.907.907,0,1,1-1.8-.227l3.091-24.55a.907.907,0,0,1,1.02-.786l16.382,2.175a.906.906,0,0,1,.786.857c.029.609.687,14.84.212,18.2.016,1.046.16,11.02-.2,14.043a23.53,23.53,0,0,1-3.534,8.42c-2.436,3.666-5.239,5.58-8.149,5.58" transform="translate(-416.187 -320.613)" fill="#1a1311"/>
          <path id="パス_555" data-name="パス 555" d="M688.958,526.344c-.725.2-25.861-1.957-25.861-1.957l-3.013,14.2s22.975,7.576,30.8,6.627" transform="translate(-473.087 -375.832)" fill="#fdda09"/>
          <path id="パス_556" data-name="パス 556" d="M687.077,543.911c-8.981,0-28.684-6.461-29.571-6.754a.907.907,0,0,1-.6-1.05l3.012-14.2a.907.907,0,0,1,.965-.716c9.666.83,24.415,2.031,25.633,1.966a.907.907,0,0,1,.4,1.768c-.577.163-9.118-.464-25.385-1.858l-2.676,12.62c4.053,1.3,22.893,7.156,29.633,6.339a.907.907,0,0,1,.218,1.8,13.686,13.686,0,0,1-1.622.087m-.582-20.755a.715.715,0,0,0-.077.018c.026-.007.051-.013.077-.018" transform="translate(-470.793 -373.537)" fill="#1a1311"/>
          <path id="パス_557" data-name="パス 557" d="M565.578,328.942c.169.239,5.873,6.9,7.795,8.872" transform="translate(-405.354 -235.755)" fill="#fff"/>
          <path id="パス_558" data-name="パス 558" d="M571.077,336.426a.9.9,0,0,1-.65-.274c-1.918-1.971-7.669-8.676-7.885-8.98a.907.907,0,0,1,1.471-1.062c.322.413,5.874,6.885,7.715,8.777a.907.907,0,0,1-.65,1.54" transform="translate(-403.059 -233.46)" fill="#1a1311"/>
          <path id="パス_559" data-name="パス 559" d="M557.714,334.6c.169.239,5.873,6.9,7.795,8.872" transform="translate(-399.718 -239.813)" fill="#fff"/>
          <path id="パス_560" data-name="パス 560" d="M563.214,342.088a.9.9,0,0,1-.65-.274c-1.918-1.971-7.669-8.676-7.885-8.98a.907.907,0,0,1,1.471-1.062c.322.413,5.874,6.885,7.715,8.777a.907.907,0,0,1-.65,1.54" transform="translate(-397.423 -237.518)" fill="#1a1311"/>
          <path id="パス_561" data-name="パス 561" d="M546.567,535.243c.7-1.237,6.66-5.623,7.858-6.306" transform="translate(-391.729 -379.093)" fill="#fff"/>
          <path id="パス_562" data-name="パス 562" d="M544.271,533.855a.907.907,0,0,1-.79-1.352c.876-1.556,7.244-6.1,8.2-6.649a.907.907,0,0,1,.9,1.576c-1.394.794-6.988,5.023-7.517,5.962a.906.906,0,0,1-.791.462" transform="translate(-389.434 -376.799)" fill="#1a1311"/>
          <path id="パス_563" data-name="パス 563" d="M635.734,472.863a1.075,1.075,0,1,1-1.1-1.045,1.075,1.075,0,0,1,1.1,1.045" transform="translate(-454.094 -338.155)" fill="#1a1311"/>
          <path id="パス_564" data-name="パス 564" d="M677.875,563.96a1.075,1.075,0,1,1-1.1-1.044,1.076,1.076,0,0,1,1.1,1.044" transform="translate(-484.297 -403.446)" fill="#1a1311"/>
          <path id="パス_565" data-name="パス 565" d="M690.987,567.863a1.075,1.075,0,1,1-1.1-1.045,1.076,1.076,0,0,1,1.1,1.045" transform="translate(-493.695 -406.243)" fill="#1a1311"/>
          <path id="パス_566" data-name="パス 566" d="M636.334,488.462a1.075,1.075,0,1,1-1.1-1.045,1.075,1.075,0,0,1,1.1,1.045" transform="translate(-454.524 -349.335)" fill="#1a1311"/>
          <path id="パス_567" data-name="パス 567" d="M903.1,320.365c-.436-3.343-2.213-11.6-5.335-12.2-1.073-.206-7.114-2.183-7.193-2.207-1.346-.4-31.071-6.043-33.954-6.408-6-.76-14.6-1.317-18.454,4.4-.439.651-18.277,30.232-17.687,32.665s6.87,7.117,9.961,7.548c1.812.253,4.161-.236,7.5-.065-.728,6.328-.611,14.707-.964,20.1-.342,5.237-1.133,37.419-1.625,38.3s11.647,2.716,24.849,3.737a136.519,136.519,0,0,0,32.513-1.6s-.268-32.935.076-43.356S903.69,324.9,903.1,320.365" transform="translate(-588.031 -214.354)" fill="#fdda09"/>
          <path id="パス_568" data-name="パス 568" d="M867.119,405.211c-2.984,0-6.117-.1-9.313-.348-6.017-.465-12.233-1.138-17.054-1.845-7.94-1.165-8.277-1.8-8.524-2.258a1.019,1.019,0,0,1-.046-.871c.281-1.318.711-14.265,1.026-23.741.219-6.6.409-12.3.539-14.281.133-2.03.2-4.5.27-7.121.1-3.9.222-8.287.595-12.05-1.221-.019-2.3.041-3.277.1a17.729,17.729,0,0,1-3.341-.006c-3.267-.456-10-5.29-10.716-8.232-.16-.657-.457-1.881,8.551-17.664,4.472-7.836,9.018-15.355,9.265-15.722,3.982-5.911,12.416-5.666,19.32-4.792,2.629.333,32.585,5.989,34.1,6.438l.26.084c5.37,1.742,6.577,2.05,6.847,2.1,1.724.331,3.15,2.184,4.36,5.664a39.779,39.779,0,0,1,1.7,7.309c.28,2.147-1.383,7.6-4.119,16.333-2.815,8.978-6.005,19.154-6.189,24.724-.34,10.283-.078,42.989-.075,43.319a.907.907,0,0,1-.735.9,138.569,138.569,0,0,1-23.442,1.966M834,399.86c2.083.749,11.578,2.238,23.943,3.195a137.962,137.962,0,0,0,31.53-1.458c-.037-5.018-.229-33.192.082-42.627.192-5.818,3.422-16.119,6.271-25.208,2.111-6.733,4.294-13.7,4.052-15.555-.57-4.36-2.427-11.007-4.607-11.426-.668-.129-3.045-.855-7.064-2.158l-.226-.073c-1.486-.441-31.188-6.044-33.8-6.374-6.387-.809-14.159-1.084-17.588,4.006-1.352,2.043-17.442,29.118-17.546,31.989.572,2.07,6.442,6.435,9.193,6.818a16.6,16.6,0,0,0,2.988-.008,39.143,39.143,0,0,1,4.43-.064.907.907,0,0,1,.854,1.01c-.447,3.888-.575,8.659-.688,12.869-.071,2.635-.138,5.125-.272,7.19-.128,1.956-.317,7.641-.536,14.223-.546,16.421-.782,21.838-1.018,23.651m-.093.541a1.071,1.071,0,0,1-.092.264.794.794,0,0,0,.092-.264m-1.675-.623v0M819.05,334.2h0" transform="translate(-585.713 -212.08)" fill="#1a1311"/>
          <path id="パス_569" data-name="パス 569" d="M949.933,258.194s1.839,8.2-1.6,14.11-6.869,5.135-6.869,5.135.6,12.481,8.335,13.9c5.925,1.089,18.794-13.352,18.794-13.352s.248.105-2.455-4.526-1.4-15.58-1.4-15.58" transform="translate(-674.758 -184.828)" fill="#fff"/>
          <path id="パス_570" data-name="パス 570" d="M948.15,290.009a4.459,4.459,0,0,1-.8-.07c-3.5-.644-6.189-3.44-7.762-8.085a27.165,27.165,0,0,1-1.315-6.665.907.907,0,0,1,1.106-.929c.1.017,2.882.461,5.884-4.706,3.21-5.526,1.512-13.378,1.494-13.456a.907.907,0,0,1,1.77-.4c.078.349,1.876,8.616-1.7,14.764-2.535,4.363-5.178,5.382-6.661,5.576.32,2.818,1.745,11.055,7.507,12.113,2.1.388,5.958-1.76,10.844-6.046a93.707,93.707,0,0,0,6.729-6.6c-.254-.5-.839-1.581-2.182-3.882-2.824-4.838-1.568-15.686-1.513-16.145a.907.907,0,0,1,1.8.215c-.013.107-1.24,10.7,1.279,15.015,2.68,4.59,2.9,4.965,2.357,5.581q-.023.026-.047.049c-1.466,1.64-12.433,13.666-18.792,13.666" transform="translate(-672.464 -182.533)" fill="#1a1311"/>
          <path id="パス_571" data-name="パス 571" d="M931.164,318.932s29.769,4.166,28.885,3.824-24.322,41.029-24.322,41.029S925.306,342,926.971,336.772s5.068-15.735,4.194-17.84" transform="translate(-664.238 -228.581)" fill="#fff"/>
          <path id="パス_572" data-name="パス 572" d="M945.315,357.737a.888.888,0,0,1-.129-.009.906.906,0,0,1-.722-.582c-3.043-8.206-2.889-19.36-2.223-27.272.613-7.276,2.042-15.4,2.524-15.99a.916.916,0,0,1,.846-.325.908.908,0,0,1,.678,1.289c-.645,2.071-5.2,25.356-.659,40.089,1.46-1.857,4.357-5.419,8.085-9.393,5.239-5.584,11.664-29.407,11.728-29.647a.907.907,0,1,1,1.752.47c-.267,1-6.61,24.506-12.157,30.419a136.853,136.853,0,0,0-9,10.588.907.907,0,0,1-.727.366m.019-42.386a.89.89,0,0,0,.775-.252.907.907,0,0,1-.775.252" transform="translate(-675.028 -224.722)" fill="#1a1311"/>
          <path id="パス_573" data-name="パス 573" d="M966.9,325.415l10.51,1.116-4.563,5.752-5.04-.242Z" transform="translate(-692.984 -233.227)" fill="#1a1311"/>
          <path id="パス_574" data-name="パス 574" d="M948.938,348.806s-6.005,13.49-8.364,21.185l4.709,13.545,8.142-10.173s.211-20.351.554-24.315Z" transform="translate(-674.117 -249.992)" fill="#1a1311"/>
          <path id="パス_575" data-name="パス 575" d="M922.654,309.955c1.584-6.224,4.292-15,4.292-15l-8.107-1.205s-8.626,15.643-7.279,15.572c.847-.044,3.626,1.426,5.886,2.834-2.224.89-5.613,2.133-5.626,2.384a61.4,61.4,0,0,0,2.767,13.6c1.987,5.5,10.122,17.592,10.122,17.592s-4.509-26.134-2.054-35.781" transform="translate(-653.22 -210.532)" fill="#fdda09"/>
          <path id="パス_576" data-name="パス 576" d="M922.383,344.348a.908.908,0,0,1-.753-.4c-.334-.5-8.221-12.253-10.222-17.79a61.828,61.828,0,0,1-2.82-13.957c.036-.761.351-.9,4.482-2.51a14.7,14.7,0,0,0-3.8-1.758,1.01,1.01,0,0,1-.914-.478c-.341-.544-.663-1.058,3.422-9.027,1.909-3.725,3.92-7.375,3.94-7.411a.909.909,0,0,1,.928-.459l8.107,1.205a.907.907,0,0,1,.733,1.165c-.027.088-2.72,8.828-4.279,14.957-2.379,9.349,2.025,35.143,2.069,35.4a.907.907,0,0,1-.893,1.061m-11.949-31.631a61.354,61.354,0,0,0,2.68,12.823c1.266,3.5,5.164,9.865,7.709,13.848-1.167-7.844-3.27-24.5-1.373-31.952,1.256-4.936,3.238-11.541,4-14.035L917,292.444c-3.095,5.644-6.223,11.813-6.88,13.834a29.489,29.489,0,0,1,5.476,2.812.907.907,0,0,1-.143,1.612c-.53.212-1.126.444-1.726.678-1.074.418-2.6,1.011-3.3,1.337" transform="translate(-650.893 -208.237)" fill="#1a1311"/>
          <path id="パス_577" data-name="パス 577" d="M949.932,294.8l4.709-2.428s-.385,5.9,3.66,9.872l-8.743,6.725s-1.578-8.6.373-14.169" transform="translate(-680.124 -209.545)" fill="#fff"/>
          <path id="パス_578" data-name="パス 578" d="M947.254,307.581a.908.908,0,0,1-.892-.743c-.066-.361-1.6-8.9.41-14.632a.906.906,0,0,1,.44-.506l4.709-2.428a.907.907,0,0,1,1.321.865c0,.054-.3,5.546,3.39,9.165a.907.907,0,0,1-.083,1.366l-8.743,6.725a.907.907,0,0,1-.553.188m1.117-14.439c-1.236,3.9-.777,9.29-.446,11.871l6.729-5.176a14.476,14.476,0,0,1-3.2-8.286Z" transform="translate(-677.82 -207.251)" fill="#1a1311"/>
          <path id="パス_579" data-name="パス 579" d="M981.943,300.2l7.719,8.229a46.371,46.371,0,0,0,5.555-7.286c1.961-3.236,4.1-6.984,4.01-7l-3.759-4.62s-5.58,4.631-7.806,6.362-5.719,4.318-5.719,4.318" transform="translate(-703.766 -207.5)" fill="#fff"/>
          <path id="パス_580" data-name="パス 580" d="M987.394,307.061a.959.959,0,0,1-.409-.107.906.906,0,0,1-.277-.2l-7.719-8.229a.907.907,0,0,1,.122-1.349c.035-.026,3.509-2.6,5.7-4.306s7.728-6.3,7.784-6.343a.907.907,0,0,1,1.283.126l3.742,4.6a.9.9,0,0,1,.146.23c.208.475.286.652-4.068,7.835a53.325,53.325,0,0,1-3.49,4.928c-1.683,2.141-2.263,2.817-2.815,2.817m-6.387-9.037,6.381,6.8a56.476,56.476,0,0,0,4.759-6.451c1.622-2.676,3.165-5.36,3.724-6.4l-2.823-3.469c-1.577,1.3-5.385,4.444-7.124,5.8-1.555,1.208-3.745,2.849-4.918,3.723" transform="translate(-701.472 -205.205)" fill="#1a1311"/>
          <path id="パス_581" data-name="パス 581" d="M947.627,500.7a2.428,2.428,0,1,1-2.309-2.542,2.428,2.428,0,0,1,2.309,2.542" transform="translate(-675.693 -357.031)" fill="#fff"/>
          <path id="パス_582" data-name="パス 582" d="M942.909,501.623c-.053,0-.107,0-.161,0a3.335,3.335,0,1,1,3.491-3.172h0a3.34,3.34,0,0,1-3.33,3.175m0-4.857a1.521,1.521,0,1,0,.073,0l-.073,0m2.426,1.637h0Z" transform="translate(-673.399 -354.736)" fill="#1a1311"/>
          <path id="パス_583" data-name="パス 583" d="M946.451,557.089a2.428,2.428,0,1,1-2.309-2.542,2.428,2.428,0,0,1,2.309,2.542" transform="translate(-674.85 -397.447)" fill="#fff"/>
          <path id="パス_584" data-name="パス 584" d="M941.732,558.014c-.054,0-.107,0-.161,0a3.333,3.333,0,1,1,.161,0m0-4.857a1.52,1.52,0,1,0,.073,0l-.073,0m2.426,1.637h0Z" transform="translate(-672.555 -395.152)" fill="#1a1311"/>
          <path id="パス_585" data-name="パス 585" d="M987.316,323.965c.083-.307.121-13.935.121-13.935l-5.7-2.282s-7.584,10.785-10.291,15.606c-3.266,5.818-13.107,32.415-13.107,32.415a172.252,172.252,0,0,1,12.295-12.35c5.005-4.261,12.927-13.033,12.927-13.033l-4.009-4.413c4.813-1.32,7.767-2.009,7.767-2.009" transform="translate(-686.846 -220.565)" fill="#fdda09"/>
          <path id="パス_586" data-name="パス 586" d="M956.04,354.38a.907.907,0,0,1-.851-1.222c.4-1.089,9.9-26.732,13.167-32.545,2.7-4.806,10.029-15.242,10.34-15.683a.906.906,0,0,1,1.079-.32l5.7,2.282a.907.907,0,0,1,.57.845c-.038,13.748-.113,14.023-.153,14.171a.908.908,0,0,1-.669.646c-.026.006-2.407.563-6.306,1.612l3.013,3.316a.907.907,0,0,1,0,1.218c-.325.36-8.019,8.865-13.013,13.115a172.381,172.381,0,0,0-12.208,12.267.907.907,0,0,1-.674.3m23.729-47.819c-1.614,2.313-7.538,10.856-9.831,14.941-2.4,4.275-8.5,20.2-11.433,27.973,2.582-2.734,6.28-6.521,9.241-9.042,4.145-3.529,10.407-10.288,12.289-12.343l-3.454-3.8a.907.907,0,0,1,.431-1.485c3.464-.95,5.992-1.579,7.131-1.856.043-1.967.075-8.1.089-12.6Zm5.252,15.108h0Z" transform="translate(-684.551 -218.27)" fill="#1a1311"/>
          <path id="パス_587" data-name="パス 587" d="M947.977,85.8a11.321,11.321,0,0,1-5.42-2.709c-1.169,2.826.319,5.377,1.606,6.9-.119.193-.238.39-.354.595-5,8.8-.464,17.938-.464,17.938l14.888-21.76s-5.017-7.473-10.257-.961" transform="translate(-674.751 -59.553)" fill="#1a1311"/>
          <path id="パス_588" data-name="パス 588" d="M941.012,107.136l-.063,0a.907.907,0,0,1-.749-.5c-.195-.391-4.7-9.678.487-18.79l.041-.071c-1.827-2.411-2.306-4.989-1.342-7.319a.907.907,0,0,1,1.474-.3,10.588,10.588,0,0,0,4.44,2.357,6.47,6.47,0,0,1,5.148-2.568c3.569.154,6.1,3.864,6.206,4.022a.907.907,0,0,1,0,1.018l-14.888,21.76a.907.907,0,0,1-.748.395m-.272-24.761a6.439,6.439,0,0,0,1.782,4.734.907.907,0,0,1,.08,1.063c-.113.184-.226.371-.336.566-3.547,6.234-2.028,12.715-1.042,15.576L954.781,84.5c-.716-.877-2.414-2.66-4.419-2.743-1.377-.057-2.726.725-4.012,2.323a.907.907,0,0,1-.868.324,12.105,12.105,0,0,1-4.742-2.025" transform="translate(-672.416 -57.259)" fill="#1a1311"/>
          <path id="パス_589" data-name="パス 589" d="M932.277,114.9c-2.592,4.262-4.735,13.2-6.535,19.858-4.518,16.713.129,22.3,8.115,24.858,9.386,3,17.68.5,24.976-8.824,3.62-4.626,9.075-13.485,9.595-20.187s-7.1-20.705-17.262-21.507-14.206-1.9-18.888,5.8" transform="translate(-662.218 -77.788)" fill="#fff"/>
          <path id="パス_590" data-name="パス 590" d="M938.8,159.452a24.765,24.765,0,0,1-7.56-1.263c-10.149-3.249-12.755-11.012-8.714-25.958.241-.892.488-1.824.742-2.78,1.679-6.333,3.581-13.51,5.894-17.313,4.578-7.528,8.824-7.164,17.284-6.439.776.067,1.592.137,2.451.2,10.79.851,18.643,15.41,18.1,22.481-.555,7.159-6.412,16.365-9.785,20.676-5.439,6.951-11.509,10.392-18.407,10.392m1.64-52.307c-4.366,0-6.826,1.161-9.729,5.935-2.176,3.579-4.043,10.621-5.69,16.835-.254.96-.5,1.895-.744,2.789-4.669,17.27.853,21.625,7.516,23.757a22.661,22.661,0,0,0,6.917,1.154c6.377,0,12.005-3.2,17.068-9.673,6.9-8.822,9.159-16.533,9.4-19.7.488-6.3-6.809-19.773-16.429-20.532-.864-.068-1.684-.138-2.463-.205-2.3-.2-4.211-.361-5.85-.361m-10.5,5.464h0Z" transform="translate(-659.881 -75.497)" fill="#1a1311"/>
          <path id="パス_591" data-name="パス 591" d="M1010.713,127.631s15.337-12.394,6-27.869c-6.212-10.291-26.112-15.221-29.5-8.305-.45.919,5.221,3.63,6.53,15.262a6.233,6.233,0,0,0,3.618-3.729,18.133,18.133,0,0,0,6.275,7.885c5.137,3.314,3.46,7.794,3.378,9.078s-2.464,8.748-2.464,8.748,4.316-3.188,5.7-2.248.465,1.179.465,1.179" transform="translate(-707.524 -63.245)" fill="#1a1311"/>
          <path id="パス_592" data-name="パス 592" d="M1002.237,127.311a.908.908,0,0,1-.864-1.183c.908-2.844,2.369-7.675,2.423-8.53.015-.223.06-.484.112-.787.3-1.724.858-4.934-3.076-7.471a18.054,18.054,0,0,1-5.839-6.632,6.79,6.79,0,0,1-3.3,2.583.907.907,0,0,1-1.16-.768c-.919-8.169-4.029-11.746-5.523-13.465-.731-.841-1.308-1.505-.921-2.3,1.107-2.26,3.649-3.541,7.353-3.7,7.776-.341,19.17,4.375,23.735,11.939a20.048,20.048,0,0,1,.53,20.631,30.062,30.062,0,0,1-6.286,8.03,1.376,1.376,0,0,1-.788.555.907.907,0,0,1-1.071-1.214c-.039-.029-.082-.059-.131-.093-.5-.243-2.767.837-4.652,2.227a.9.9,0,0,1-.539.177m-7.189-27.525h.006a.908.908,0,0,1,.842.585,17.34,17.34,0,0,0,5.919,7.445c4.944,3.189,4.2,7.476,3.88,9.307-.042.24-.081.466-.089.592a54.991,54.991,0,0,1-1.749,6.549c1.586-.895,3.472-1.617,4.589-.858.1.068.248.168.4.3a28.58,28.58,0,0,0,5.278-6.975,18.049,18.049,0,0,0-.507-18.793c-4.171-6.909-14.991-11.376-22.1-11.064-2.776.122-4.763.971-5.645,2.4.126.162.322.388.5.6,1.532,1.763,4.637,5.335,5.789,13.158a5.775,5.775,0,0,0,2.04-2.665.907.907,0,0,1,.844-.575" transform="translate(-705.213 -60.949)" fill="#1a1311"/>
          <path id="パス_593" data-name="パス 593" d="M1053.372,221.126c3.481.029,6.036,2.968,4.732,5.8s-6.326,4.229-9.314,2.311" transform="translate(-751.676 -158.483)" fill="#fff"/>
          <path id="パス_594" data-name="パス 594" d="M1049.788,228.734a7.007,7.007,0,0,1-3.783-1.029.907.907,0,0,1,.98-1.527,5.933,5.933,0,0,0,4.788.452,4.994,4.994,0,0,0,3.212-2.378,2.685,2.685,0,0,0-.187-2.638,4.427,4.427,0,0,0-3.729-1.876.907.907,0,0,1,.007-1.814h.008a6.252,6.252,0,0,1,5.246,2.718,4.5,4.5,0,0,1,.3,4.369,6.7,6.7,0,0,1-4.35,3.361,8.929,8.929,0,0,1-2.495.362" transform="translate(-749.381 -156.188)" fill="#1a1311"/>
          <path id="パス_595" data-name="パス 595" d="M947.521,187.6a45.846,45.846,0,0,0-7.959,3.962l3.379,4.623" transform="translate(-673.391 -134.451)" fill="#fff"/>
          <path id="パス_596" data-name="パス 596" d="M940.647,194.792a.906.906,0,0,1-.733-.372l-3.379-4.623a.907.907,0,0,1,.216-1.282,46.471,46.471,0,0,1,8.132-4.056.907.907,0,0,1,.686,1.679,54.113,54.113,0,0,0-6.994,3.375l2.8,3.835a.907.907,0,0,1-.731,1.443" transform="translate(-671.096 -132.156)" fill="#1a1311"/>
          <path id="パス_597" data-name="パス 597" d="M1008.23,186.464a1.534,1.534,0,1,1-1.463-1.6,1.534,1.534,0,0,1,1.463,1.6" transform="translate(-720.408 -132.49)" fill="#1a1311"/>
          <path id="パス_598" data-name="パス 598" d="M958.335,169.032a1.535,1.535,0,1,1-1.463-1.6,1.534,1.534,0,0,1,1.463,1.6" transform="translate(-684.648 -119.996)" fill="#1a1311"/>
          <path id="パス_599" data-name="パス 599" d="M1054.917,236.833a2.866,2.866,0,0,1,2.535-1.165" transform="translate(-756.067 -168.905)" fill="#fff"/>
          <path id="パス_600" data-name="パス 600" d="M1052.62,235.445a.907.907,0,0,1-.748-1.42,3.782,3.782,0,0,1,3.247-1.559.907.907,0,0,1,.072,1.813,1.99,1.99,0,0,0-1.822.771.906.906,0,0,1-.749.395" transform="translate(-753.771 -166.61)" fill="#1a1311"/>
          <path id="パス_601" data-name="パス 601" d="M1052.025,129.895a.678.678,0,0,1-.445-.165c-1.7-1.469-4.067-4.56-5.7-10.95a.68.68,0,1,1,1.318-.337c1.547,6.049,3.721,8.917,5.273,10.258a.68.68,0,0,1-.445,1.195" transform="translate(-749.575 -84.522)" fill="#fff"/>
          <path id="パス_602" data-name="パス 602" d="M1037.771,128.67a.677.677,0,0,1-.461-.181c-1.649-1.524-3.913-4.692-5.335-11.133a.68.68,0,0,1,1.328-.293c1.346,6.1,3.423,9.035,4.93,10.427a.68.68,0,0,1-.462,1.18" transform="translate(-739.612 -83.518)" fill="#fff"/>
          <path id="パス_603" data-name="パス 603" d="M948.2,243.37s8.457,2.342,10.934,4.3" transform="translate(-679.585 -174.425)" fill="#fff"/>
          <path id="パス_604" data-name="パス 604" d="M956.841,246.283a.9.9,0,0,1-.562-.2c-1.912-1.513-8.309-3.5-10.613-4.138a.907.907,0,1,1,.484-1.749c.352.1,8.664,2.414,11.254,4.464a.907.907,0,0,1-.563,1.618" transform="translate(-677.289 -172.13)" fill="#1a1311"/>
          <path id="パス_605" data-name="パス 605" d="M876.857,283.868c.134-6.131,1.307-10.348,6.655-11.943,3.416-1.019,5.671-8.289,6.98-6.883,2.194,2.358-.454,7.224-.894,7.3s18.055-5.455,18.313-3.866c.574,3.527-12.867,6.464-12.867,6.464s9.51-1.52,9.15.286c-.559,2.8-7.991,4.051-7.991,4.051s3.053,0,2.48,1.766-2.98,1.7-2.98,1.7,2.759,2.067,1.09,3.8a15.237,15.237,0,0,1-9.895,4.254c-2.856-.033-3.014.943-3.572.853s-6.018,8.349-6.018,8.349l-7.022-7Z" transform="translate(-623.741 -189.829)" fill="#fff"/>
          <path id="パス_606" data-name="パス 606" d="M875.013,298.6a.907.907,0,0,1-.641-.265l-7.022-7a.907.907,0,0,1-.1-1.173l6.408-8.891c.172-6.266,1.515-10.785,7.3-12.51,1.48-.441,2.856-2.557,3.962-4.256,1.078-1.657,1.79-2.752,2.794-2.839a1.388,1.388,0,0,1,1.148.464c1.226,1.318,1.438,3.4.6,5.853-.043.125-.107.3-.189.513l.261-.075c1.079-.312,3.244-.928,5.632-1.55,8.569-2.231,9.853-1.928,10.338-1.814a1.2,1.2,0,0,1,1.011.975c.306,1.879-1.56,3.543-5.857,5.2a3.1,3.1,0,0,1,1.78.665,1.341,1.341,0,0,1,.354,1.207c-.42,2.105-3.4,3.389-5.8,4.093l.031.041a1.906,1.906,0,0,1,.236,1.784,3.206,3.206,0,0,1-2.022,2.009,3.607,3.607,0,0,1,.7,1.764,2.629,2.629,0,0,1-.782,2.072,16.108,16.108,0,0,1-10.558,4.532,4.088,4.088,0,0,0-2.554.535,1.973,1.973,0,0,1-.716.307,93.319,93.319,0,0,0-5.547,7.947.907.907,0,0,1-.665.409.916.916,0,0,1-.1.005m-5.835-8.006,5.683,5.667c4.788-7.349,5.568-7.874,6.161-7.833l.066-.042a5.847,5.847,0,0,1,3.525-.8h.08a14.331,14.331,0,0,0,9.151-3.977.807.807,0,0,0,.28-.667,3.309,3.309,0,0,0-1.261-1.777.907.907,0,0,1,.571-1.633c.016,0,1.737.022,2.09-1.068a.37.37,0,0,0,.026-.153,2.667,2.667,0,0,0-1.645-.426.907.907,0,0,1-.149-1.8c2.548-.43,6.347-1.646,7.126-3.008-1.1-.279-4.52-.093-7.991.461a.907.907,0,0,1-.337-1.782,61.281,61.281,0,0,0,6.551-1.883c3.961-1.417,5.14-2.51,5.482-3.093-3.037.047-15.4,3.545-16.936,4.1a.834.834,0,0,1-.2.062.917.917,0,0,1-.925-.418.908.908,0,0,1,.035-1.008.654.654,0,0,1,.274-.248c.516-.626,2.037-3.895.917-5.621a17.422,17.422,0,0,0-1.309,1.851c-1.268,1.948-2.846,4.374-4.964,5.006-4.853,1.448-5.878,5.164-6.007,11.094a.905.905,0,0,1-.171.51Zm5.384-9.022h0Zm13.255-10.789a1.126,1.126,0,0,1-.157.088.783.783,0,0,0,.157-.088m-.813-1.6-.044.018.044-.018" transform="translate(-621.446 -187.533)" fill="#1a1311"/>
          <line id="線_36" data-name="線 36" x1="4.141" y2="1.42" transform="translate(261.716 82.509)" fill="#fff"/>
          <path id="パス_607" data-name="パス 607" d="M921.542,291.281a.907.907,0,0,1-.294-1.765l4.141-1.42a.907.907,0,0,1,.589,1.716l-4.141,1.42a.907.907,0,0,1-.294.049" transform="translate(-659.826 -206.445)" fill="#1a1311"/>
          <path id="パス_608" data-name="パス 608" d="M868.724,347.4l4.114-6.166,10.8,7.73-4.969,7.3" transform="translate(-622.622 -244.566)" fill="#fff"/>
          <path id="パス_609" data-name="パス 609" d="M876.373,354.88a.907.907,0,0,1-.749-1.417l4.471-6.571-9.318-6.669-3.594,5.386a.907.907,0,1,1-1.509-1.007l4.114-6.166a.907.907,0,0,1,1.282-.234l10.8,7.73a.907.907,0,0,1,.222,1.248l-4.97,7.3a.906.906,0,0,1-.751.4" transform="translate(-620.327 -242.271)" fill="#1a1311"/>
          <path id="パス_610" data-name="パス 610" d="M824.214,377.2c1.969-2.734,8.457-17.128,8.457-17.128L818.3,350.194l-16.87,24.9c-5.286,8.985-3.068,13.852,1.013,17.206,5.4,4.44,13.652-1.608,15.48-4.348s6.293-10.749,6.293-10.749" transform="translate(-572.163 -250.987)" fill="#fdda09"/>
          <path id="パス_611" data-name="パス 611" d="M804.6,392.5a7.778,7.778,0,0,1-5.077-1.788c-5.53-4.544-5.917-10.38-1.219-18.366.01-.017.02-.033.031-.049l16.87-24.9a.907.907,0,0,1,1.265-.239l14.374,9.881a.907.907,0,0,1,.313,1.12c-.265.588-6.483,14.364-8.517,17.242-.4.709-4.53,8.1-6.306,10.766a17.174,17.174,0,0,1-10.233,6.219,10.231,10.231,0,0,1-1.5.114m-4.747-19.21c-5.386,9.173-2.391,13.38.821,16.02a6.33,6.33,0,0,0,5.16,1.28,15.617,15.617,0,0,0,8.99-5.431c1.787-2.679,6.21-10.607,6.255-10.687a.911.911,0,0,1,.056-.089c1.652-2.293,6.738-13.388,8.054-16.281l-13-8.933Z" transform="translate(-569.824 -248.693)" fill="#1a1311"/>
          <path id="パス_612" data-name="パス 612" d="M1027.4,519.341a23.788,23.788,0,0,0-7.124,7.011c-3.052,4.661-9.126,7.481-5.485,8.221s9.083-5.1,9.083-5.1,1,20.261,3.724,22.372,2.292-10.205,2.292-10.205.009,6.3,1.457,5.621c3.664-1.71,1.073-17.095,2.014-19.029s3.27-6.748,3.27-6.748l-2.537-6.061Z" transform="translate(-726.503 -369.406)" fill="#fff"/>
          <path id="パス_613" data-name="パス 613" d="M1025.885,550.7a1.849,1.849,0,0,1-1.14-.434c-.549-.425-2.008-1.554-3.231-12.595-.362-3.274-.6-6.476-.726-8.454-1.985,1.8-5.565,4.542-8.475,3.951-.379-.077-1.531-.311-1.8-1.288-.321-1.155.812-2.194,2.527-3.768a25.462,25.462,0,0,0,4.183-4.551,24.542,24.542,0,0,1,7.426-7.3l6.69-3.92a.907.907,0,0,1,1.295.432l2.537,6.061a.908.908,0,0,1-.02.745s-2.329,4.815-3.271,6.75a27.317,27.317,0,0,0-.026,5.218c.3,7.286.316,12.96-2.421,14.237a1.345,1.345,0,0,1-1.1.031c-.343,3.5-1.065,4.364-1.745,4.713a1.534,1.534,0,0,1-.7.17m-4.308-24.43a.908.908,0,0,1,.906.863c.478,9.706,1.859,20.431,3.35,21.681.546-.8.917-4.264.883-8.059-.021-.479-.03-.955-.031-1.41a.907.907,0,0,1,1.814-.033c0,.039.015.419.022,1.018a15.315,15.315,0,0,0,.473,3.571c1.492-1.569,1.206-8.461,1.048-12.275-.142-3.428-.2-5.255.207-6.087.783-1.61,2.529-5.216,3.091-6.378l-1.979-4.727-5.8,3.4,0,0a23.126,23.126,0,0,0-6.819,6.723,26.858,26.858,0,0,1-4.474,4.894,17.539,17.539,0,0,0-1.871,1.872c.072.022.165.046.282.069,2.576.522,6.82-3.311,8.238-4.832a.908.908,0,0,1,.664-.289m3.526-9.223h0Z" transform="translate(-724.201 -367.111)" fill="#1a1311"/>
          <path id="パス_614" data-name="パス 614" d="M1070.115,525.736l-5.523,3.134-6.809-11.666,7.866-4.02" transform="translate(-758.122 -367.802)" fill="#fff"/>
          <path id="パス_615" data-name="パス 615" d="M1062.3,527.482a.907.907,0,0,1-.784-.45l-6.809-11.666a.907.907,0,0,1,.371-1.265l7.866-4.021a.907.907,0,1,1,.826,1.615l-7.012,3.584,5.874,10.064,4.744-2.692a.907.907,0,1,1,.9,1.578l-5.523,3.134a.9.9,0,0,1-.447.118" transform="translate(-755.827 -365.507)" fill="#1a1311"/>
          <path id="パス_616" data-name="パス 616" d="M1072.011,361.8l12.432,10.565-17.542,9.853s7.806,15.222,8.172,15.009,26.221-15.829,29.116-20.255c3.662-5.6.832-11.552-4.619-18.675s-19.166-25.064-23.1-27.464a22.449,22.449,0,0,0-4.442-1.722" transform="translate(-764.656 -235.879)" fill="#fdda09"/>
          <path id="パス_617" data-name="パス 617" d="M1072.764,395.843a.923.923,0,0,1-.258-.036c-.484-.142-.7-.207-4.826-8.011-1.951-3.695-3.861-7.418-3.88-7.455a.907.907,0,0,1,.363-1.2l16.406-9.215-11.439-9.722a.907.907,0,1,1,1.174-1.382l12.432,10.565a.907.907,0,0,1-.143,1.482l-16.78,9.425c2.426,4.715,5.968,11.458,7.193,13.454,4.671-2.813,25.708-15.859,28.129-19.56,3.408-5.209.633-10.814-4.58-17.627l-.107-.14c-5.192-6.784-18.981-24.8-22.748-27.1a21.691,21.691,0,0,0-4.21-1.621.907.907,0,1,1,.478-1.75,23.02,23.02,0,0,1,4.675,1.822c3.6,2.192,14.311,15.873,23.245,27.547l.107.14c4.917,6.425,8.885,13.262,4.658,19.723-3.069,4.691-29.162,20.392-29.42,20.542a.941.941,0,0,1-.47.124" transform="translate(-762.361 -233.584)" fill="#1a1311"/>
          <line id="線_37" data-name="線 37" y1="2.484" x2="4.22" transform="translate(319.787 134.005)" fill="#fdda09"/>
          <path id="パス_618" data-name="パス 618" d="M1126.529,474.123a.907.907,0,0,1-.461-1.689l4.22-2.484a.907.907,0,1,1,.921,1.564l-4.22,2.484a.9.9,0,0,1-.459.126" transform="translate(-806.741 -336.727)" fill="#1a1311"/>
          <path id="パス_619" data-name="パス 619" d="M894.471,391.4a1.183,1.183,0,1,1-1.125-1.239,1.183,1.183,0,0,1,1.125,1.239" transform="translate(-639.379 -279.632)" fill="#1a1311"/>
          <path id="パス_620" data-name="パス 620" d="M887.907,405.833a1.183,1.183,0,1,1-1.126-1.239,1.184,1.184,0,0,1,1.126,1.239" transform="translate(-634.674 -289.975)" fill="#1a1311"/>
          <path id="パス_621" data-name="パス 621" d="M1115.4,540.328a1.183,1.183,0,1,1-.251-1.654,1.184,1.184,0,0,1,.251,1.654" transform="translate(-797.885 -385.906)" fill="#1a1311"/>
          <path id="パス_622" data-name="パス 622" d="M1101.943,548.709a1.183,1.183,0,1,1-.251-1.654,1.184,1.184,0,0,1,.251,1.654" transform="translate(-788.24 -391.913)" fill="#1a1311"/>
          <path id="パス_623" data-name="パス 623" d="M176.489,289.4c-.506-1.5-3.1-2.779-4.023-3.37-8.5-5.445-23.159-6.319-23.215-6.323-10.058-.751-18.162-1.439-21.7-.346-3.7,1.142-10.092,3.422-15.211,5.29-3.388,1.32-14.478,6.093-16.588,9.057-7.788,10.936-.584,58.916.567,60.7s1.776,2.96,6.572,2.033c.686,10.915,2.165,35.692,1.8,36.471-.451.961,19.811.079,33.8.137,18.327.076,42.357-5.166,42.357-5.166L177.2,347.749c5.314-8.127,7.375-47.415-.712-58.346" transform="translate(-66.063 -199.815)" fill="#fdda09"/>
          <path id="パス_624" data-name="パス 624" d="M108.36,391.982c-5.657,0-6.372-.231-6.738-.8a.971.971,0,0,1-.113-.822c.2-1.577-.766-19.069-1.772-35.146-4.164.619-5.175-.564-6.408-2.478l-.083-.128c-.772-1.2-2.858-14.47-3.778-27.344-1.6-22.406.875-31.059,3.234-34.373,2.641-3.709,16.855-9.321,17-9.376,4.854-1.771,11.426-4.124,15.272-5.311,3.51-1.083,10.958-.524,20.388.184l1.652.124c.611.039,15.13,1.015,23.637,6.464.147.094.339.207.559.336,1.275.749,3.183,1.87,3.781,3.364,5.228,7.225,5.576,23.838,5.482,30.671-.173,12.5-2.073,24.028-4.645,28.33l3.611,39.833a.907.907,0,0,1-.71.968c-.239.052-23.995,5.187-42.162,5.187h-.392c-5.007-.019-10.7.078-16.207.173-5.254.09-8.967.14-11.606.14m-6.855-1.584h0Zm.053-.158v0m1.776-.215c2.159.251,9.791.12,16.6,0,5.516-.095,11.222-.191,16.246-.173h.386c16.119,0,36.744-4.1,40.99-4.981l-3.566-39.333a.907.907,0,0,1,.144-.578c2.45-3.748,4.352-15.371,4.521-27.638.192-13.916-1.753-25.008-5.2-29.672a.913.913,0,0,1-.13-.249c-.313-.926-2.083-1.966-3.034-2.524-.244-.143-.456-.268-.619-.373-8.116-5.2-22.181-6.144-22.776-6.181l-1.67-.125c-8.873-.666-16.536-1.242-19.717-.259-3.81,1.176-10.351,3.518-15.167,5.275-4.3,1.675-14.364,6.209-16.16,8.731-3.066,4.305-4.106,15.956-2.93,32.805.964,13.8,3.024,25.762,3.536,26.9l.068.105c1.014,1.574,1.478,2.292,5.553,1.5a.907.907,0,0,1,1.077.834c.181,2.879.81,12.976,1.295,22.045.489,9.135.588,12.532.554,13.883m-8.564-38.4,0,.006,0-.006" transform="translate(-63.757 -197.526)" fill="#1a1311"/>
          <path id="パス_625" data-name="パス 625" d="M181.708,286.136l19.226,52.506,17.18-55.263Z" transform="translate(-130.231 -203.099)" fill="#fff"/>
          <path id="パス_626" data-name="パス 626" d="M220.8,236.943s-.533,11.636,2.673,16.305,2.936,4.578,2.936,4.578a132.886,132.886,0,0,1-14.272,1.581,126.4,126.4,0,0,1-14.348-.068s1.153.12,4.314-6.372,1.473-14.593,1.473-14.593" transform="translate(-141.759 -169.819)" fill="#fff"/>
          <path id="パス_627" data-name="パス 627" d="M203.129,258.18c-4.194,0-7.066-.187-7.609-.226-.045,0-.084-.005-.117-.009a.907.907,0,0,1-.1-1.789c.207-.135,1.334-1.039,3.692-5.883,2.984-6.127,1.416-13.934,1.4-14.012a.907.907,0,0,1,1.776-.37c.071.343,1.714,8.482-1.545,15.176a33.843,33.843,0,0,1-2.968,5.185c2.449.1,6.853.208,12.142-.048,5.269-.255,10.54-1,12.891-1.363-.406-.637-1.093-1.678-2.258-3.376-3.339-4.864-2.853-16.372-2.831-16.86a.907.907,0,1,1,1.812.083c0,.113-.481,11.387,2.514,15.75,1.239,1.805,2.112,3.122,2.595,3.912.422.691.726,1.19.32,1.725a.912.912,0,0,1-.571.347h0a135.25,135.25,0,0,1-14.384,1.593c-2.479.12-4.769.162-6.76.162" transform="translate(-139.464 -167.524)" fill="#1a1311"/>
          <path id="パス_628" data-name="パス 628" d="M226.556,315.017l11.6.13-3.367,8.029-5.09.048Z" transform="translate(-162.374 -225.775)" fill="#1a1311"/>
          <path id="パス_629" data-name="パス 629" d="M227.127,343.863s-3.688,15.959-4.165,24.446l8.166,12.008,6.8-12.4s-5.064-19.948-5.713-24.1Z" transform="translate(-159.799 -246.415)" fill="#1a1311"/>
          <path id="パス_630" data-name="パス 630" d="M276.057,296.838c.025-.335-2.839-15.243-2.839-15.243l-8.339-2.4s-3.565,14.645-5.407,20.187c-2.223,6.687-7.1,36.242-7.1,36.242a181.919,181.919,0,0,1,10.278-15.27c4.338-5.421,10.8-16.1,10.8-16.1l-5.041-3.774c4.728-2.332,7.653-3.638,7.653-3.638" transform="translate(-180.874 -200.101)" fill="#fdda09"/>
          <path id="パス_631" data-name="パス 631" d="M250.073,334.236a.906.906,0,0,1-.895-1.055c.2-1.209,4.918-29.7,7.138-36.38,1.809-5.444,5.351-19.969,5.386-20.115a.907.907,0,0,1,1.132-.657l8.339,2.4a.907.907,0,0,1,.64.7c2.887,15.027,2.864,15.334,2.853,15.482a.908.908,0,0,1-.535.761c-.026.012-2.415,1.079-6.293,2.971l3.854,2.886a.907.907,0,0,1,.233,1.2c-.265.438-6.54,10.8-10.866,16.2A182.088,182.088,0,0,0,250.85,333.8a.908.908,0,0,1-.777.439m13.167-56.2c-.817,3.319-3.615,14.566-5.2,19.34-1.65,4.965-4.838,23.01-6.3,31.557,2.133-3.364,5.286-8.163,7.907-11.438,3.614-4.516,8.791-12.846,10.3-15.306l-4.38-3.279a.907.907,0,0,1,.142-1.539c3.437-1.7,5.948-2.861,7.057-3.367-.361-2.1-1.669-8.992-2.627-13.983Zm10.522,16.51h0Z" transform="translate(-178.579 -197.807)" fill="#1a1311"/>
          <path id="パス_632" data-name="パス 632" d="M165.144,301.644c-.042-.333,2.865-14.371,2.865-14.371l6.14-3.073s3.874,13.75,5.993,19.192c2.556,6.567,8.919,35.838,8.919,35.838A182,182,0,0,0,178.028,324.5c-4.605-5.2-11.6-15.54-11.6-15.54l6.538-4.065c-4.839-2.092-7.827-3.248-7.827-3.248" transform="translate(-118.36 -203.688)" fill="#fdda09"/>
          <path id="パス_633" data-name="パス 633" d="M186.774,337.842a.906.906,0,0,1-.752-.4A182.173,182.173,0,0,0,175.061,322.8c-4.592-5.181-11.381-15.21-11.668-15.634a.907.907,0,0,1,.273-1.278l5.061-3.147c-3.829-1.631-6.172-2.54-6.2-2.55a.907.907,0,0,1-.573-.733c-.024-.192-.061-.482,2.877-14.668a.908.908,0,0,1,.482-.627l6.14-3.073a.907.907,0,0,1,1.279.565c.039.137,3.887,13.771,5.965,19.109,2.553,6.558,8.7,34.777,8.961,35.975a.907.907,0,0,1-.886,1.1m-21.346-30.91c1.715,2.5,7.206,10.4,10.991,14.668,2.782,3.139,6.173,7.773,8.473,11.026-1.892-8.463-5.984-26.324-7.882-31.2-1.792-4.6-4.766-14.877-5.721-18.22l-4.768,2.386c-.929,4.492-2.275,11.09-2.657,13.179,1.151.458,3.7,1.489,7.179,2.993a.907.907,0,0,1,.119,1.6Zm-1.667-7.542Z" transform="translate(-116.072 -201.393)" fill="#1a1311"/>
          <path id="パス_634" data-name="パス 634" d="M247.534,282.048l7.475,8.106a49.877,49.877,0,0,0,4.46-8.083c1.529-3.553,3.185-7.658,3.1-7.672l-3.682-4.593s-4.668,5.288-6.538,7.274-4.813,4.968-4.813,4.968" transform="translate(-177.41 -193.372)" fill="#fff"/>
          <path id="パス_635" data-name="パス 635" d="M252.719,288.765a.921.921,0,0,1-.378-.08.906.906,0,0,1-.293-.212l-7.474-8.105a.907.907,0,0,1,.021-1.252c.029-.03,2.957-3,4.8-4.953s6.472-7.2,6.519-7.252a.922.922,0,0,1,.7-.307.907.907,0,0,1,.686.339l3.665,4.57a.909.909,0,0,1,.106.152c.243.44.248.448-.916,3.33-.635,1.57-1.437,3.491-2.145,5.138a59.131,59.131,0,0,1-2.728,5.359c-1.712,3.01-1.951,3.1-2.229,3.21a.921.921,0,0,1-.332.062m-6.226-8.992,6.131,6.648a61.59,61.59,0,0,0,3.718-7c1.308-3.04,2.53-6.056,2.924-7.121l-2.708-3.377c-1.386,1.564-4.426,4.983-5.844,6.488-1.344,1.427-3.256,3.383-4.221,4.366" transform="translate(-175.115 -191.077)" fill="#1a1311"/>
          <path id="パス_636" data-name="パス 636" d="M208.565,283.533,201.508,292a49.883,49.883,0,0,1-4.862-7.848c-1.706-3.471-3.566-7.488-3.481-7.506l3.447-4.772s4.928,5.046,6.9,6.935,5.057,4.72,5.057,4.72" transform="translate(-138.441 -194.857)" fill="#fff"/>
          <path id="パス_637" data-name="パス 637" d="M199.163,290.616a.916.916,0,0,1-.289-.046c-.282-.094-.525-.174-2.387-3.094a59.211,59.211,0,0,1-2.995-5.215c-.79-1.609-1.688-3.487-2.4-5.024-1.308-2.819-1.3-2.828-1.083-3.279a.882.882,0,0,1,.1-.158l3.43-4.749a.907.907,0,0,1,1.384-.1c.049.05,4.941,5.057,6.876,6.915s5.011,4.677,5.042,4.705a.907.907,0,0,1,.084,1.249l-7.057,8.472a.9.9,0,0,1-.282.226.922.922,0,0,1-.42.1m-7.321-16.12c.447,1.044,1.819,4,3.278,6.965a61.546,61.546,0,0,0,4.067,6.808l5.788-6.949c-1.013-.933-3.022-2.791-4.436-4.148-1.491-1.431-4.7-4.694-6.163-6.186Z" transform="translate(-136.102 -192.562)" fill="#1a1311"/>
          <path id="パス_638" data-name="パス 638" d="M257.706,541.112a2.565,2.565,0,1,1-2.629-2.5,2.565,2.565,0,0,1,2.629,2.5" transform="translate(-181.024 -386.028)" fill="#fff"/>
          <path id="パス_639" data-name="パス 639" d="M252.845,542.352a3.469,3.469,0,1,1,.09,0h-.09m0-5.129h-.043a1.658,1.658,0,0,0,.04,3.315h.043a1.658,1.658,0,0,0-.041-3.315" transform="translate(-178.729 -383.731)" fill="#1a1311"/>
          <path id="パス_640" data-name="パス 640" d="M264.9,595a2.565,2.565,0,1,1-2.628-2.5A2.565,2.565,0,0,1,264.9,595" transform="translate(-186.177 -424.649)" fill="#fff"/>
          <path id="パス_641" data-name="パス 641" d="M260.035,596.24a3.472,3.472,0,1,1,.09,0h-.09m0-5.129H260a1.658,1.658,0,0,0-1.1,2.859,1.687,1.687,0,0,0,1.184.456,1.658,1.658,0,0,0-.04-3.315" transform="translate(-183.882 -422.354)" fill="#1a1311"/>
          <path id="パス_642" data-name="パス 642" d="M169.254,434.286c5.358-.428,7.626,3.218,7.98,2.058l2.422-7.926c-7.037-5.194-8.607-6.87-13.554-7.523-2.964-.392-7.683,1.395-10.376,2.784.663,2.522,2.727,11.569,2.727,11.569s8.46-.775,10.8-.962" transform="translate(-111.611 -301.62)" fill="#fff"/>
          <path id="パス_643" data-name="パス 643" d="M174.678,435.191a3.148,3.148,0,0,1-1.5-.634,9.544,9.544,0,0,0-6.145-1.66c-2.308.184-10.705.953-10.79.961a.907.907,0,0,1-.967-.7c-.02-.09-2.067-9.061-2.719-11.54a.907.907,0,0,1,.461-1.037c2.475-1.277,7.56-3.321,10.911-2.877,4.488.593,6.347,1.987,11.315,5.712.8.6,1.673,1.254,2.658,1.981a.907.907,0,0,1,.329,1l-2.422,7.926a1.183,1.183,0,0,1-.711.8,1.168,1.168,0,0,1-.419.079m-6.85-4.14a11.446,11.446,0,0,1,6.3,1.959l.157.1,2.027-6.632c-.783-.581-1.5-1.115-2.153-1.608-4.823-3.616-6.447-4.834-10.465-5.365-2.354-.311-6.274.96-9.2,2.37.646,2.585,1.907,8.069,2.374,10.108,2.16-.2,8.126-.739,10.021-.891q.485-.039.94-.038m-.868.942h0Z" transform="translate(-109.316 -299.326)" fill="#1a1311"/>
          <path id="パス_644" data-name="パス 644" d="M283.745,402.92s4.966-2.555,8.813-2.14,7.814.507,6.916,2.959c-.362.99-4.655.5-4.655.5s7.236,1.246,6.046,3.109c-1.17,1.832-6.781.746-6.781.746s5.875,2.349,4.845,3.651c-1.653,2.088-7.046.369-6.666.232,0,0,5.584,2.524,4.505,3.7-1.527,1.668-4.507.476-6.732.127-2.065-.324-6.027,1.047-6.905,1.709s-11.97-3.024-11.97-3.024,6.685-8.779,12.582-11.571" transform="translate(-194.345 -287.209)" fill="#fff"/>
          <path id="パス_645" data-name="パス 645" d="M280.475,416.211a27.565,27.565,0,0,1-6.2-1.382c-2.866-.834-5.66-1.761-5.688-1.77a.907.907,0,0,1-.436-1.411c.278-.365,6.879-8.975,12.9-11.835.361-.184,5.307-2.658,9.311-2.228.4.044.807.083,1.207.123,2.914.288,5.431.536,6.33,1.967a2.286,2.286,0,0,1,.135,2.083,1.357,1.357,0,0,1-.524.651,3.669,3.669,0,0,1,1.962,1.582,1.6,1.6,0,0,1-.134,1.553,4.144,4.144,0,0,1-3.251,1.45,3.658,3.658,0,0,1,1.527,1.736,1.434,1.434,0,0,1-.265,1.286,3.956,3.956,0,0,1-2.816,1.338,2.834,2.834,0,0,1,.96,1.4,1.394,1.394,0,0,1-.346,1.25c-1.56,1.7-4.084,1.146-6.112.7-.509-.112-.989-.218-1.43-.288-1.779-.279-5.467.971-6.219,1.537a1.247,1.247,0,0,1-.908.265m-10.083-4.469c4.253,1.373,8.851,2.656,9.984,2.656h.061c1.2-.765,5.158-2.139,7.447-1.78.5.078,1.027.195,1.54.308,1.607.355,3.266.721,4.179.034a13,13,0,0,0-3.279-2.1c-.12-.036-.188-.059-.194-.061-.4-.139-1.08-.371-1.085-1.083a.951.951,0,0,1,.617-.88.908.908,0,0,1,.682.027c.219.1.457.21.707.33,1.213.339,3.733.7,4.712-.132a14.711,14.711,0,0,0-4.309-2.412.907.907,0,0,1,.509-1.733c2.88.555,5.251.309,5.788-.272-.484-.548-2.942-1.378-5.38-1.8a.907.907,0,0,1,.256-1.795,11.53,11.53,0,0,0,3.747-.057c.059-.233.006-.318-.014-.349-.425-.678-3.053-.937-4.971-1.126-.405-.04-.814-.08-1.222-.124-3.529-.38-8.255,2.021-8.3,2.045l-.027.013c-4.468,2.115-9.522,7.942-11.447,10.3m11.059-11.115h0Z" transform="translate(-192.05 -284.916)" fill="#1a1311"/>
          <path id="パス_646" data-name="パス 646" d="M127.686,523.18a.907.907,0,0,1-.11-1.807c8.67-1.071,27.168-5.344,39.338-11.112a.907.907,0,0,1,.777,1.639c-12.35,5.854-31.105,10.188-39.892,11.274a.938.938,0,0,1-.112.007" transform="translate(-90.864 -365.645)" fill="#1a1311"/>
          <path id="パス_647" data-name="パス 647" d="M145.079,426.443a.907.907,0,0,1-.054-1.813l4-.242-4.118-16.4a.907.907,0,1,1,1.76-.442l4.384,17.462a.907.907,0,0,1-.825,1.126l-5.093.308-.056,0" transform="translate(-103.33 -291.598)" fill="#1a1311"/>
          <path id="パス_648" data-name="パス 648" d="M329.012,438.694c-1.491-.794-4.207-.725-6.889-.594" transform="translate(-230.868 -313.932)" fill="#fff"/>
          <path id="パス_649" data-name="パス 649" d="M326.716,437.307a.9.9,0,0,1-.426-.107c-1.275-.679-3.87-.614-6.418-.489a.907.907,0,1,1-.089-1.812c2.918-.143,5.676-.2,7.36.7a.907.907,0,0,1-.427,1.708" transform="translate(-228.573 -311.638)" fill="#1a1311"/>
          <path id="パス_650" data-name="パス 650" d="M330.719,424.543c-2.069-.886-6.318-.768-7.814-.507" transform="translate(-231.429 -303.774)" fill="#fff"/>
          <path id="パス_651" data-name="パス 651" d="M328.423,423.167a.9.9,0,0,1-.357-.073c-1.773-.759-5.734-.721-7.3-.447a.907.907,0,0,1-.313-1.787c1.416-.248,5.971-.443,8.327.566a.907.907,0,0,1-.358,1.741" transform="translate(-229.133 -301.491)" fill="#1a1311"/>
          <path id="パス_652" data-name="パス 652" d="M335.518,412.367a37.767,37.767,0,0,0-7.03.145" transform="translate(-235.43 -295.455)" fill="#fff"/>
          <path id="パス_653" data-name="パス 653" d="M326.193,411.125a.907.907,0,0,1-.075-1.811,36.027,36.027,0,0,1,7.281-.131.907.907,0,1,1-.349,1.78,33.035,33.035,0,0,0-6.779.159c-.026,0-.052,0-.077,0" transform="translate(-233.136 -293.16)" fill="#1a1311"/>
          <path id="パス_654" data-name="パス 654" d="M222.084,436.284l-4.915-2.178-4.656,14.867,4.637,1.333" transform="translate(-152.311 -311.127)" fill="#fff"/>
          <path id="パス_655" data-name="パス 655" d="M214.857,448.918a.916.916,0,0,1-.251-.035l-4.637-1.333a.908.908,0,0,1-.615-1.143l4.656-14.867a.907.907,0,0,1,1.233-.558l4.915,2.178a.907.907,0,1,1-.735,1.659l-3.985-1.766-4.075,13.01,3.745,1.076a.907.907,0,0,1-.25,1.779" transform="translate(-150.015 -308.832)" fill="#1a1311"/>
          <path id="パス_656" data-name="パス 656" d="M253.881,443.783c-.757.4-25.305-7.824-26.067-7.613s-5.7,17.28-5.7,17.28,42.493,14.973,48.04,7.591" transform="translate(-159.188 -312.604)" fill="#fdda09"/>
          <path id="パス_657" data-name="パス 657" d="M260.776,461.706c-4.551,0-10.938-1.033-19.24-3.1-11.228-2.8-21.915-6.551-22.022-6.589a.907.907,0,0,1-.57-1.108c.012-.043,1.253-4.325,2.571-8.577,2.808-9.061,3.147-9.155,3.762-9.325.49-.136,1.021-.037,11.884,3.366,5.555,1.74,13.129,4.113,14.285,4.225a.907.907,0,0,1,.566,1.7c-.574.305-.747.4-15.393-4.192-4.3-1.348-9.115-2.856-10.663-3.234-.869,1.912-3.307,9.812-5.029,15.715,2.691.921,11.687,3.927,21.058,6.262,19.176,4.778,23.985,2.9,25.145,1.36a.907.907,0,0,1,1.45,1.09c-1.207,1.606-3.792,2.41-7.8,2.41m-9.615-21.015h0m0,0h0" transform="translate(-156.894 -310.313)" fill="#1a1311"/>
          <path id="パス_658" data-name="パス 658" d="M238.643,488.722a.895.895,0,1,1-.917-.872.9.9,0,0,1,.917.872" transform="translate(-169.754 -349.645)" fill="#1a1311"/>
          <path id="パス_659" data-name="パス 659" d="M251.7,493.208a.895.895,0,1,1-.917-.872.9.9,0,0,1,.917.872" transform="translate(-179.11 -352.86)" fill="#1a1311"/>
          <path id="パス_660" data-name="パス 660" d="M346.687,388.155c.377-.265,1.919-5.036,1.919-5.036" transform="translate(-248.473 -274.584)" fill="#ffaf00"/>
          <path id="パス_661" data-name="パス 661" d="M344.393,386.767a.907.907,0,0,1-.66-1.531,45.571,45.571,0,0,0,1.715-4.691.907.907,0,1,1,1.726.558c-1.635,5.059-2.011,5.323-2.26,5.5a.9.9,0,0,1-.522.165m-.523-1.649h0" transform="translate(-246.178 -272.289)" fill="#1a1311"/>
          <path id="パス_662" data-name="パス 662" d="M225.346,83.933c2.369.423,5.478,3.924,6.36,8.022.131.193-.613,15.146-.613,15.146L214.838,85.365s2.814-4.792,10.508-1.433" transform="translate(-153.976 -59.299)" fill="#1a1311"/>
          <path id="パス_663" data-name="パス 663" d="M228.8,105.73a.907.907,0,0,1-.726-.364L211.817,83.629a.906.906,0,0,1-.056-1,6.555,6.555,0,0,1,2.767-2.339c1.676-.783,4.558-1.329,8.793.494,2.907.6,6.083,4.551,6.977,8.7h-.007c.086.516.034,2-.231,7.876-.169,3.764-.356,7.5-.356,7.5a.908.908,0,0,1-.906.862M213.681,83.093l14.334,19.168c.25-5.185.536-11.625.5-12.423-.817-3.746-3.64-6.937-5.626-7.292a.914.914,0,0,1-.2-.061c-5.444-2.378-8.108-.373-9.007.608m14.979,7.092h0Z" transform="translate(-151.681 -57.02)" fill="#1a1311"/>
          <path id="パス_664" data-name="パス 664" d="M172.588,107.677c2.85,4.271,6.5,13.292,8.636,20.06,5.371,16.994,2.424,22.117-8.325,26-12.857,4.643-18.9,1.371-26.813-7.9-3.923-4.6-9.175-13.567-10-20.438s6.752-21.056,16.928-23.6c10.191-2.551,14.424-1.833,19.574,5.884" transform="translate(-97.49 -72.007)" fill="#fff"/>
          <path id="パス_665" data-name="パス 665" d="M160.534,154.417c-7.064,0-11.9-3.8-17.434-10.3-4.344-5.095-9.4-14.158-10.21-20.918-.886-7.382,6.977-21.93,17.609-24.591,4.857-1.216,8.78-1.834,12.14-.9,3.121.865,5.636,3.008,8.408,7.164,2.912,4.364,6.6,13.51,8.746,20.291,2.762,8.739,3.339,14.445,1.871,18.5-1.386,3.826-4.6,6.406-10.753,8.627a30.834,30.834,0,0,1-10.378,2.127M159.1,99.077a34.892,34.892,0,0,0-8.162,1.294c-4.322,1.082-8.714,4.652-12.049,9.794-2.941,4.536-4.59,9.568-4.2,12.821.574,4.782,4.2,13.4,9.79,19.957,4.357,5.11,7.588,7.689,11.152,8.9,3.977,1.353,8.5.964,14.662-1.262,9.893-3.573,13.158-7.819,7.768-24.873-2.1-6.658-5.708-15.607-8.526-19.83h0c-2.511-3.762-4.719-5.683-7.384-6.422a11.3,11.3,0,0,0-3.053-.38" transform="translate(-95.194 -69.706)" fill="#1a1311"/>
          <path id="パス_666" data-name="パス 666" d="M118.317,127.539s-16.065-15.268-7.127-31.589c5.943-10.853,27.982-16.48,33.925-6.409.535.907-9.959-5.814-17.642,10.481,0,0-1.578,6.572-5.856,7.963.389,2.757,1.672,8.2,1.812,9.516s2.913,8.89,2.913,8.89-4.577-3.092-5.96-2.065-.427,1.233-.427,1.233" transform="translate(-77.751 -60.403)" fill="#1a1311"/>
          <path id="パス_667" data-name="パス 667" d="M116.058,126.151a.9.9,0,0,1-.625-.25,38.4,38.4,0,0,1-7.1-9.929c-3.93-7.941-4-15.809-.195-22.753,1.84-3.36,5.285-6.451,9.7-8.7a30.959,30.959,0,0,1,13.251-3.438c5.872-.1,10.325,1.932,12.552,5.706a.955.955,0,0,1-.049,1.088c-.412.534-.979.373-1.58.2A10.825,10.825,0,0,0,135.541,88c-3.687,1.184-6.872,4.561-9.469,10.037-.215.833-1.78,6.39-5.708,8.231.235,1.42.623,3.295.972,4.978.372,1.8.666,3.216.735,3.867.093.878,1.806,5.787,2.863,8.674a.907.907,0,0,1-1.359,1.063c-1.822-1.229-4.366-2.407-4.915-2.087q-.083.062-.146.113a.907.907,0,0,1-1.011,1.276,1.3,1.3,0,0,1-1.01-.962c-.2-.929.736-1.624,1.088-1.886,1.121-.831,3.113-.147,4.788.717a57.224,57.224,0,0,1-2.1-6.717c-.06-.562-.375-2.082-.708-3.691-.416-2.005-.887-4.279-1.1-5.794a.907.907,0,0,1,.618-.989c3.739-1.216,5.24-7.252,5.255-7.313a.92.92,0,0,1,.061-.174c2.827-6,6.391-9.72,10.593-11.07a11.858,11.858,0,0,1,5.633-.383c-2.128-2.011-5.4-3.062-9.506-2.995-8.63.139-18.025,5.057-21.388,11.2-3.548,6.479-3.479,13.554.206,21.029a37.279,37.279,0,0,0,6.751,9.467.907.907,0,0,1-.626,1.564" transform="translate(-75.492 -58.107)" fill="#1a1311"/>
          <path id="パス_668" data-name="パス 668" d="M249.069,243.459s-2.171-.806-5.677.749a13.538,13.538,0,0,0-4.66,3.639" transform="translate(-171.101 -174.339)" fill="#fff"/>
          <path id="パス_669" data-name="パス 669" d="M236.437,246.468a.907.907,0,0,1-.717-1.461,14.382,14.382,0,0,1,5.01-3.914c3.8-1.685,6.257-.808,6.36-.77a.907.907,0,0,1-.623,1.7c-.1-.032-1.945-.631-5,.724a12.733,12.733,0,0,0-4.311,3.366.906.906,0,0,1-.717.35" transform="translate(-168.807 -172.054)" fill="#1a1311"/>
          <path id="パス_670" data-name="パス 670" d="M141.375,223.442c-3.579.18-6.08,3.314-4.616,6.17s6.69,4.076,9.68,1.973" transform="translate(-97.711 -160.143)" fill="#fff"/>
          <path id="パス_671" data-name="パス 671" d="M140.475,231.257a9.219,9.219,0,0,1-2.207-.272,6.874,6.874,0,0,1-4.6-3.254,4.61,4.61,0,0,1,.122-4.481,6.409,6.409,0,0,1,5.256-3.009.907.907,0,1,1,.092,1.812,4.585,4.585,0,0,0-3.776,2.1,2.79,2.79,0,0,0-.078,2.747,5.165,5.165,0,0,0,3.423,2.321,6.133,6.133,0,0,0,4.927-.676.907.907,0,1,1,1.043,1.484,7.3,7.3,0,0,1-4.2,1.225" transform="translate(-95.425 -157.848)" fill="#1a1311"/>
          <path id="パス_672" data-name="パス 672" d="M256.929,184.537c5.7,2.055,7.689,2.148,8.358,3.731s-3.275,4.9-3.275,4.9" transform="translate(-184.143 -132.259)" fill="#fff"/>
          <path id="パス_673" data-name="パス 673" d="M259.716,191.78a.907.907,0,0,1-.585-1.6c1.885-1.588,3.2-3.407,3.024-3.854-.3-.714-1.146-1.015-3.768-1.86-1.078-.347-2.419-.779-4.062-1.371a.907.907,0,1,1,.615-1.707c1.614.582,2.939,1.009,4,1.351,2.825.91,4.243,1.367,4.883,2.88.431,1.018-.073,2.325-1.541,4a20.751,20.751,0,0,1-1.986,1.953.905.905,0,0,1-.584.213" transform="translate(-181.847 -129.963)" fill="#1a1311"/>
          <path id="パス_674" data-name="パス 674" d="M158.548,239.439a2.95,2.95,0,0,0-2.657-1.088" transform="translate(-111.728 -170.828)" fill="#fff"/>
          <path id="パス_675" data-name="パス 675" d="M156.255,238.052a.906.906,0,0,1-.727-.363,2.066,2.066,0,0,0-1.929-.725.907.907,0,1,1-.005-1.814,3.887,3.887,0,0,1,3.386,1.452.907.907,0,0,1-.726,1.451" transform="translate(-109.433 -168.533)" fill="#1a1311"/>
          <path id="パス_676" data-name="パス 676" d="M242.518,157.409c.75,2.362,4.232,3.365,7.775,2.239s5.808-3.954,5.058-6.316-4.232-3.365-7.776-2.239-5.808,3.954-5.057,6.316" transform="translate(-173.711 -107.959)" fill="#fff"/>
          <path id="パス_677" data-name="パス 677" d="M246.008,159.252c-2.639,0-4.841-1.147-5.458-3.09-.844-2.657,1.59-5.809,5.426-7.028s7.643-.049,8.487,2.608-1.59,5.809-5.426,7.028a10.048,10.048,0,0,1-3.03.482m-4.377-3.434c.655,2.061,3.824,2.9,7.064,1.871s5.343-3.543,4.688-5.6-3.823-2.9-7.063-1.87-5.343,3.543-4.688,5.6" transform="translate(-172.285 -106.539)" fill="#1a1311"/>
          <path id="パス_678" data-name="パス 678" d="M189.5,177.578c.75,2.362,4.232,3.365,7.775,2.239s5.808-3.954,5.057-6.316-4.232-3.365-7.775-2.239-5.808,3.954-5.057,6.316" transform="translate(-135.711 -122.414)" fill="#fff"/>
          <path id="パス_679" data-name="パス 679" d="M192.944,179.41a7.967,7.967,0,0,1-2.2-.3,4.1,4.1,0,0,1-2.207-6.949,9.84,9.84,0,0,1,9.673-3.073,4.1,4.1,0,0,1,2.207,6.949,9.225,9.225,0,0,1-4.41,2.88,10.158,10.158,0,0,1-3.061.49m3.06-9.482a9.032,9.032,0,0,0-2.717.437,8.091,8.091,0,0,0-3.868,2.508,2.983,2.983,0,0,0,1.636,5.151,8.715,8.715,0,0,0,8.474-2.692,2.983,2.983,0,0,0-1.636-5.15,6.84,6.84,0,0,0-1.89-.253" transform="translate(-134.272 -120.977)" fill="#1a1311"/>
          <path id="パス_680" data-name="パス 680" d="M232.688,174.743a.567.567,0,0,1-.222-1.089l2.481-1.054a.567.567,0,0,1,.443,1.044l-2.481,1.054a.566.566,0,0,1-.221.045" transform="translate(-166.362 -123.672)" fill="#1a1311"/>
          <path id="パス_681" data-name="パス 681" d="M160.521,196.686a.567.567,0,0,1-.191-1.1l7.9-2.826a.567.567,0,1,1,.382,1.068l-7.9,2.826a.564.564,0,0,1-.191.033" transform="translate(-114.64 -138.128)" fill="#1a1311"/>
          <path id="パス_682" data-name="パス 682" d="M223.215,257.488a.907.907,0,0,1-.836-.554c-.621-1.467-1.07-4.457-.256-6.023a.907.907,0,1,1,1.61.836c-.448.863-.2,3.255.317,4.48a.908.908,0,0,1-.835,1.261" transform="translate(-158.882 -179.479)" fill="#1a1311"/>
          <path id="パス_683" data-name="パス 683" d="M121.731,190.417a.68.68,0,0,1-.236-1.318c1.418-.525,8.517-3.15,8.964-3.263a.68.68,0,0,1,.338,1.318c-.4.112-5.495,1.987-8.83,3.221a.678.678,0,0,1-.236.043" transform="translate(-86.758 -133.175)" fill="#8e8e8f"/>
          <path id="パス_684" data-name="パス 684" d="M126.823,202.344a.68.68,0,0,1-.24-1.317l8.525-3.213a.68.68,0,1,1,.48,1.273l-8.525,3.213a.681.681,0,0,1-.24.044" transform="translate(-90.408 -141.744)" fill="#8e8e8f"/>
          <path id="パス_685" data-name="パス 685" d="M135.887,214.3a.68.68,0,0,1-.256-1.311l6.944-2.815a.68.68,0,0,1,.511,1.261l-6.945,2.815a.684.684,0,0,1-.255.05" transform="translate(-96.903 -150.601)" fill="#8e8e8f"/>
          <path id="パス_686" data-name="パス 686" d="M215.657,180.882a1.58,1.58,0,1,0,1.435-1.712,1.579,1.579,0,0,0-1.435,1.712" transform="translate(-154.559 -128.408)" fill="#1a1311"/>
          <path id="パス_687" data-name="パス 687" d="M262.206,162.486a1.58,1.58,0,1,0,1.435-1.712,1.579,1.579,0,0,0-1.435,1.712" transform="translate(-187.921 -115.223)" fill="#1a1311"/>
          <path id="パス_688" data-name="パス 688" d="M125.305,117.543a.68.68,0,0,1-.138-1.346c2.855-.594,5.486-1.7,8.779-9.195.333-.758.644-1.5.944-2.216,2.62-6.245,4.69-11.178,14.737-9.573a.68.68,0,1,1-.214,1.344c-8.994-1.438-10.6,2.4-13.267,8.755-.3.722-.616,1.468-.953,2.236-3.23,7.357-5.917,9.183-9.748,9.98a.691.691,0,0,1-.139.014" transform="translate(-89.32 -68.021)" fill="#8e8e8f"/>
          <path id="パス_689" data-name="パス 689" d="M233.321,98.711a.681.681,0,0,1-.665-.542c-.789-3.8-3.028-5.184-4.767-5.679-2.467-.7-5.184.05-5.971.878a.68.68,0,0,1-.986-.938c1.205-1.268,4.44-2.072,7.33-1.249,2.1.6,4.8,2.248,5.726,6.711a.68.68,0,0,1-.527.8.692.692,0,0,1-.139.014" transform="translate(-158.209 -65.111)" fill="#8e8e8f"/>
        </g>
      </g>
      <g id="グループ_58" data-name="グループ 58" transform="translate(1032.488 1108.395)">
        <g id="グループ_57" data-name="グループ 57" transform="translate(0)" clip-path="url(#clip-path-2)">
          <path id="パス_690" data-name="パス 690" d="M143.283,29.745c-.849-15.1-22.742-27.2-49.628-27.2-17,0-32,4.834-40.947,12.2-.168,0-.334,0-.5,0-27.424,0-49.656,12.583-49.656,28.1,0,5.722,3.024,11.044,8.213,15.484.216,15.051,21.332,27.28,47.728,27.849,8.166,3.874,18.566,6.288,29.948,6.534l2.705,22,8.618-22.481c13.47-1.459,25.007-6,32.235-12.274,19.693-3.731,33.886-14.256,33.886-26.657,0-9.873-9-18.555-22.6-23.568" transform="translate(-1.285 -1.285)" fill="#fff"/>
          <path id="パス_691" data-name="パス 691" d="M91.158,104.643a1.237,1.237,0,0,1-.154-.009,1.267,1.267,0,0,1-1.1-1.1L86.031,92.673a75.106,75.106,0,0,1-29.122-6.51c-26.772-.657-47.946-13.1-48.678-28.516C2.844,52.882,0,47.334,0,41.571,0,33.588,5.393,26.139,15.186,20.6c9.566-5.414,22.256-8.4,35.735-8.4h.057C60.51,4.555,75.936,0,92.37,0c27.159,0,49.214,12.038,50.824,27.558,14.212,5.443,22.669,14.55,22.669,24.47,0,12.664-13.882,23.824-34.582,27.836-7.4,6.3-18.97,10.742-31.9,12.266l-7.045,11.7a1.265,1.265,0,0,1-1.181.813M50.922,14.731c-26.683,0-48.391,12.04-48.391,26.84,0,5.151,2.687,10.173,7.771,14.523a1.266,1.266,0,0,1,.443.943c.1,6.808,4.863,13.3,13.417,18.279,8.753,5.1,20.5,8.052,33.073,8.323a1.268,1.268,0,0,1,.515.122c8.342,3.958,18.52,6.176,29.433,6.413a1.266,1.266,0,0,1,1.228,1.11l3.231,8.972,5.655-9.75a1.264,1.264,0,0,1,1.045-.8c12.891-1.4,24.387-5.76,31.542-11.971a1.265,1.265,0,0,1,.594-.288c19.652-3.723,32.856-13.936,32.856-25.414,0-8.991-8.139-17.358-21.773-22.381a1.266,1.266,0,0,1-.826-1.116c-.385-6.863-5.5-13.335-14.4-18.222C117.208,5.293,105.145,2.53,92.37,2.53,76.3,2.53,61.29,6.985,52.228,14.446a1.266,1.266,0,0,1-.8.288h-.007Z" fill="#1a1311"/>
        </g>
      </g>
      <text id="マンネリ化" transform="translate(1110 1166)" fill="#1a1a17" font-size="21" font-family="SourceHanSans-Bold, Source Han Sans" font-weight="700" letter-spacing="0.03em"><tspan x="-53.55" y="0">マンネリ</tspan><tspan y="0">化</tspan></text>
      <g id="パス_2924" data-name="パス 2924" transform="translate(945 1090)" fill="none">
        <path d="M0,0H355V274H0Z" stroke="none"/>
        <path d="M 8 8 L 8 266 L 347 266 L 347 8 L 8 8 M 0 0 L 355 0 L 355 274 L 0 274 L 0 0 Z" stroke="none" fill="#1a1a17"/>
      </g>
    </g>
  </g>
</svg>
