<svg xmlns="http://www.w3.org/2000/svg" xmlns:xlink="http://www.w3.org/1999/xlink" width="355" height="274" viewBox="0 0 355 274">
  <defs>
    <clipPath id="clip-path">
      <rect id="長方形_113" data-name="長方形 113" width="96.316" height="108.659" fill="#1a1a17"/>
    </clipPath>
    <clipPath id="clip-path-2">
      <rect id="長方形_114" data-name="長方形 114" width="98.873" height="92.246" fill="none"/>
    </clipPath>
    <clipPath id="clip-path-3">
      <rect id="長方形_115" data-name="長方形 115" width="263.88" height="205.081" transform="translate(0 0)" fill="none"/>
    </clipPath>
  </defs>
  <g id="img_monotonous" transform="translate(-543 -1090)">
    <g id="長方形_6" data-name="長方形 6" transform="translate(543 1090)" fill="#fff" stroke="#1a1a17" stroke-linejoin="bevel" stroke-width="8">
      <rect width="354" height="274" stroke="none"/>
      <rect x="4" y="4" width="346" height="266" fill="none"/>
    </g>
    <g id="グループ_50" data-name="グループ 50" transform="translate(570.59 1115.407)">
      <g id="グループ_49" data-name="グループ 49" transform="translate(0)" clip-path="url(#clip-path)">
        <path id="パス_434" data-name="パス 434" d="M95.816,49.784c-.652.8-1.209,1.587-1.871,2.26-1.45,1.482-2.911,2.974-4.467,4.34a8.3,8.3,0,0,1-2.543,1.387,2.135,2.135,0,0,1-2.9-1.1c-1.1-2.3-1.745-6.894,1.461-9.291,1.019-.767,1.944-1.65,2.964-2.417,4.666-3.51,6.117-8.176,4.771-13.715a67.819,67.819,0,0,0-2.669-7.987,32.36,32.36,0,0,1-7.451,8.628C82.7,20.683,80.588,10.1,75.249,0A51.409,51.409,0,0,1,62.27,25.034c-3.006-4.057-5.77-8.019-4.319-13.41-4.2,6-7.893,12.16-5.948,20.189-1.282-1.093-2.449-2.091-3.615-3.09-1.576-1.356-3.174-2.7-4.729-4.078-.483-.431-.8-.5-1.335-.042Q21.529,42.5.7,60.367c-.221.189-.473.336-.7.515.042.084.084.168.137.252h14.2v47.525H71.56v-.053c0-11.582.021-23.174-.021-34.755,0-.967.294-1.209,1.219-1.3,5.56-.525,10.909-1.8,15.722-4.792,6.337-3.941,9.038-10.489,7.336-17.971m-54.7,40.872h-9.7V80.872h9.7Zm.021-13.473H31.319V70.688c0-.872-.032-1.745.032-2.617.011-.242.315-.652.494-.662,3.079-.042,6.159-.021,9.291-.021Zm13.684,13.5H45.16a3.292,3.292,0,0,1-.126-.589c-.011-2.817-.021-5.633.011-8.45.011-.273.368-.767.568-.778,3.037-.042,6.085-.032,9.206-.032Zm.021-13.5H45.023V75.711c0-2.491.011-4.971-.011-7.451,0-.536.063-.9.746-.893,2.89.021,5.78.011,8.66.021a1.938,1.938,0,0,1,.42.095Zm20.6-25.234c-3.762-3.237-7.514-6.474-11.3-9.69a1.673,1.673,0,0,1-.673-1.808,14.081,14.081,0,0,1,3.269-6.516c-.252,2.091.62,3.8,1.629,5.654a32,32,0,0,0,4.719-9.942c1.745,7.535,3.489,15.029,3.374,23.058-.473-.347-.757-.536-1.019-.757" fill="#1a1a17"/>
      </g>
    </g>
    <g id="グループ_52" data-name="グループ 52" transform="translate(780.409 1128.122)">
      <g id="グループ_51" data-name="グループ 51" transform="translate(0)" clip-path="url(#clip-path-2)">
        <path id="パス_435" data-name="パス 435" d="M83.8,67.977a1.2,1.2,0,0,0-1.52.468c-1.61,1.969-3.282,3.911-5.08,6.042h7.463c.036.081.063.162.09.243Q78.43,81.353,72.1,87.966c-.063-.036-.117-.081-.18-.117,1.5-3.327,2.994-6.654,4.55-10.089-1.843.117-3.552.225-5.449.342,1.654-3.938,3.273-7.769,4.945-11.752-1.421.162-2.716.306-4.01.459-1.088.126-2.167.252-3.246.423-.522.081-.638-.2-.719-.611Q66.611,59.4,65.217,52.179q-2.266-11.815-4.55-23.639c-.126-.638-.243-1.286-.378-2.032,4.046-.782,8.021-1.556,12.229-2.374C58.329,16.032,44.329,8.039,30.266,0q-1.538,1.915-3.057,3.83C25.923,5.449,24.628,7.059,23.37,8.7a1.321,1.321,0,0,0-.315.908c.513,2.733,1.079,5.449,1.636,8.173a1.893,1.893,0,0,0,.144.324c1.277-1.6,2.518-3.147,3.92-4.909.719,5.215,1.4,10.161,2.086,15.106a2.023,2.023,0,0,1-.216.072c-1.358-2.626-2.716-5.251-4.136-7.994-.863,1.241-1.672,2.374-2.581,3.669-1.744-3.192-3.444-6.276-5.206-9.5C12.463,22.416,6.294,30.185,0,38.116c4.181-.8,8.173-1.565,12.247-2.347,2.41,12.481,4.793,24.853,7.22,37.415-5.305.629-10.565,1.241-15.87,1.87V92.246q34.69,0,69.4-.009H98.873V72.554q-7.54-2.279-15.07-4.577m-56.3-29.691c2.778-.54,5.467-1.061,8.281-1.61.54,2.76,1.061,5.467,1.61,8.29-2.778.54-5.485,1.061-8.281,1.6-.54-2.751-1.061-5.44-1.61-8.281m3.786,19.584c-.531-2.769-1.061-5.467-1.61-8.281,2.787-.54,5.494-1.061,8.29-1.6.531,2.76,1.052,5.44,1.61,8.281-2.778.54-5.467,1.061-8.29,1.6m7.742-21.8c2.76-.54,5.467-1.061,8.281-1.61.54,2.778,1.061,5.485,1.6,8.29-2.769.539-5.458,1.052-8.272,1.6-.54-2.751-1.061-5.458-1.61-8.281M42.819,55.65c-.54-2.778-1.061-5.485-1.61-8.29,2.778-.531,5.476-1.052,8.281-1.592.549,2.787,1.07,5.494,1.61,8.281-2.778.54-5.467,1.061-8.281,1.6"/>
        <path id="パス_436" data-name="パス 436" d="M82.123,67.352a2.559,2.559,0,0,1,.9-2.5c1.6-1.708,1.552-1.974-.582-2.877-2.2-.93-2.627-2.721-.911-4.383,1.441-1.4,1.549-2.089-.6-2.914-2.214-.853-2.549-2.673-.905-4.373.14-.145.279-.29.413-.44,1.023-1.135.894-1.659-.553-2.244-.053-.021-.11-.033-.163-.054-2.614-1.039-2.955-2.754-.973-4.79.332-.341.517-.833.869-1.144a6.035,6.035,0,0,1,1.236-.662,2.047,2.047,0,0,1-.443,2.1c-.346.42-.754.789-1.1,1.206-.638.758-.506,1.324.4,1.755.413.2.853.336,1.264.538a2.34,2.34,0,0,1,.835,3.893c-.333.394-.721.741-1.048,1.139a.932.932,0,0,0,.312,1.614c.454.24.954.392,1.417.619A2.348,2.348,0,0,1,83.27,57.8c-.247.279-.531.526-.78.8-.844.935-.724,1.531.409,2.035.366.163.75.288,1.11.463a2.373,2.373,0,0,1,.828,3.917c-.5.612-.911,1.313-1.468,1.867-.277.275-.792.311-1.245.471" transform="translate(-7.812 -4.131)"/>
        <path id="パス_437" data-name="パス 437" d="M5.749,44.471a2.345,2.345,0,0,1-.949,2.44c-1.441,1.411-1.408,1.574.534,2.18,1.552.484,2.247,1.189,2,2.343a6.088,6.088,0,0,1-1.061,1.8c-.289.442-.617.858-.927,1.286.476.275.941.572,1.431.819.38.192.82.274,1.185.488A1.842,1.842,0,0,1,8.63,58.5a9.262,9.262,0,0,1-1.18,1.36c-.863.9-.78,1.235.435,1.63a12.543,12.543,0,0,1,1.22.411,1.981,1.981,0,0,1,.8,3.3,18.587,18.587,0,0,1-1.6,1.879c-.254.242-.74.241-1.152.36a1.742,1.742,0,0,1,.436-1.853c.333-.394.72-.742,1.07-1.121.631-.684.544-1.039-.347-1.369-.456-.17-.935-.279-1.386-.461A1.987,1.987,0,0,1,6.044,59.3c.358-.446.816-.809,1.188-1.244.475-.556.39-.889-.295-1.172-.476-.2-.984-.31-1.464-.5A2.023,2.023,0,0,1,4.606,52.9c.336-.39.732-.728,1.084-1.107.481-.519.372-.933-.277-1.181C4.9,50.421,4.369,50.3,3.864,50.1A2,2,0,0,1,3,46.708a17.1,17.1,0,0,1,1.5-1.741,3.969,3.969,0,0,1,1.243-.5" transform="translate(-0.241 -4.484)"/>
      </g>
    </g>
    <g id="グループ_54" data-name="グループ 54" transform="translate(591.71 1158.503)">
      <g id="グループ_53" data-name="グループ 53" transform="translate(0 0)" clip-path="url(#clip-path-3)">
        <path id="パス_438" data-name="パス 438" d="M61.249,405.971c-1.266-.394-10.386-8.825-13.9-12.36-1.289-1.3-2.309-5.353-4.976-7.656-2.4-2.073-6.767-2.583-10.259-3.075-3.893-.548-7.158-3.229-7.315.563-.175,4.221,11.294,5.029,9.438,6.533-1.3,1.056-24.3.909-26.655,4.562s3.109,2.411,3.109,2.411-5.982.008-5.878,3.081,6.1,1.484,6.1,1.484-4.755.985-3.955,3.233,17.477-.026,17.477-.026-13.635,2.9-12.025,5.841c.854,1.56,12.019.07,20.034.453,5.611.268,11.514-2.832,11.514-2.832l8.454,6.928Z" transform="translate(-3.837 -303.89)" fill="#fff"/>
        <path id="パス_439" data-name="パス 439" d="M48.575,412.255a.975.975,0,0,1-.62-.222L39.988,405.5c-1.672.79-6.6,2.881-11.427,2.653-3.148-.151-6.859-.005-10.134.122-7.487.292-9.969.273-10.712-1.084a1.986,1.986,0,0,1-.058-1.822c.286-.622.97-1.5,3.387-2.584-6.716.367-8.42-.356-8.845-1.551a2.35,2.35,0,0,1,.165-1.993,2.771,2.771,0,0,1,.21-.32,3.769,3.769,0,0,1-1.516-.628A2.6,2.6,0,0,1,0,396.226a3.015,3.015,0,0,1,.87-2.24A4.708,4.708,0,0,1,2.337,393a3.013,3.013,0,0,1,.59-2.831c1.677-2.6,9.725-3.384,20.071-4.141,1.87-.137,3.9-.285,5.282-.44-.322-.112-.653-.222-.949-.321-3.155-1.051-7.476-2.491-7.343-5.7a3.015,3.015,0,0,1,1.082-2.529c1.1-.769,2.562-.3,4.256.241a19.02,19.02,0,0,0,3.092.8l.565.079c3.433.478,7.706,1.074,10.2,3.224a16.7,16.7,0,0,1,3.7,5.419,10.708,10.708,0,0,0,1.333,2.288c3.794,3.822,12.27,11.572,13.512,12.121a.979.979,0,0,1,.393,1.609l-8.837,9.142a.977.977,0,0,1-.7.3m-8.454-8.886a.979.979,0,0,1,.621.222l7.756,6.356,7.383-7.638c-3.3-2.439-11.076-9.847-13.06-11.845a11.228,11.228,0,0,1-1.7-2.8,14.955,14.955,0,0,0-3.223-4.806c-2.054-1.773-6.01-2.324-9.188-2.767l-.568-.079a20.573,20.573,0,0,1-3.416-.87c-.889-.284-2.232-.714-2.537-.5-.078.055-.219.328-.247,1-.072,1.74,3.585,2.959,6.005,3.765,2.211.737,3.429,1.143,3.617,2.176a1.351,1.351,0,0,1-.546,1.312c-.624.506-2.05.657-7.88,1.083-3.6.263-8.086.591-11.766,1.143-5.439.815-6.569,1.745-6.8,2.106a2.257,2.257,0,0,0-.433.967,1.342,1.342,0,0,0,.552.126,14.134,14.134,0,0,1,2.166-.192h0a.979.979,0,0,1,.217,1.934,9.045,9.045,0,0,1-2.256.228,5.045,5.045,0,0,0-2.539,1.053,1.042,1.042,0,0,0-.321.812.647.647,0,0,0,.268.568c.742.553,2.729.412,4.15.109.224-.058.4-.1.5-.118a.979.979,0,0,1,.447,1.906c-.07.018-.229.059-.453.107-1.071.282-2.453.853-2.8,1.474a.386.386,0,0,0-.054.275c.3.171,1.831.74,8.647.242,3.982-.291,7.766-.8,7.8-.809a.979.979,0,0,1,.336,1.928c-.029.006-2.963.634-5.882,1.579-4.622,1.5-5.368,2.535-5.481,2.766,1.026.443,5.562.266,8.91.135,3.314-.13,7.071-.277,10.3-.122,5.279.258,10.955-2.69,11.012-2.72a.977.977,0,0,1,.455-.112M57.7,401.2l.011,0-.011,0" transform="translate(0 -300.053)" fill="#1a1311"/>
        <path id="パス_440" data-name="パス 440" d="M106.15,444.612c-1.545,2.379-.474,9.736-.182,11.742" transform="translate(-83.916 -354.21)" fill="#fff"/>
        <path id="パス_441" data-name="パス 441" d="M102.138,453.5a.979.979,0,0,1-.968-.838c-.953-6.546-.845-10.607.33-12.417a.979.979,0,1,1,1.642,1.067c-.5.773-1.174,3.239-.035,11.068a.98.98,0,0,1-.97,1.12" transform="translate(-80.089 -350.375)" fill="#1a1311"/>
        <path id="パス_442" data-name="パス 442" d="M34.8,472.322s12.2-2.091,13.5-1.991" transform="translate(-27.727 -374.697)" fill="#fff"/>
        <path id="パス_443" data-name="パス 443" d="M30.964,469.473a.979.979,0,0,1-.164-1.944c2.057-.353,12.392-2.1,13.741-2a.979.979,0,1,1-.149,1.953c-.81-.054-7.437.982-13.261,1.98a.963.963,0,0,1-.167.014" transform="translate(-23.889 -370.868)" fill="#1a1311"/>
        <path id="パス_444" data-name="パス 444" d="M36.189,451.724c1.507-.114,10.87-1.477,13.474-1.278" transform="translate(-28.831 -358.843)" fill="#fff"/>
        <path id="パス_445" data-name="パス 445" d="M32.351,448.872a.979.979,0,0,1-.073-1.956c.387-.029,1.382-.153,2.641-.31,3.579-.446,8.988-1.119,10.981-.967a.979.979,0,0,1-.149,1.953c-1.8-.137-7.3.548-10.59.958-1.336.166-2.3.286-2.735.319q-.038,0-.075,0" transform="translate(-24.994 -355.011)" fill="#1a1311"/>
        <path id="パス_446" data-name="パス 446" d="M149.128,424.618s-.754,4.208.554,6.7" transform="translate(-118.634 -338.282)" fill="#fff"/>
        <path id="パス_447" data-name="パス 447" d="M145.849,428.456a.98.98,0,0,1-.868-.524c-1.448-2.755-.684-7.139-.651-7.325a.979.979,0,0,1,1.928.345c-.192,1.081-.483,4.278.457,6.069a.98.98,0,0,1-.866,1.435" transform="translate(-114.8 -334.444)" fill="#1a1311"/>
        <path id="パス_448" data-name="パス 448" d="M218.193,474.876l-6.458-5.882L199.89,482.837l5.9,4.573" transform="translate(-159.247 -373.635)" fill="#fff"/>
        <path id="パス_449" data-name="パス 449" d="M201.954,484.556a.975.975,0,0,1-.6-.205l-5.9-4.573a.979.979,0,0,1-.144-1.411l11.844-13.843a.979.979,0,0,1,.683-.341.99.99,0,0,1,.72.253l6.458,5.882a.979.979,0,0,1-1.319,1.448l-5.711-5.2-10.519,12.294,5.088,3.944a.979.979,0,0,1-.6,1.753" transform="translate(-155.411 -369.8)" fill="#1a1311"/>
        <path id="パス_450" data-name="パス 450" d="M240.476,566.8a1.384,1.384,0,1,1-1.668-1.026,1.384,1.384,0,0,1,1.668,1.026" transform="translate(-189.404 -450.706)" fill="#1a1311"/>
        <path id="パス_451" data-name="パス 451" d="M259.312,587.508a1.384,1.384,0,1,1-1.668-1.026,1.385,1.385,0,0,1,1.668,1.026" transform="translate(-204.411 -467.204)" fill="#1a1311"/>
        <path id="パス_452" data-name="パス 452" d="M337.881,389.338c-.724-4.032-3.361-13.949-7.185-14.5-1.314-.188-8.761-2.236-8.859-2.26-1.657-.407-38.061-5.525-41.581-5.8-7.329-.573-17.8-.748-22.141,6.413-.078.128-2.319,4.438-3.282,6.593l.017.125c-5.309,9.855-14.127,26-14.724,25.678-2.608-1.428-19.609-15.83-19.609-15.83l-15.328,18.7s30.439,26.959,40.78,29.279c7.365,1.652,11.74-3.1,13.954-6.8.172,7.548.276,14.056.252,15.451-.111,6.375.8,45.48.257,46.572s14.294,2.618,30.376,3.089a165.893,165.893,0,0,0,39.366-3.839s-2.243-39.956-2.432-52.624,11.121-44.78,10.138-50.251" transform="translate(-163.468 -292.008)" fill="#fdda09"/>
        <path id="パス_453" data-name="パス 453" d="M290.98,493.282q-2,0-4.037-.058c-7.326-.214-14.906-.669-20.8-1.246-9.642-.945-10.071-1.662-10.384-2.185a1.115,1.115,0,0,1-.093-.961c.269-1.546.037-17.346-.133-28.907-.118-8.019-.22-14.944-.178-17.359.021-1.216-.057-6.317-.186-12.433-3.491,4.227-8.109,5.908-13.255,4.754-4.433-.995-12.73-6.276-24.66-15.7-8.822-6.966-16.478-13.738-16.555-13.805a.979.979,0,0,1-.108-1.354l15.328-18.7a.979.979,0,0,1,1.39-.126c4.362,3.7,15.562,13.067,18.827,15.323.956-1.36,4.033-6.372,13.882-24.649a.978.978,0,0,1,.08-.3c.972-2.175,3.237-6.534,3.338-6.7,4.454-7.349,14.661-7.538,23.055-6.882,3.209.251,39.876,5.369,41.738,5.826l.315.085c6.388,1.739,8.035,2.1,8.449,2.156,2.064.295,3.872,2.435,5.524,6.544a48.172,48.172,0,0,1,2.485,8.747c.46,2.564-1.238,9.274-4.046,20.01-2.9,11.068-6.178,23.612-6.076,30.4.186,12.5,2.408,52.184,2.43,52.583a.979.979,0,0,1-.746,1.006,169.393,169.393,0,0,1-35.59,3.925m-33.35-4.534c2.408.792,14.083,2.07,29.371,2.518a167.6,167.6,0,0,0,38.314-3.631c-.321-5.789-2.215-40.305-2.387-51.839-.105-7.055,3.213-19.737,6.14-30.925,2.174-8.308,4.421-16.9,4.014-19.168-.951-5.294-3.629-13.309-6.359-13.7-.814-.116-3.737-.858-8.686-2.206l-.278-.075c-1.833-.45-38.225-5.523-41.414-5.773-7.83-.612-17.316-.49-21.221,5.933-.163.3-2.161,4.144-3.132,6.274a.977.977,0,0,1-.116.412c-2.453,4.554-6,11.093-8.976,16.386-5.329,9.483-5.754,9.608-6.291,9.768a1.027,1.027,0,0,1-.789-.082c-2.372-1.3-15.635-12.449-19.012-15.3l-14.1,17.2c2.09,1.827,8.536,7.407,15.768,13.118,11.53,9.1,19.784,14.4,23.869,15.317,6.627,1.487,10.673-2.63,12.9-6.346a.979.979,0,0,1,1.819.481c.169,7.4.277,14.059.252,15.49-.042,2.383.06,9.294.178,17.3.3,20.24.321,26.762.135,28.851m-.076.576a1.117,1.117,0,0,1-.082.269.832.832,0,0,0,.082-.269m-1.834-.605v0" transform="translate(-159.631 -288.202)" fill="#1a1311"/>
        <path id="パス_454" data-name="パス 454" d="M574.465,290.4s2.709,9.843-1.115,17.218-8.037,6.632-8.037,6.632,1.457,15.113,10.925,16.388c7.254.976,22.032-17.3,22.032-17.3s.307.113-3.244-5.35-2.6-18.828-2.6-18.828" transform="translate(-450.368 -230.371)" fill="#fff"/>
        <path id="パス_455" data-name="パス 455" d="M572.962,327.822a5.117,5.117,0,0,1-.692-.045c-4.245-.571-7.631-3.782-9.794-9.284a32.852,32.852,0,0,1-1.975-7.98.979.979,0,0,1,1.145-1.058c.129.018,3.607.42,7-6.118,3.6-6.938,1.066-16.413,1.04-16.507a.979.979,0,0,1,1.888-.519c.115.417,2.765,10.3-1.19,17.928-2.869,5.532-6.059,6.839-7.791,7.113.524,3.305,2.72,13.513,9.94,14.485,5.341.722,16.434-11.227,20.758-16.476-.317-.563-1.081-1.837-2.921-4.668-3.687-5.673-2.8-18.872-2.757-19.431a.979.979,0,0,1,1.953.138c-.009.131-.885,13.1,2.446,18.225,1.372,2.111,2.337,3.649,2.869,4.571.452.784.778,1.351.324,1.921-.017.021-.035.041-.053.061a115.646,115.646,0,0,1-8.332,9.049c-5.906,5.708-10.562,8.594-13.856,8.594" transform="translate(-446.532 -226.536)" fill="#1a1311"/>
        <path id="パス_456" data-name="パス 456" d="M549.5,399s36.371,3.323,35.279,2.959-27.131,51.212-27.131,51.212-13.915-25.834-12.2-32.275S550.687,401.5,549.5,399" transform="translate(-434.429 -317.872)" fill="#fff"/>
        <path id="パス_457" data-name="パス 457" d="M577.321,442.878c-.031,0-.061,0-.092,0a.979.979,0,0,1-.809-.591c-4.163-9.76-4.622-23.288-4.275-32.917.2-5.6.685-10.39,1.055-13.42.233-1.91.438-3.272.569-4.078.277-1.707.347-1.8.485-1.987a.98.98,0,0,1,1.69.969c-.645,2.45-4.805,31.491,1.616,48.993,1.614-2.277,4.985-6.875,9.395-12.052,6.051-7.1,12.47-36.423,12.534-36.718a.979.979,0,0,1,1.914.415c-.266,1.225-6.59,30.1-12.958,37.573a166.3,166.3,0,0,0-10.312,13.385.979.979,0,0,1-.813.433m-2.38-51.445a.959.959,0,0,0,.806-.291.977.977,0,0,1-.806.291" transform="translate(-455.737 -310.289)" fill="#1a1311"/>
        <path id="パス_458" data-name="パス 458" d="M608.19,407.96l12.82.743-5.2,7.246h-6.132Z" transform="translate(-484.528 -325.011)" fill="#1a1311"/>
        <path id="パス_459" data-name="パス 459" d="M580.557,447.253s-6.5,16.722-8.918,26.2l6.5,16.165,9.29-12.82s-.929-24.712-.743-29.543Z" transform="translate(-455.408 -356.314)" fill="#1a1311"/>
        <path id="パス_460" data-name="パス 460" d="M529.843,380.116c1.56-7.646,4.335-18.456,4.335-18.456l-10.464.426s-9,18.07-7.373,17.907c1.025-.1,4.484,1.52,7.308,3.1C521,384.3,516.961,386,516.961,386.31a74.609,74.609,0,0,0,4.149,16.35c2.731,6.555,13.309,20.762,13.309,20.762s-6.994-31.455-4.576-43.306" transform="translate(-411.197 -288.125)" fill="#fdda09"/>
        <path id="パス_461" data-name="パス 461" d="M530.535,420.566a.978.978,0,0,1-.786-.395c-.435-.584-10.681-14.38-13.428-20.97a74.931,74.931,0,0,1-4.224-16.727c0-.845.443-1.066,5.227-3.2l.227-.1a18.347,18.347,0,0,0-5-2.043,1.119,1.119,0,0,1-1.042-.48c-.4-.58-.816-1.181,3.374-10.32,1.963-4.282,4.051-8.475,4.072-8.517a.979.979,0,0,1,.837-.542l10.464-.426a.979.979,0,0,1,.988,1.222c-.027.108-2.787,10.875-4.324,18.409-2.348,11.511,4.5,42.585,4.573,42.9a.98.98,0,0,1-.955,1.192m-16.427-37.639a75.651,75.651,0,0,0,4.021,15.521c1.8,4.329,7.2,12.207,10.508,16.851C526.8,406.112,523.1,385.41,525,376.085c1.232-6.041,3.243-14.135,4.023-17.229l-8.573.349c-3.262,6.58-6.535,13.807-7.119,16.08a35.621,35.621,0,0,1,6.912,3.114.979.979,0,0,1-.07,1.746c-.629.287-1.337.6-2.05.92-1.324.59-3.214,1.432-4.013,1.862m11.85-6.647h0Z" transform="translate(-407.312 -284.289)" fill="#1a1311"/>
        <path id="パス_462" data-name="パス 462" d="M578.473,355.135l5.574-3.221s-.124,7.184,5.017,11.767l-10.219,8.671s-2.416-10.343-.372-17.217" transform="translate(-460.198 -280.361)" fill="#fff"/>
        <path id="パス_463" data-name="パス 463" d="M574.992,369.495a.979.979,0,0,1-.954-.757c-.1-.432-2.451-10.677-.357-17.719a.979.979,0,0,1,.449-.569l5.574-3.221a.979.979,0,0,1,1.469.865c0,.066-.041,6.8,4.689,11.02a.979.979,0,0,1-.018,1.478l-10.219,8.671a.979.979,0,0,1-.633.233m.462-17.548c-1.329,4.955-.38,11.706.171,14.747l8.127-6.9a17.483,17.483,0,0,1-4.441-10.08Z" transform="translate(-456.346 -276.524)" fill="#1a1311"/>
        <path id="パス_464" data-name="パス 464" d="M633.777,355.916l9.847,9.538c.191.078,4.209-5.278,6.317-9.166,2.192-4.042,4.575-8.715,4.459-8.733l-4.831-5.388s-6.5,5.946-9.1,8.175-6.689,5.574-6.689,5.574" transform="translate(-504.912 -272.595)" fill="#fff"/>
        <path id="パス_465" data-name="パス 465" d="M639.818,362.61a1.052,1.052,0,0,1-.4-.087.976.976,0,0,1-.31-.2l-9.848-9.538a.979.979,0,0,1,.061-1.461c.041-.033,4.109-3.363,6.672-5.56s9.016-8.1,9.081-8.155a.979.979,0,0,1,1.39.069l4.812,5.367a.974.974,0,0,1,.17.241c.235.473.073.81-.362,1.713-.246.511-.605,1.23-1.039,2.08-.912,1.785-2.063,3.969-3.078,5.84a64.649,64.649,0,0,1-3.941,6.171c-.622.873-1.224,1.684-1.7,2.283-.583.737-.979,1.238-1.509,1.238m-8.408-10.47,8.336,8.074a69.453,69.453,0,0,0,5.5-8.23c1.854-3.418,3.6-6.821,4.184-8.066l-3.765-4.2c-1.778,1.62-6.332,5.759-8.4,7.529-1.864,1.6-4.514,3.787-5.856,4.891" transform="translate(-501.075 -268.758)" fill="#1a1311"/>
        <path id="パス_466" data-name="パス 466" d="M587.985,704.25a2.95,2.95,0,1,1-2.95-2.95,2.95,2.95,0,0,1,2.95,2.95" transform="translate(-463.73 -558.706)" fill="#fff"/>
        <path id="パス_467" data-name="パス 467" d="M581.2,704.343a3.93,3.93,0,1,1,3.929-3.93,3.934,3.934,0,0,1-3.929,3.93m0-5.9a1.971,1.971,0,1,0,1.971,1.971,1.974,1.974,0,0,0-1.971-1.971" transform="translate(-459.894 -554.869)" fill="#1a1311"/>
        <path id="パス_468" data-name="パス 468" d="M639.347,391.438c.083-.377-.664-16.92-.664-16.92l-7.055-2.437s-8.577,13.53-11.581,19.539c-3.626,7.251-14.021,40.1-14.021,40.1s8.376-10.242,14.2-15.7,14.931-16.57,14.931-16.57l-5.122-5.122c5.765-1.882,9.31-2.89,9.31-2.89" transform="translate(-482.803 -296.427)" fill="#fdda09"/>
        <path id="パス_469" data-name="パス 469" d="M602.187,428.867a.979.979,0,0,1-.933-1.275c.426-1.345,10.46-33.01,14.078-40.247,2.992-5.984,11.279-19.071,11.63-19.625a.979.979,0,0,1,1.147-.4l7.056,2.437a.979.979,0,0,1,.658.881c.753,16.672.679,17.012.643,17.175a.979.979,0,0,1-.689.732c-.032.009-2.969.846-7.755,2.386l3.991,3.991a.979.979,0,0,1,.065,1.313c-.373.455-9.211,11.22-15.018,16.663-5.712,5.355-14.031,15.509-14.115,15.611a.979.979,0,0,1-.758.359M628.2,369.423c-1.747,2.776-8.547,13.653-11.119,18.8-2.724,5.447-9.426,25.868-12.446,35.226,3-3.505,7.525-8.644,11.082-11.979,4.886-4.58,12.2-13.3,14.278-15.793l-4.492-4.492a.979.979,0,0,1,.388-1.623c4.243-1.385,7.316-2.307,8.633-2.693-.057-2.3-.383-9.93-.632-15.477ZM635.51,387.6h0Z" transform="translate(-478.965 -292.59)" fill="#1a1311"/>
        <path id="パス_470" data-name="パス 470" d="M1015.434,424.23c1.266-.394,10.386-8.825,13.9-12.36,1.289-1.3,2.309-5.353,4.976-7.656,2.4-2.073,6.767-2.583,10.259-3.075,3.893-.548,7.158-3.229,7.315.563.175,4.22-11.294,5.029-9.438,6.533,1.3,1.056,24.3.909,26.655,4.562s-3.109,2.411-3.109,2.411,5.982.008,5.878,3.081-6.1,1.484-6.1,1.484,4.755.985,3.955,3.233-17.477-.026-17.477-.026,13.635,2.9,12.025,5.841c-.854,1.56-12.019.07-20.034.453-5.611.268-11.514-2.832-11.514-2.832l-8.454,6.928Z" transform="translate(-808.967 -318.436)" fill="#fff"/>
        <path id="パス_471" data-name="パス 471" d="M1020.435,430.515a.977.977,0,0,1-.7-.3l-8.837-9.142a.979.979,0,0,1,.393-1.609c1.242-.549,9.718-8.3,13.512-12.121a10.7,10.7,0,0,0,1.333-2.288,16.7,16.7,0,0,1,3.7-5.419c2.492-2.151,6.764-2.746,10.2-3.224l.565-.079a19.01,19.01,0,0,0,3.092-.8c1.693-.542,3.156-1.01,4.256-.241a3.015,3.015,0,0,1,1.082,2.529c.133,3.213-4.188,4.653-7.343,5.7-.3.1-.627.209-.948.321,1.384.155,3.412.3,5.282.44,10.346.757,18.394,1.542,20.071,4.141a3.014,3.014,0,0,1,.59,2.831,4.711,4.711,0,0,1,1.465.985,3.015,3.015,0,0,1,.87,2.24,2.6,2.6,0,0,1-1.056,2.072,3.77,3.77,0,0,1-1.516.628,2.751,2.751,0,0,1,.21.319,2.35,2.35,0,0,1,.165,1.993c-.425,1.195-2.131,1.918-8.846,1.551,2.417,1.087,3.1,1.962,3.388,2.584a1.988,1.988,0,0,1-.058,1.822c-.743,1.357-3.226,1.377-10.711,1.084-3.275-.128-6.986-.273-10.135-.122-4.828.228-9.755-1.863-11.428-2.653l-7.966,6.529a.975.975,0,0,1-.62.222m-7.307-9.947,7.383,7.638,7.756-6.356a.979.979,0,0,1,1.076-.11c.056.03,5.741,2.969,11.012,2.72,3.233-.155,6.99-.008,10.3.122,3.351.131,7.893.309,8.913-.136-.1-.214-.826-1.257-5.483-2.765-2.92-.946-5.853-1.573-5.883-1.579a.979.979,0,0,1,.336-1.928c.038.005,3.822.518,7.8.809,6.816.5,8.349-.07,8.647-.242a.386.386,0,0,0-.054-.275c-.348-.621-1.73-1.192-2.8-1.474-.224-.049-.383-.089-.453-.107a.979.979,0,0,1,.447-1.906c.1.021.277.06.5.118,1.42.3,3.407.443,4.149-.109a.647.647,0,0,0,.268-.568,1.041,1.041,0,0,0-.321-.812,5.046,5.046,0,0,0-2.54-1.053,9.07,9.07,0,0,1-2.256-.228.979.979,0,0,1,.217-1.934h0a14.141,14.141,0,0,1,2.161.192,1.355,1.355,0,0,0,.557-.125,2.257,2.257,0,0,0-.433-.967c-.234-.362-1.364-1.291-6.8-2.107-3.68-.552-8.164-.879-11.766-1.143-5.83-.426-7.257-.577-7.88-1.083a1.351,1.351,0,0,1-.546-1.312c.188-1.033,1.406-1.439,3.617-2.176,2.42-.806,6.077-2.025,6.005-3.765-.028-.676-.168-.95-.247-1-.305-.213-1.648.217-2.537.5a20.561,20.561,0,0,1-3.416.87l-.568.079c-3.178.443-7.134.994-9.188,2.767a14.955,14.955,0,0,0-3.223,4.806,11.234,11.234,0,0,1-1.7,2.8c-1.984,2-9.758,9.406-13.06,11.845m-1.822-1.11-.01,0,.01,0" transform="translate(-805.13 -314.6)" fill="#1a1311"/>
        <path id="パス_472" data-name="パス 472" d="M1188.45,462.871c1.545,2.379.474,9.736.182,11.742" transform="translate(-946.804 -368.757)" fill="#fff"/>
        <path id="パス_473" data-name="パス 473" d="M1184.8,471.755a.989.989,0,0,1-.142-.01.979.979,0,0,1-.828-1.11c1.14-7.829.467-10.295-.035-11.068a.979.979,0,0,1,1.643-1.067c1.175,1.809,1.283,5.871.33,12.417a.98.98,0,0,1-.968.838" transform="translate(-942.966 -364.919)" fill="#1a1311"/>
        <path id="パス_474" data-name="パス 474" d="M1210.092,490.58s-12.2-2.091-13.5-1.991" transform="translate(-953.289 -389.242)" fill="#fff"/>
        <path id="パス_475" data-name="パス 475" d="M1206.279,487.73a.968.968,0,0,1-.167-.014c-5.826-1-12.444-2.031-13.262-1.98a.985.985,0,0,1-1.045-.908.975.975,0,0,1,.9-1.044c1.356-.1,11.684,1.65,13.742,2a.979.979,0,0,1-.164,1.944" transform="translate(-949.475 -385.413)" fill="#1a1311"/>
        <path id="パス_476" data-name="パス 476" d="M1208.815,469.983c-1.507-.114-10.87-1.477-13.474-1.278" transform="translate(-952.294 -373.389)" fill="#fff"/>
        <path id="パス_477" data-name="パス 477" d="M1204.98,467.131q-.037,0-.075,0c-.435-.033-1.4-.153-2.736-.319-3.289-.41-8.793-1.094-10.589-.958a.979.979,0,1,1-.149-1.953c1.993-.151,7.4.522,10.981.967,1.26.157,2.254.281,2.641.31a.979.979,0,0,1-.073,1.956" transform="translate(-948.457 -369.558)" fill="#1a1311"/>
        <path id="パス_478" data-name="パス 478" d="M1145.65,442.877s.753,4.208-.554,6.7" transform="translate(-912.265 -352.828)" fill="#fff"/>
        <path id="パス_479" data-name="パス 479" d="M1141.258,446.718a.98.98,0,0,1-.866-1.435c.941-1.79.649-4.988.457-6.069a.979.979,0,0,1,1.928-.345c.033.186.8,4.57-.651,7.325a.979.979,0,0,1-.868.524" transform="translate(-908.427 -348.994)" fill="#1a1311"/>
        <path id="パス_480" data-name="パス 480" d="M1007.892,493.135l6.458-5.882,11.845,13.843-5.9,4.573" transform="translate(-802.958 -388.181)" fill="#fff"/>
        <path id="パス_481" data-name="パス 481" d="M1016.458,502.812a.979.979,0,0,1-.6-1.753l5.088-3.944-10.519-12.294-5.711,5.2a.979.979,0,1,1-1.319-1.448l6.458-5.882a.979.979,0,0,1,1.4.087l11.844,13.843a.979.979,0,0,1-.144,1.41l-5.9,4.573a.976.976,0,0,1-.6.205" transform="translate(-799.121 -384.344)" fill="#1a1311"/>
        <path id="パス_482" data-name="パス 482" d="M804.477,423.6s15.889,31.635,16.747,31.165c2.608-1.428,19.609-15.83,19.609-15.83l15.328,18.7s-30.439,26.959-40.78,29.279c-11.6,2.6-19.566-20.825-19.566-20.825" transform="translate(-634.002 -337.473)" fill="#fdda09"/>
        <path id="パス_483" data-name="パス 483" d="M809.727,484.263c-11.165,0-18.36-20.758-18.678-21.693a.979.979,0,0,1,1.854-.631,62.135,62.135,0,0,0,5.354,11.212c2.969,4.765,7.65,10.189,13.071,8.972,9.12-2.046,35.014-24.4,39.637-28.435l-14.1-17.2c-3.377,2.851-16.64,14-19.012,15.3a1.027,1.027,0,0,1-.805.077c-.6-.187-1.168-.364-9.4-16.213-3.977-7.66-7.852-15.373-7.891-15.449a.979.979,0,1,1,1.75-.879c5.273,10.5,13.854,27.154,16.026,30.346,3.272-2.262,14.462-11.625,18.822-15.319a.97.97,0,0,1,.722-.228.98.98,0,0,1,.669.354l15.328,18.7a.979.979,0,0,1-.108,1.354c-1.251,1.107-30.749,27.153-41.215,29.5a9.269,9.269,0,0,1-2.03.228" transform="translate(-630.164 -333.637)" fill="#1a1311"/>
        <path id="パス_484" data-name="パス 484" d="M1046.468,585.058a1.384,1.384,0,1,0,1.668-1.026,1.384,1.384,0,0,0-1.668,1.026" transform="translate(-833.66 -465.253)" fill="#1a1311"/>
        <path id="パス_485" data-name="パス 485" d="M1027.633,605.767a1.384,1.384,0,1,0,1.668-1.026,1.384,1.384,0,0,0-1.668,1.026" transform="translate(-818.655 -481.75)" fill="#1a1311"/>
        <path id="パス_486" data-name="パス 486" d="M526.83,12.35a13.758,13.758,0,0,1-7.071-2.051c-.778,3.634,1.559,6.356,3.43,7.891-.1.257-.2.518-.293.788-4.055,11.61,3.374,21.541,3.374,21.541L539.3,11.253s-7.632-7.833-12.469,1.1" transform="translate(-413.955 -6.434)" fill="#1a1311"/>
        <path id="パス_487" data-name="パス 487" d="M522.449,37.665a.979.979,0,0,1-.784-.392c-.316-.423-7.693-10.486-3.515-22.45l.06-.17c-2.722-2.462-3.867-5.42-3.231-8.392a.979.979,0,0,1,1.507-.606,12.985,12.985,0,0,0,5.959,1.869c1.477-2.483,3.339-3.895,5.54-4.2,4.24-.586,8.033,3.248,8.193,3.412a.979.979,0,0,1,.193,1.082L523.344,37.084a.979.979,0,0,1-.785.575.992.992,0,0,1-.109.006M516.767,8.039c.069,2.428,1.718,4.327,3.222,5.561a.979.979,0,0,1,.291,1.113c-.106.273-.2.52-.28.755-2.945,8.432.513,16.044,2.3,19.152l12-26.956c-1.023-.881-3.533-2.752-6.048-2.4-1.7.239-3.172,1.49-4.379,3.718a.978.978,0,0,1-.858.513h-.041a14.643,14.643,0,0,1-6.2-1.456m6.241.477h0Z" transform="translate(-410.133 -2.6)" fill="#1a1311"/>
        <path id="パス_488" data-name="パス 488" d="M533.589,52.7c-2.164,5.661-2.768,16.816-3.461,25.165-1.74,20.964,5.037,26.626,15.142,27.932,11.876,1.535,21.24-3.273,27.918-16.016,3.313-6.322,7.893-18.1,7.046-26.228s-13.025-23.19-25.341-21.924-17.395.841-21.3,11.07" transform="translate(-422.12 -33.105)" fill="#fff"/>
        <path id="パス_489" data-name="パス 489" d="M545.535,103.207a32.964,32.964,0,0,1-4.224-.28c-6.05-.782-10.088-3.016-12.707-7.03-3.049-4.673-4.123-11.854-3.285-21.954.093-1.119.184-2.287.278-3.487.619-7.928,1.32-16.913,3.245-21.947,3.795-9.929,8.925-10.421,19.144-11.4.942-.09,1.932-.185,2.974-.292,13.016-1.343,25.526,14.266,26.415,22.8.9,8.649-4.072,20.905-7.153,26.784-3.362,6.414-7.533,11.044-12.4,13.763a24.831,24.831,0,0,1-12.288,3.05M529.756,48.858l.915.35c-1.823,4.77-2.513,13.6-3.122,21.4-.094,1.2-.185,2.375-.279,3.5-1.806,21.766,5.8,25.782,14.292,26.88a31.17,31.17,0,0,0,3.992.266c9.862,0,17.389-5.188,22.933-15.766a74.757,74.757,0,0,0,5.014-12.27c1.621-5.3,2.287-9.934,1.926-13.4-.8-7.671-12.542-22.26-24.267-21.051-1.047.108-2.042.2-2.988.294-10,.96-14.141,1.357-17.5,10.152Z" transform="translate(-418.287 -29.265)" fill="#1a1311"/>
        <path id="パス_490" data-name="パス 490" d="M631.193,48.791s15.616-18.172,1.063-34.622C622.579,3.23,597.715,1.7,595.183,10.7c-.337,1.2,7.034,3.2,11.146,16.81a7.572,7.572,0,0,0,3.507-5.249s3.417,5.65,9.227,8.05c6.865,2.835,5.842,8.558,6.025,10.11s-1.029,10.994-1.029,10.994,4.46-4.755,6.32-3.935.814,1.307.814,1.307" transform="translate(-474.157 -3.856)" fill="#1a1311"/>
        <path id="パス_491" data-name="パス 491" d="M620.2,48.546a.98.98,0,0,1-.971-1.1c.463-3.6,1.151-9.711,1.028-10.755a9.458,9.458,0,0,1-.037-.952c-.019-2.155-.056-6.166-5.389-8.368a21.919,21.919,0,0,1-8.507-6.77,8.156,8.156,0,0,1-3.41,3.937.979.979,0,0,1-1.381-.59c-2.9-9.6-7.418-13.209-9.59-14.944-1.062-.848-1.829-1.462-1.562-2.414.814-2.9,3.542-4.955,7.886-5.95a35.118,35.118,0,0,1,16.164.732c6.2,1.65,11.423,4.6,14.7,8.3,7.821,8.841,7.1,18.162,5.126,24.424a36.374,36.374,0,0,1-5.745,10.948,1.541,1.541,0,0,1-.764.786.979.979,0,0,1-1.351-1.17c-.075-.039-.164-.082-.271-.129-.554-.246-3,1.356-5.211,3.709a.98.98,0,0,1-.714.309M605.977,17.433a.98.98,0,0,1,.838.473c.032.053,3.333,5.409,8.763,7.651,6.532,2.7,6.579,7.927,6.6,10.16,0,.312.005.582.024.74a71.77,71.77,0,0,1-.7,8.524c.175-.15.357-.3.544-.452,2.156-1.737,3.7-2.307,4.867-1.794a5.751,5.751,0,0,1,.633.317,34.874,34.874,0,0,0,4.86-9.611c2.629-8.383,1.033-15.945-4.744-22.476C621.138,3.59,607.165.608,598.7,2.545c-3.378.773-5.611,2.28-6.338,4.262.186.174.507.43.8.663,2.223,1.776,6.742,5.387,9.823,14.588a7.089,7.089,0,0,0,2.029-3.834.98.98,0,0,1,.961-.79" transform="translate(-470.297 -0.004)" fill="#1a1311"/>
        <path id="パス_492" data-name="パス 492" d="M747.182,211.931c4.167-.728,7.864,2.226,6.926,5.9s-6.635,6.44-10.625,4.8" transform="translate(-592.311 -168.752)" fill="#fff"/>
        <path id="パス_493" data-name="パス 493" d="M742.227,220.257a7.777,7.777,0,0,1-2.955-.554.979.979,0,1,1,.744-1.812,7.334,7.334,0,0,0,5.923-.513,6.188,6.188,0,0,0,3.381-3.625,3.383,3.383,0,0,0-.83-3.226,5.5,5.5,0,0,0-4.979-1.462.979.979,0,0,1-.337-1.929,7.475,7.475,0,0,1,6.754,2.061,5.353,5.353,0,0,1,1.29,5.042,8.025,8.025,0,0,1-4.4,4.89,10.329,10.329,0,0,1-4.591,1.128" transform="translate(-588.473 -164.922)" fill="#1a1311"/>
        <path id="パス_494" data-name="パス 494" d="M560.543,186.22c-4.047,3.559-7.369,5.9-7.369,5.9l3.517,4.1" transform="translate(-440.698 -148.357)" fill="#fff"/>
        <path id="パス_495" data-name="パス 495" d="M552.855,193.369a.975.975,0,0,1-.744-.342l-3.517-4.1a.979.979,0,0,1,.179-1.437c.033-.023,3.33-2.36,7.287-5.839a.979.979,0,0,1,1.293,1.471c-2.856,2.512-5.33,4.407-6.582,5.336l2.827,3.3a.979.979,0,0,1-.743,1.616" transform="translate(-436.862 -144.521)" fill="#1a1311"/>
        <path id="パス_496" data-name="パス 496" d="M656.244,170.032a1.865,1.865,0,1,1-2.1-1.6,1.864,1.864,0,0,1,2.1,1.6" transform="translate(-519.853 -134.175)" fill="#1a1311"/>
        <path id="パス_497" data-name="パス 497" d="M567.842,156.227a1.865,1.865,0,1,1-2.1-1.6,1.864,1.864,0,0,1,2.1,1.6" transform="translate(-449.426 -123.177)" fill="#1a1311"/>
        <path id="パス_498" data-name="パス 498" d="M750.638,238.864a3.483,3.483,0,0,1,2.774-1.947" transform="translate(-598.012 -188.746)" fill="#fff"/>
        <path id="パス_499" data-name="パス 499" d="M746.8,236.006a.98.98,0,0,1-.894-1.378,4.427,4.427,0,0,1,3.455-2.5.979.979,0,0,1,.428,1.911,2.518,2.518,0,0,0-2.094,1.39.979.979,0,0,1-.895.581" transform="translate(-594.174 -184.908)" fill="#1a1311"/>
        <path id="パス_500" data-name="パス 500" d="M708.918,58.806a.781.781,0,0,1-.4-.108c-2.346-1.38-5.846-4.55-9.194-11.82a.783.783,0,0,1,1.423-.655c3.178,6.9,6.412,9.858,8.565,11.124a.784.784,0,0,1-.4,1.459" transform="translate(-557.076 -36.462)" fill="#fff"/>
        <path id="パス_501" data-name="パス 501" d="M684.958,61a.779.779,0,0,1-.418-.122c-2.3-1.457-5.693-4.742-8.8-12.117a.783.783,0,1,1,1.444-.608c2.947,7,6.082,10.065,8.192,11.4a.783.783,0,0,1-.42,1.445" transform="translate(-538.295 -37.983)" fill="#fff"/>
        <path id="パス_502" data-name="パス 502" d="M385.505,198.5a.981.981,0,0,1-.206-.022,8.43,8.43,0,0,1-6.817-7.876c-.191-4.164,2.559-7.752,7-9.141a.979.979,0,0,1,.584,1.869c-4.334,1.354-5.751,4.6-5.633,7.182a6.417,6.417,0,0,0,5.271,6.051.979.979,0,0,1-.2,1.937" transform="translate(-301.518 -144.533)" fill="#1a1311"/>
        <path id="パス_503" data-name="パス 503" d="M416.6,205.727a.982.982,0,0,1-.206-.022c-5.623-1.2-6.12-4.84-6.138-5.925-.048-2.836,2.123-5.368,5.281-6.157a.979.979,0,0,1,.475,1.9c-2.232.558-3.83,2.335-3.8,4.225.033,1.923,1.748,3.434,4.59,4.043a.979.979,0,0,1-.2,1.937" transform="translate(-326.839 -154.231)" fill="#1a1311"/>
        <path id="パス_504" data-name="パス 504" d="M872.049,198.5a.979.979,0,0,1-.2-1.937,6.417,6.417,0,0,0,5.271-6.051c.118-2.584-1.3-5.828-5.633-7.182a.979.979,0,0,1,.584-1.869c4.446,1.39,7.2,4.978,7,9.141a8.43,8.43,0,0,1-6.817,7.876,1,1,0,0,1-.206.022" transform="translate(-693.738 -144.532)" fill="#1a1311"/>
        <path id="パス_505" data-name="パス 505" d="M844.723,205.728a.979.979,0,0,1-.2-1.937c2.842-.609,4.558-2.121,4.59-4.043.032-1.89-1.565-3.666-3.8-4.225a.979.979,0,0,1,.475-1.9c3.157.789,5.329,3.321,5.281,6.157-.018,1.085-.515,4.72-6.138,5.925a1,1,0,0,1-.206.022" transform="translate(-672.187 -154.232)" fill="#1a1311"/>
        <line id="線_35" data-name="線 35" x1="0.918" y1="25.164" transform="translate(95.536 113.768)" fill="#ffaf00"/>
        <path id="パス_506" data-name="パス 506" d="M466.941,581.837a.979.979,0,0,1-.978-.943l-.918-25.164a.979.979,0,1,1,1.957-.072l.918,25.164a.979.979,0,0,1-.943,1.014h-.036" transform="translate(-370.487 -441.926)" fill="#1a1311"/>
        <path id="パス_507" data-name="パス 507" d="M582.095,284.734a6.891,6.891,0,0,1,4.641-2.886c3.424-.7,4.964,1.266,4.964,1.266" transform="translate(-463.738 -224.421)" fill="#fff"/>
        <path id="パス_508" data-name="パス 508" d="M578.315,281.91a.963.963,0,0,1-.841-1.43,7.837,7.837,0,0,1,5.29-3.361c3.964-.814,5.84,1.517,5.917,1.616a.965.965,0,1,1-1.519,1.189c-.043-.051-1.264-1.479-4.011-.916a5.971,5.971,0,0,0-4,2.419.973.973,0,0,1-.84.482" transform="translate(-459.959 -220.636)" fill="#1a1311"/>
      </g>
    </g>
    <g id="パス_2925" data-name="パス 2925" transform="translate(543 1090)" fill="none">
      <path d="M0,0H355V274H0Z" stroke="none"/>
      <path d="M 8 8 L 8 266 L 347 266 L 347 8 L 8 8 M 0 0 L 355 0 L 355 274 L 0 274 L 0 0 Z" stroke="none" fill="#1a1a17"/>
    </g>
  </g>
</svg>
