<svg xmlns="http://www.w3.org/2000/svg" width="285.984" height="30.432" viewBox="0 0 285.984 30.432">
  <path id="パス_2922" data-name="パス 2922" d="M24.96-25.536,22.432-24.48a40.482,40.482,0,0,1,2.5,4.448l2.56-1.12C26.88-22.336,25.76-24.352,24.96-25.536Zm3.776-1.44L26.208-25.92a33.349,33.349,0,0,1,2.56,4.384l2.56-1.088A50.05,50.05,0,0,0,28.736-26.976ZM6.144-9.952a38.554,38.554,0,0,1-4.992,8.9L5.632.832A44,44,0,0,0,10.368-8.32a74.5,74.5,0,0,0,2.72-9.632c.128-.7.48-2.272.768-3.2l-4.672-.96A46.109,46.109,0,0,1,6.144-9.952Zm15.808-.672A98.875,98.875,0,0,1,25.28.672L30.016-.864c-.9-3.168-2.592-8.288-3.712-11.168-1.216-3.1-3.424-8.032-4.736-10.5l-4.256,1.376A89.642,89.642,0,0,1,21.952-10.624Zm12.992-4.192v5.024c1.184-.1,3.328-.16,5.152-.16H57.28c1.344,0,2.976.128,3.744.16v-5.024c-.832.064-2.24.192-3.744.192H40.1C38.432-14.624,36.1-14.72,34.944-14.816ZM68.9-22.976l.992,3.712c2.144-.064,5.5-.16,8.576-.416v4.544H69.44a27.856,27.856,0,0,1-2.944-.192V-11.2c.832-.064,2.016-.128,3.008-.128h8.8c-.608,4.736-3.168,8.16-8.032,10.4l4.064,2.784a16.125,16.125,0,0,0,8.192-13.184h8.288c.864,0,1.952.064,2.816.128v-4.128c-.7.064-2.208.192-2.912.192H82.656v-5.088a51.658,51.658,0,0,0,5.376-1.056c.544-.128,1.376-.352,2.464-.608l-2.624-3.52a34.684,34.684,0,0,1-8.064,1.92A75.514,75.514,0,0,1,68.9-22.976ZM108.48-20.32,104.192-19.3a11.207,11.207,0,0,1,.9,2.272c.224.7.512,1.728.832,2.976-1.472.288-2.624.48-3.072.544-1.056.192-1.92.288-2.944.384l.992,3.84c.96-.224,3.3-.7,5.984-1.28,1.152,4.352,2.464,9.344,2.944,11.072a18.34,18.34,0,0,1,.576,2.816l4.352-1.088c-.256-.64-.672-2.08-.864-2.624-.48-1.664-1.856-6.592-3.072-11.008,3.456-.7,6.656-1.376,7.424-1.5a28.408,28.408,0,0,1-4.736,5.76l3.52,1.76a50.369,50.369,0,0,0,6.816-10.016l-2.56-1.824a6.1,6.1,0,0,1-1.632.512c-1.248.288-5.728,1.152-9.792,1.92-.352-1.248-.64-2.336-.864-3.1C108.8-18.72,108.608-19.584,108.48-20.32ZM143.776-.7,146.464,1.5a6.837,6.837,0,0,1,1.376-.96,35.234,35.234,0,0,0,10.848-8.736l-2.464-3.52a20.264,20.264,0,0,1-7.9,6.752V-21.7a16.248,16.248,0,0,1,.224-2.784h-4.768a14.187,14.187,0,0,1,.256,2.752V-3.072A12.176,12.176,0,0,1,143.776-.7Zm-14.816-.48,3.9,2.592a18.762,18.762,0,0,0,5.7-9.184c.864-3.232.96-9.984.96-13.76a21.078,21.078,0,0,1,.224-2.912h-4.7a12.144,12.144,0,0,1,.288,2.944c0,3.872-.032,9.92-.928,12.672A15.1,15.1,0,0,1,128.96-1.184ZM186.272-20.64a40.177,40.177,0,0,1-.992,4.192l1.632.448H181.7l2.112-.512a16.585,16.585,0,0,0-.9-4.128ZM182.912-10.5h-3.648V-7.52h3.648v5.312h3.456V-7.52h3.584V-10.5h-3.584v-2.5h3.84V-16H187.84c.416-1.152.96-2.72,1.536-4.256l-1.856-.384h2.432v-3.008h-3.584V-27.1h-3.456v3.456H179.2v3.008h3.008l-1.984.384a19.436,19.436,0,0,1,.8,4.256h-2.048v3.008h3.936ZM167.84-20.864a22.923,22.923,0,0,0-4.032-5.44l-3.1,1.76a24.367,24.367,0,0,1,3.872,5.632Zm7.2-2.144V-19.3h-2.5v-3.712Zm.448,12v4.064h-2.112v-4.064Zm-8.16,4.672a12.842,12.842,0,0,1,1.344,1.44A14.379,14.379,0,0,0,170.3-7.712v5.12h3.072V-4.064h5.28v-9.824h-6.592c.128-.864.224-1.7.32-2.528h5.856v-9.472h-8.864v5.44c0,3.328-.224,7.776-2.048,11.456v-5.7H160.9v3.456h2.976v7.3a33.971,33.971,0,0,1-3.456,2.944l1.76,3.52c1.408-1.376,2.56-2.624,3.648-3.872,1.952,2.464,4.576,3.424,8.448,3.584,4.064.16,11.36.1,15.52-.1a15.025,15.025,0,0,1,1.088-3.456c-4.544.352-12.608.448-16.608.288-3.328-.16-5.728-1.088-6.944-3.264ZM195.616-19.9h3.3v-1.664h3.008V-19.9h3.264v-1.664h2.528v-2.944h-2.528V-27.1H201.92v2.592h-3.008V-27.1h-3.3v2.592h-2.592v2.944h2.592ZM212.448-5.312H215.2v3.168h-2.752Zm2.752-9.472h-2.752V-17.76H215.2Zm0,6.272h-2.752v-3.072H215.2Zm-11.36-6.112h-2.112V-16.9h2.112Zm-7.2-2.272h2.048v2.272H196.64ZM222.656-2.144h-4.064V-5.312h3.488v-3.2h-3.488v-3.072h3.488v-3.2h-3.488V-17.76h3.744v-3.392h-3.584c.64-1.472,1.28-3.168,1.888-4.8l-3.648-.832a39.269,39.269,0,0,1-1.76,5.632H212.8a48.317,48.317,0,0,0,1.664-5.152l-3.488-.768a36.664,36.664,0,0,1-4.128,10.208v-2.464H193.792v7.168h4.736v1.248H193.92v2.784h4.608v.064c0,.416-.032.832-.064,1.28h-5.7v2.976h4.8A9.169,9.169,0,0,1,192.48.32a11.441,11.441,0,0,1,2.3,2.56,12.17,12.17,0,0,0,5.408-4.192c1.728,1.248,3.84,2.912,4.992,3.936l2.176-3.1c-.864-.576-3.776-2.3-5.6-3.328h5.92V-6.784h-5.664c.032-.416.032-.832.032-1.248v-.1h4.832v-2.784h-4.832V-12.16h4.8v-2.56a20.64,20.64,0,0,1,1.824,1.664l.352-.512V2.816h3.424v-1.5h10.208Zm13.376-23.968h-9.664v2.88h9.664Zm1.216,4.288H224.736v3.008h12.512ZM236.1-17.376H226.24v2.912H236.1Zm-9.856,7.232H236.1v-2.848H226.24Zm6.528,8.256h-3.392v-3.68h3.392Zm5.664-12.032c0,4.9-.256,9.76-2.368,13.664v-8.32h-9.92V2.336h3.232V1.088h6.688V.64a15.241,15.241,0,0,1,2.528,2.112c2.944-4.608,3.264-10.688,3.264-16.64V-25.92h-3.424ZM244.16-.352h3.3V-24.32h-3.3Zm5.632-25.7V2.688h3.616V-26.048Zm8.032,17.664A23.323,23.323,0,0,1,256.192-.96,15.984,15.984,0,0,1,258.976.384a29.372,29.372,0,0,0,1.888-8.256Zm7.136.608a22.033,22.033,0,0,1,1.376,5.408l2.848-.928a25.528,25.528,0,0,0-1.568-5.28Zm7.52-4.48h3.232v1.7H272.48Zm0-4.256h3.232v1.728H272.48Zm9.536,1.728h-3.168v-1.728h3.168Zm0,4.224h-3.168v-1.7h3.168Zm3.52,2.72V-19.2H279.1v-1.76h6.848v-3.3H279.1v-2.816h-3.648v2.816h-7.168v3.3h7.168v1.76h-6.3v7.9a29.9,29.9,0,0,0-2.5-5.5l-2.688,1.12c.352.64.7,1.344,1.024,2.048l-2.784.16c2.016-2.56,4.192-5.728,5.952-8.416l-3.1-1.44a51.588,51.588,0,0,1-2.88,5.184,16.1,16.1,0,0,0-1.024-1.248,72.044,72.044,0,0,0,3.616-6.528l-3.3-1.152a39.266,39.266,0,0,1-2.3,5.536c-.256-.224-.512-.448-.736-.672l-1.856,2.56a29.449,29.449,0,0,1,3.648,4.48c-.48.672-.96,1.312-1.44,1.888l-2.3.128.384,3.3,4.448-.352V2.784h3.264V-10.464l1.6-.128c.192.7.384,1.344.48,1.888l2.5-1.152V-7.84h4.928A20.067,20.067,0,0,1,266.5-1.056a16.873,16.873,0,0,1,2.5,2.912,22.415,22.415,0,0,0,6.464-6.112V2.752H279.1V-4.384a26.092,26.092,0,0,0,5.44,5.856,14.878,14.878,0,0,1,2.592-2.88,24.143,24.143,0,0,1-6.72-6.432Z" transform="translate(-1.152 27.104)" fill="#1a1a17" opacity="0.9"/>
</svg>
