<?xml version="1.0" encoding="UTF-8"?><svg id="_線" xmlns="http://www.w3.org/2000/svg" viewBox="0 0 1260 200"><defs><style>.cls-1{fill:#fff;}.cls-2{fill:#ffe900;}.cls-3{letter-spacing:-.02em;}.cls-4{font-family:mplus-2p-heavy, 'M+ 2p';font-size:132.25px;font-weight:800;}.cls-5{letter-spacing:-.02em;}.cls-6{letter-spacing:-.02em;}</style></defs><text class="cls-4" transform="translate(175.14 144.4)"><tspan class="cls-3" x="0" y="0">避</tspan><tspan class="cls-5" x="129.34" y="0">難</tspan><tspan class="cls-6" x="259.6" y="0">訓</tspan><tspan x="389.59" y="0">練</tspan></text><rect class="cls-1" width="1260" height="200"/><g><polygon class="cls-2" points="688.96 175.47 15.67 175.47 55.26 24.53 728.55 24.53 688.96 175.47"/><g><path d="M78.4,159.64H36.08l31.61-119.02h42.32l-31.61,119.02Zm47.87,0l.26-92.84h16.27l7.01-26.18h11.77l-7.01,26.18h2.51l7.01-26.18h11.77l-7.01,26.18-.26,92.84h-42.32Z"/><path d="M179.17,118.78l9.26-34.52h123.12l-9.26,34.52h-123.12Z"/><path d="M449.48,84.26l-9.26,34.52h-37.56l-10.84,40.86h-42.32l10.84-40.86h-43.24l9.26-34.52h43.11l2.51-9.39h-43.24l9.26-34.52h123.12l-9.26,34.52h-37.56l-2.51,9.39h37.69Z"/><path d="M509.52,105.29l-14.41,54.09h-33.06l14.42-54.09h-16.4l7.27-26.98h16.27l3.17-11.9h33.06l-3.17,11.9h46.82l-14.15,52.24h-33.06l6.88-25.26h-13.62Z"/><path d="M556.07,159.64l31.61-119.02h42.32l-31.61,119.02h-42.32Zm123.25,0h-63.34l31.61-119.02h42.32l-22.48,84.5h21.16l-9.26,34.52Z"/></g><g><path d="M726.46,90.94h30.42v19.57c3-7.93,4.5-20.85,4.5-38.75v-27.9h37.56v42.32h-21.29c0,1.41-.09,3.44-.26,6.08h22.22v44.7h-37.03v-11.5l-5.69-6.88v12.56c1.94,3.26,4.34,5.6,7.21,7.01,2.86,1.41,7.76,2.45,14.68,3.11,6.92,.66,17.61,.99,32.07,.99h35.71l-1.06,16.53h-33.99c-17.37,0-30.68-.79-39.94-2.38-9.26-1.59-16.22-4.36-20.9-8.33-5.47,4.58-11.15,8.82-17.06,12.7l-9.52-15.87c4.58-2.82,8.99-5.86,13.22-9.12v-28.04h-10.84v-16.8Zm33.33-24.99l-12.96,12.56c-6.17-7.05-13.22-14.55-21.16-22.48l13.49-12.17c7.14,7.05,14.02,14.42,20.63,22.08Zm17.46,55.54h6.08v-14.15h-6.08v14.15Zm.4-50.39h5.95v-11.64h-5.95v11.64Zm55.28,26.18v8.2h11.9v16.4h-11.9v16.4h-18.65v-16.4h-11.9v-16.4h11.9v-8.2h-13.36v-16.93h6.88c-.88-7.05-1.68-12.3-2.38-15.74h-3.57v-16.4h12.43v-6.88h18.65v6.88h11.9v16.4h-2.78c-.88,5.11-2.03,10.36-3.44,15.74h6.88v16.93h-12.56Zm-8.73-16.93c1.32-5.11,2.38-10.36,3.17-15.74h-7.67c1.23,6.7,2.07,11.95,2.51,15.74h1.98Z"/><path d="M858.04,134.85v-14.81h22.48v-3.57h-20.9v-14.28h20.9v-2.91h-20.76v-31.34h8.2v-3.97h-9.92v-15.08h9.92v-8.2h17.19v8.2h9.26v-8.2h17.19v8.2h9.92v15.08h-9.92v3.97h8.2v7.54c5.03-12.52,8.86-24.73,11.51-36.63l17.19,2.91c-.88,4.5-2.03,9.35-3.44,14.55h8.07c1.59-5.02,3.08-10.84,4.5-17.46l16.66,2.38c-1.32,6-2.6,11.02-3.83,15.08h8.86v16.4h-10.32v11.9h8.86v14.81h-8.86v12.03h8.86v14.94h-8.86v12.03h11.11v15.87h-37.42v6.74h-19.31V95.04l-3.57-1.85v6.08h-19.18v2.91h19.31v14.28h-19.31v3.57h20.37v14.81h-17.19c3.79,3.79,9.61,6.92,17.46,9.39l-6.75,15.61c-8.99-2.73-16.71-8.42-23.14-17.06-7.32,9.34-15.96,15.47-25.92,18.38l-8.46-15.34c9.17-2.82,15.56-6.48,19.18-10.98h-18.12Zm23.67-55.67h-5.29v8.33h5.29v-8.33Zm3.44-11.24h9.26v-3.97h-9.26v3.97Zm14.28,11.24v8.33h5.29v-8.33h-5.29Zm51.84,5.42v-11.9h-8.6v11.9h8.6Zm0,26.85v-12.03h-8.6v12.03h8.6Zm0,14.94h-8.6v12.03h8.6v-12.03Z"/><path d="M989.76,79.83v-16.13h46.55v16.13h-46.55Zm51.18,11.11V43.86h17.72v55.41c0,14.55-.97,26.56-2.91,36.04-1.94,9.48-4.98,17.79-9.12,24.93l-12.03-9.65v5.69h-24.73v4.23h-16.66v-40.07h41.39v19.31c2.38-5.55,4.03-11.92,4.96-19.11,.93-7.18,1.39-17.08,1.39-29.69Zm-47.74-31.21v-14.68h40.86v14.68h-40.86Zm1.19,38.35v-14.15h39.54v14.15h-39.54Zm0,18.25v-14.15h39.54v14.15h-39.54Zm15.47,26.05h9.92v-8.2h-9.92v8.2Zm55.81,7.67V47.43h17.19v102.62h-17.19Zm24.2,8.86V43.86h18.25v115.05h-18.25Z"/><path d="M1118.57,151.91c1.67-11.46,2.91-23.36,3.7-35.71l11.64,.79c-.71,12.87-1.94,25.17-3.7,36.9l-11.64-1.98Zm.13-79.74l7.14-19.71c.35,.44,.75,.95,1.19,1.52,.44,.57,.95,1.24,1.52,1.98,.57,.75,.99,1.3,1.26,1.65,2.38-5.29,4.71-11.2,7.01-17.72l15.74,4.5c-3.53,8.73-7.67,17.77-12.43,27.11l1.98,2.78c3.44-5.82,7.23-12.74,11.37-20.76l10.58,3.97v-8.07h30.42v-9.12h19.44v9.12h28.3v15.74h-28.3v4.89h26.32v50.39h-23.67c7.67,7.41,16.93,13.84,27.77,19.31l-7.54,17.06c-8.46-5.29-16.09-11.72-22.88-19.31v22.35h-19.44v-21.95c-7.14,6.97-16.05,13.27-26.71,18.91l-4.63-10.45-5.03,.4c-.44-10.84-1.06-20.98-1.85-30.42l10.71-1.46c.71,6.61,1.32,13.53,1.85,20.76,10.05-5.11,17.81-10.18,23.28-15.21h-23.01v-9.12l-7.54,1.72c-.09-.35-.2-.9-.33-1.65-.13-.75-.24-1.3-.33-1.65l-6.08,.53v49.72h-19.18v-48.4l-14.94,1.19-.53-18.65,10.18-.53c.26-.44,.64-1.01,1.12-1.72,.48-.7,.86-1.28,1.12-1.72-5.29-6.96-9.92-12.96-13.89-17.99Zm37.96,19.84c-.26-1.06-.66-2.56-1.19-4.5-.53-1.94-.84-3.08-.93-3.44l-5.16,8.33,7.27-.4Zm0-11.37l8.33-2.38c1.32,4.5,2.69,9.79,4.1,15.87v-24.07h25.39v-4.89h-29.09c-2.82,5.29-5.73,10.45-8.73,15.47Zm30.15,9.26h7.67v-6.48h-7.67v6.48Zm7.67,18.12v-6.74h-7.67v6.74h7.67Zm27.11-18.12v-6.48h-7.67v6.48h7.67Zm-7.67,18.12h7.67v-6.74h-7.67v6.74Z"/></g></g></svg>