<svg id="Group_3" data-name="Group 3" xmlns="http://www.w3.org/2000/svg" xmlns:xlink="http://www.w3.org/1999/xlink" width="273.967" height="301.647" viewBox="0 0 273.967 301.647">
  <defs>
    <clipPath id="clip-path">
      <rect id="Rectangle_51" data-name="Rectangle 51" width="273.967" height="301.647" fill="none"/>
    </clipPath>
  </defs>
  <g id="Group_2" data-name="Group 2" clip-path="url(#clip-path)">
    <path id="Path_30" data-name="Path 30" d="M109.638,58.265A29.132,29.132,0,1,0,80.506,29.132a29.132,29.132,0,0,0,29.132,29.132" transform="translate(-29.451)" fill="#1a1311"/>
    <path id="Path_31" data-name="Path 31" d="M255.985,244.769H193.728v-31.7c0-20.2-.217-25.191-9.561-40.652L151.889,122.91h30.679L200.246,144.3a15.344,15.344,0,0,0,20.6,2.557h0a13.357,13.357,0,0,0,2.415-19.45l-21.217-25.677c-4.465-5.4-13.4-9.059-19.526-9.059H109.7c-9.5,0-20.946,4.27-27.9,12.719L49.783,144.255l-31.661-6.473A15.353,15.353,0,0,0,.471,148.694,13.328,13.328,0,0,0,10.79,165.325l42.887,8.769c7.29,1.49,14.223-1.233,17.791-5.565l22.815-27.7,29.425,45.133L62.577,310.952A16.948,16.948,0,0,0,70.969,334a18.886,18.886,0,0,0,24.162-8.593l63.409-124.887V269.6a13.91,13.91,0,0,0,13.1,11.138h84.341a17.982,17.982,0,1,0,0-35.964" transform="translate(0 -33.901)" fill="#1a1311"/>
  </g>
</svg>
