<svg id="Group_6" data-name="Group 6" xmlns="http://www.w3.org/2000/svg" xmlns:xlink="http://www.w3.org/1999/xlink" width="593.5" height="653.464" viewBox="0 0 593.5 653.464">
  <defs>
    <clipPath id="clip-path">
      <rect id="Rectangle_51" data-name="Rectangle 51" width="593.5" height="653.464" fill="none"/>
    </clipPath>
  </defs>
  <g id="Group_2" data-name="Group 2" clip-path="url(#clip-path)">
    <path id="Path_30" data-name="Path 30" d="M143.616,126.22a63.11,63.11,0,1,0-63.11-63.11,63.11,63.11,0,0,0,63.11,63.11" transform="translate(30.097)" fill="#1a1311"/>
    <path id="Path_31" data-name="Path 31" d="M554.545,422.163H419.676v-68.67c0-43.751-.47-54.572-20.712-88.066l-69.924-107.25H395.5l38.3,46.344a33.24,33.24,0,0,0,44.625,5.539l0,0a28.935,28.935,0,0,0,5.232-42.136L437.7,112.3c-9.673-11.707-29.027-19.624-42.3-19.624H237.647c-20.59,0-45.375,9.25-60.45,27.552l-69.35,84.192L39.259,190.393C22.6,186.986,5.39,197.624,1.021,214.033a28.872,28.872,0,0,0,22.354,36.028l92.906,19c15.792,3.229,30.813-2.672,38.542-12.055l49.425-60,63.744,97.772L135.563,565.536a36.715,36.715,0,0,0,18.18,49.935c19.253,8.543,42.808.165,52.343-18.616L343.451,326.31V475.945c2.34,13.271,15.114,24.129,28.385,24.129H554.545a38.955,38.955,0,1,0,0-77.911" transform="translate(0 34.645)" fill="#1a1311"/>
  </g>
</svg>
