<svg xmlns="http://www.w3.org/2000/svg" xmlns:xlink="http://www.w3.org/1999/xlink" width="570" height="30" viewBox="0 0 570 30">
  <defs>
    <clipPath id="clip-Artboard_1">
      <rect width="570" height="30"/>
    </clipPath>
  </defs>
  <g id="Artboard_1" data-name="Artboard – 1" clip-path="url(#clip-Artboard_1)">
    <path id="Path_2903" data-name="Path 2903" d="M28.032-21.472v-2.784c-1.7.1-4.864.192-8.16.192-4.352,0-11.008-.16-14.5-.448v2.784c3.36.256,9.856.448,14.464.448C23.392-21.28,26.176-21.376,28.032-21.472ZM29.216.128V-2.72a106.971,106.971,0,0,1-12.352.9H16.7c-6.848,0-10.592-1.92-10.592-5.792,0-2.08,1.216-4,3.584-6.336H6.176C4.064-11.712,3.04-9.5,3.04-7.2,3.04-1.888,7.776.9,16.352.9A115.916,115.916,0,0,0,29.216.128Zm37.248-16H63.488C62.848-5.344,60.384-1.7,56.736-1.7c-1.76,0-2.592-.832-2.592-2.752v-8.1c0-3.008-1.152-4.608-3.648-4.608-1.984,0-4.352,1.056-6.56,3.616C44.8-16.928,46.5-23.1,47.36-26.208H44.288C41.44-15.488,39.008-5.76,37.6,1.344h3.072c.416-1.92,1.344-6.784,1.888-8.928,2.208-4.64,4.64-6.5,6.912-6.5,1.216,0,1.792.8,1.792,2.848V-3.9c0,3.52,1.824,5.152,5.216,5.152C62.016,1.248,65.856-2.56,66.464-15.872ZM103.744-1.76V-5.376A33.493,33.493,0,0,0,97.92-9.248V-20.736h5.216v-2.72H95.1V-10.4a15.886,15.886,0,0,0-5.344-.96c-5.12,0-7.968,2.688-7.968,6.368,0,4.16,3.392,6.528,7.712,6.528,5.5,0,8.288-2.336,8.288-7.456v-.256A40.083,40.083,0,0,1,103.744-1.76ZM91.232-20.736v-2.752H81.184c.1-1.056.192-2.112.224-3.1H78.464c-.032.992-.1,2.048-.192,3.1h-4.16v2.752h3.872A109.48,109.48,0,0,1,73.248-.768h2.944a116.864,116.864,0,0,0,4.672-19.968ZM94.944-6.272c0,3.52-1.568,5.152-5.376,5.152-2.784,0-5.056-1.408-5.056-3.872,0-2.176,1.632-3.872,5.28-3.872a11.054,11.054,0,0,1,5.152,1.28Zm44.544-10.816c-.512-6.016-3.264-8.48-7.424-9.312v2.688c2.176.608,4.256,2.432,4.7,6.624ZM138.24-7.36c0-6.656-4.8-9.312-12.32-9.312-1.152,0-2.016.064-2.848.1V-20.8h7.9v-2.624h-7.9v-3.008h-2.816v3.008h-8.64V-20.8h8.64v4.544c-5.76.832-9.6,4.544-9.6,10.016,0,5.44,4.608,7.776,8.416,7.776,2.784,0,3.968-.96,3.968-3.52V-14.048c.832-.064,1.728-.1,2.816-.1,6.08,0,9.472,2.144,9.472,6.688,0,4.512-3.136,6.272-7.68,6.272-.768,0-1.312,0-1.984-.032V1.6h2.016C133.5,1.6,138.24-.768,138.24-7.36ZM120.384-3.008c0,1.312-.352,1.888-1.664,1.888A5.126,5.126,0,0,1,113.408-6.3c0-3.776,2.3-6.624,6.976-7.328Zm55.04-23.36h-2.688l-3.456,9.152h2.688ZM167.3-18.08a68.629,68.629,0,0,0-2.4-8.8h-2.72a81.3,81.3,0,0,1,2.464,8.8Zm-6.624.864a85.388,85.388,0,0,0-2.752-9.152h-2.656a67.192,67.192,0,0,1,2.848,9.152Zm10.88,14.752L166.72-8.48a29.3,29.3,0,0,0,3.52-7.84h-2.368a25.93,25.93,0,0,1-2.592,6.048l-3.424-4.192h-2.592l4.768,5.984a16.673,16.673,0,0,1-5.12,4.832v2.624a20.791,20.791,0,0,0,6.528-5.664l3.36,4.224Zm3.168,4.608v-18.08h-2.592V-.416H158.016V-15.9h-2.56L154.4-20.512h-1.7l1.44,6.592h1.28V2.144Zm-22.56.512V-26.912H149.6V2.656Zm-3.872-23.072h-1.76c-.032,1.824-.576,7.584-.928,9.76h1.792C147.744-12.96,148.224-18.464,148.288-20.416Zm63.264,10.368v-2.944c-.96-.32-1.952-.64-2.944-.9V-25.056h-2.816v10.432a52.834,52.834,0,0,0-8.768-1.408c.256-2.5.448-6.048.576-9.056H184.192V-22.3h10.432c-.128,1.6-.224,4.128-.384,6.144-.288,0-.576-.032-.864-.032-6.816,0-10.592,4.032-10.592,9.7,0,4.544,2.816,7.008,5.664,7.008,4.192,0,6.592-3.648,8.224-13.856a47.694,47.694,0,0,1,9.088,1.5c-.16,7.584-1.92,9.92-8.608,10.72V1.76c8.416-1.024,11.136-3.968,11.424-12.8C209.536-10.72,210.528-10.4,211.552-10.048ZM193.92-13.472c-1.28,7.9-2.752,11.04-5.472,11.04-1.44,0-3.04-1.664-3.04-4.384,0-3.808,2.72-6.688,7.616-6.688C193.344-13.5,193.632-13.472,193.92-13.472Zm53.216,5.408c0-5.7-3.808-10.3-13.5-10.3a20.78,20.78,0,0,0-3.264.256v-3.3h16.544v-2.56H230.4V-26.5h-2.912v2.528h-8.48v2.56h8.416v4c-5.536,1.888-8.7,6.336-8.7,11.52,0,5.216,3.552,7.168,6.24,7.168,2.144,0,6.592-.992,14.464-16.16a6.88,6.88,0,0,1,4.9,6.784c0,4.8-3.552,7.1-9.152,7.1h-1.376V1.792C240.256,1.792,247.136-.224,247.136-8.064Zm-10.208-7.488A62.485,62.485,0,0,1,231.1-5.888c-.736-1.984-.992-4.672-.992-9.632a18.152,18.152,0,0,1,3.36-.32A19.1,19.1,0,0,1,236.928-15.552Zm-7.808,12c-1.856,1.824-3.1,2.176-3.84,2.176-1.184,0-3.808-.992-3.808-4.672a9.247,9.247,0,0,1,6.08-8.7C227.616-8.992,227.968-5.856,229.12-3.552Zm52.192-8.832c0-7.9-4-12.608-10.784-12.608a11.571,11.571,0,0,0-10.272,6.3,66.584,66.584,0,0,1,.832-7.36H258.24A146.542,146.542,0,0,0,257.152-7.04h2.72V-8.128c0-1.12-.064-2.144-.064-3.136.992-7.2,5.344-11.04,10.464-11.04,5.248,0,8.1,3.808,8.1,9.888,0,8.32-4.64,10.912-16.48,10.912h-2.336V1.28h2.432C275.776,1.28,281.312-2.528,281.312-12.384ZM319.36-1.632V-4.768A35.892,35.892,0,0,0,310.144-8.9v-5.056h8.736V-16.48h-8.736v-4.608h8.736v-2.5h-8.736v-2.848H307.36v2.848h-16v2.5h16v4.608H291.232v2.528H307.36v4.384a40.041,40.041,0,0,0-6.08-.48c-6.784,0-9.152,2.944-9.152,5.7,0,3.776,2.72,5.952,8.736,5.952,7.712,0,9.472-2.5,9.408-6.368L310.24-6.3A41.868,41.868,0,0,1,319.36-1.632ZM307.3-5.12c0,2.912-1.472,4.224-6.048,4.224-3.936,0-6.176-1.12-6.176-3.552,0-1.44,1.5-3.328,6.24-3.328a25.4,25.4,0,0,1,5.984.736Zm48.192-12.928V-20.7H351.04v-5.44h-2.784v5.44H334.112v-5.5h-2.784v5.5h-3.872v2.656h3.872V-6.656c0,6.272,2.816,7.84,9.7,7.84,5.088,0,10.368-.48,12.9-.736V-2.368a97.57,97.57,0,0,1-12.8.864c-5.5,0-7.008-1.536-7.008-5.6V-18.048h14.144v4.928c0,2.3-.512,2.976-2.656,2.976a39.648,39.648,0,0,1-4.672-.288v2.688a47.664,47.664,0,0,0,5.184.288c3.52,0,4.928-1.248,4.928-5.088v-5.5ZM391.9-15.872h-2.976c-.64,10.528-3.1,14.176-6.752,14.176-1.76,0-2.592-.832-2.592-2.752v-8.1c0-3.008-1.152-4.608-3.648-4.608-1.984,0-4.352,1.056-6.56,3.616.864-3.392,2.56-9.568,3.424-12.672h-3.072c-2.848,10.72-5.28,20.448-6.688,27.552h3.072c.416-1.92,1.344-6.784,1.888-8.928,2.208-4.64,4.64-6.5,6.912-6.5,1.216,0,1.792.8,1.792,2.848V-3.9c0,3.52,1.824,5.152,5.216,5.152C387.456,1.248,391.3-2.56,391.9-15.872Zm36.16,13.248c0-19.1-2.208-21.312-8.1-22.368v2.784c3.584,1.056,5.248,2.752,5.248,19.584Zm-8.992-9.568c0-7.936-1.056-9.6-5.792-9.6h-5.5c.16-1.472.288-2.976.352-4.448h-2.816c-.064,1.472-.16,2.976-.288,4.448H399.68v2.784h5.056A83.751,83.751,0,0,1,399.872.9h3.04a92.174,92.174,0,0,0,4.608-19.9H412.9c2.656,0,3.36.9,3.36,7.264,0,8.736-1.12,10.144-3.968,10.144a27.824,27.824,0,0,1-4.448-.48V.768a34.088,34.088,0,0,0,4.608.448C416.992,1.216,419.072-.16,419.072-12.192ZM461.7-18.368c0-5.12-3.616-8.1-9.568-8.1h-4.672c-6.144,0-9.248,4.064-9.248,9.024v1.728h3.008V-17.44c0-3.84,2.368-6.048,6.24-6.048h4.672c4.736,0,6.592,1.952,6.592,5.12,0,2.656-1.024,3.648-6.016,5.472-3.552,1.28-4.512,3.168-4.512,8.832h3.1c0-3.968.224-5.44,3.264-6.56C459.648-12.512,461.7-14.016,461.7-18.368ZM451.552,2.272v-3.3h-3.616v3.3Z" transform="translate(48 28)" fill="#1a1a17" stroke="#1a1a17" stroke-width="1.5"/>
  </g>
</svg>
