<svg xmlns="http://www.w3.org/2000/svg" xmlns:xlink="http://www.w3.org/1999/xlink" width="571" height="30" viewBox="0 0 571 30">
  <defs>
    <clipPath id="clip-Artboard_1">
      <rect width="571" height="30"/>
    </clipPath>
  </defs>
  <g id="Artboard_1" data-name="Artboard – 1" clip-path="url(#clip-Artboard_1)">
    <path id="Path_2899" data-name="Path 2899" d="M-255.84-23.04v-4.416h-1.984v4.416Zm-3.744,0v-4.416h-1.952v4.416Zm2.5,24.608V-1.888c-1.92-1.152-3.872-2.88-5.216-7.616-.8-2.848-1.12-7.2-1.12-12.736v-3.2H-266.4v3.3c0,6.208.352,11.136,1.472,14.432C-263.168-2.464-260.832-.32-257.088,1.568Zm-19.04-23.712v-3.3H-279.1v3.2c0,5.632-.352,10.048-1.216,12.9-1.376,4.608-3.264,6.3-5.12,7.456V1.568c3.776-1.888,6.112-4.1,7.872-9.344C-276.48-11.1-276.128-15.968-276.128-22.144Zm53.76,10.464v-2.944h-25.376v2.944ZM-184.7-12.1v-2.752h-7.328v-7.2l6.656-.512v-2.688l-10.272.768H-212.8v2.72h17.568l.192-.032v6.944h-18.016V-12.1h17.984c-.256,7.68-4.512,10.272-17.12,10.56V1.312c14.72-.32,19.84-4.1,20.128-13.408ZM-150.88-15.9V-19.36l-17.344.768-.32-2.784h-2.848l.288,2.912-3.264.16v2.688l3.648-.16L-168.736,1.6h2.88l-2.112-17.5,14.208-.576v.32c0,4.192-2.528,9.088-9.28,11.328v3.04C-154.144-4.768-150.88-11.1-150.88-15.9Zm38.048-6.816h-2.784c0,15.136-2.528,20.768-11.648,20.9l.1-23.936h-2.848V1.28c1.44,0,2.688-.032,3.712-.1C-115.552.288-112.832-6.016-112.832-22.72Zm-22.112-3.04h-2.816c0,12.256-.576,21.824-1.536,27.008h2.912C-135.52-3.9-134.944-13.312-134.944-25.76ZM-75.616-13.7v-2.56h-2.72l1.28-5.12h1.344v-2.56H-80.1V-26.72h-2.592v2.784h-4.128v2.56h1.344c.416,1.536.864,3.52,1.184,5.12h-3.04v2.56h4.672v3.648h-4.032V-7.52h4.032v5.568h2.5V-7.52H-75.9v-2.528H-80.16V-13.7Zm-22.976-7.1v-2.976l-5.952-3.008v2.88ZM-87.616-2.432V-13.92h-7.072c.064-.736.128-1.568.128-2.464H-87.9v-9.472h-8.96V-18.4c0,6.24-.448,8.736-1.632,10.528v4.32c1.856-1.76,3.072-4.192,3.616-8.416v9.536Zm-10.976-11.68V-17.12l-5.952-3.008v2.848ZM-75.648,2.464V-.16h-15.2c-5.472,0-7.488-1.056-8.48-3.424v-7.808h-5.952v2.656h3.616V-2.88l-3.552,2.592v3.1l4.9-3.488c1.856,2.3,3.808,3.136,9.824,3.136ZM-79.2-21.376l-1.248,5.12h-1.824c-.32-1.6-.768-3.584-1.152-5.12ZM-89.984-18.72h-4.544v-4.8h4.544Zm.32,13.824h-3.168v-6.656h3.168ZM-39.52,2.016V-.608h-4.736v-4.7h4.16V-7.68h-4.16v-4.544h4.16V-14.56h-4.16v-4.416h4.736v-2.5H-44l2.144-5.312h-2.336l-2.176,5.312h-3.584a24.962,24.962,0,0,0,2.112-5.44h-2.5a26.274,26.274,0,0,1-3.616,7.648V-15.3a17.2,17.2,0,0,0,1.12-1.44L-52.9-15.1V2.016ZM-53.44-22.368v-2.208H-56.7v-2.432h-2.4v2.432h-4.064v-2.432h-2.368v2.432h-3.552v2.208h3.552v2.5H-68.1v6.88h5.6v2.176h-6.08V-8.9h6.08a15.6,15.6,0,0,1-.224,2.24h-6.272v2.048h5.7A7.652,7.652,0,0,1-68.768,0V2.592a10.659,10.659,0,0,0,7.552-5.92A12.711,12.711,0,0,0-54.4,1.888V-.64a9.714,9.714,0,0,1-5.12-3.968h5.44V-6.656h-6.176a16.084,16.084,0,0,0,.224-2.24H-54.4v-1.92h-5.632v-2.176H-54.5v-6.88H-56.7v-2.5ZM-46.5-14.56h-3.968v-4.416H-46.5Zm0,6.88h-3.968v-4.544H-46.5ZM-59.1-19.872h-4.064v-2.5H-59.1Zm2.56,5.088h-3.584v-3.232h3.584ZM-46.5-.608h-3.968v-4.7H-46.5ZM-62.24-14.784h-3.712v-3.232h3.712ZM-3.808,2.784V-26.784H-6.272V2.784ZM-9.76-.1V-25.888H-12V-.1ZM-21.088-24.16V-26.4H-32v2.24Zm.928,4.928v-2.5H-32.992v2.5Zm4.768,4.192V-26.464h-2.432V-15.04c0,9.056-1.152,14.048-3.392,17.568h2.848C-16.416-.992-15.392-6.432-15.392-15.04Zm-5.7.32v-2.016H-32v2.016Zm0,4.48v-1.952H-32v1.952ZM-21.12,1.888v-9.44H-32.288v9.44ZM-23.456-.32h-6.336V-5.376h6.336ZM32.9,1.824V-1.184a20.253,20.253,0,0,1-7.072-6.528H31.84v-11.9h-7.2v-2.5h8.224v-2.4H24.64v-2.5H22.016v2.5H14.4v2.4h7.616v2.5H15.392v11.9h5.44A20.55,20.55,0,0,1,14.5-1.5l-.736-7.36H12.032L12.8-.7h.864V1.952a22.227,22.227,0,0,0,8.352-7.328v8H24.64V-5.5A21.652,21.652,0,0,0,32.9,1.824ZM14.752-9.632l-1.76-7.648H11.264l.8,3.84c-1.12.128-2.656.256-4.192.288L14.016-24.16H11.584l-2.3,3.968H6.3l4-6.752H7.9L4.064-20.48v2.656H7.9L5.216-13.088H3.264V-10.5H5.6c.864,0,1.76-.032,2.624-.1V2.624h2.3V-10.784c.8-.064,1.5-.16,2.08-.256l.32,1.408Zm-8.288.768H4.576A83.533,83.533,0,0,1,3.264,1.792H5.216A75.815,75.815,0,0,0,6.464-8.864ZM29.472-14.72h-4.96v-2.912h4.96Zm0,4.96h-4.96v-3.232h4.96Zm-7.328-4.96H17.5v-2.912h4.64Zm0,4.96H17.5v-3.232h4.64Zm45.408-13.6v-4.128H65.6v4.128Zm-3.968,0v-4.128H61.632v4.128Zm4.96,20.608c0-12.416-.7-16.48-2.368-19.008H63.008C64.9-19.744,65.7-16,65.7-2.752Zm-8.992-9.44c0-7.936-1.056-9.6-5.792-9.6h-5.5c.16-1.5.288-2.976.352-4.448H45.792c-.064,1.472-.16,2.944-.288,4.448H40.16v2.752h5.056A83.626,83.626,0,0,1,40.352.9h3.04A92.024,92.024,0,0,0,48-19.04h5.376c2.656,0,3.36.928,3.36,7.3,0,8.736-1.12,10.144-3.968,10.144a24.341,24.341,0,0,1-4.448-.512V.768a34.088,34.088,0,0,0,4.608.448C57.472,1.216,59.552-.16,59.552-12.192Zm45.408-6.656v-.832h-2.3v.384c0,1.152-.576,1.344-1.792,1.344H97.408c-.576,0-.736-.192-.736-.672v-2.112h6.976v-5.536h-9.44v1.92h6.944v1.92H94.3v4.224c0,1.472.736,2.144,2.272,2.144h4.864C103.68-16.064,104.96-16.672,104.96-18.848Zm-11.616,0v-.832H91.168v.384c0,1.152-.544,1.344-1.76,1.344H86.656c-.512,0-.736-.192-.736-.672v-2.112h6.56v-5.536H83.36v1.92h6.752v1.92h-6.5v4.224c0,1.472.7,2.144,2.24,2.144h3.968C92.064-16.064,93.344-16.672,93.344-18.848Zm-11.2-.192V-22.4l-5.76-4.416v3.232Zm23.04,21.376V-.256H90.336A14.194,14.194,0,0,1,84.288-1.28a27.224,27.224,0,0,0,8-2.816V-6.528h3.1V-4.1a26.439,26.439,0,0,0,8.96,3.072v-2.56A25.249,25.249,0,0,1,95.68-6.528H104.9V-8.672h-5.76v-2.88h5.216v-2.08H99.136v-1.76h-2.56v1.76H91.008v-1.76H88.416v1.76H83.968v2.08h4.448v2.88H83.3v2.144h8.736a24.257,24.257,0,0,1-8,2.784v2.336A4.576,4.576,0,0,1,81.76-4V-14.208H75.552v2.688h3.616v8.288L75.648-.288V2.784l5.12-3.872c1.568,2.112,3.712,3.424,9.92,3.424ZM96.576-8.672H91.008v-2.88h5.568Zm45.152-14.464v-4.448h-1.952v4.448Zm-3.712,0v-4.448h-1.952v4.448Zm3.36,20.512V-6.112A40.212,40.212,0,0,0,135.744-9.7l-.352-9.28h4.544V-21.7h-5.472l-.192-4.992h-1.888l.16,4.992H120.992v2.72H132.64l.288,8a17.962,17.962,0,0,0-4.7-.672c-4.672,0-7.36,2.688-7.36,6.624,0,3.552,2.56,6.336,7.424,6.336,5.536,0,7.84-2.56,7.84-6.944v-.9A45.557,45.557,0,0,1,141.376-2.624ZM117.312.96a80.717,80.717,0,0,1-1.088-13.6,122.747,122.747,0,0,1,.768-13.376h-2.848a116.99,116.99,0,0,0-.8,13.376A82.047,82.047,0,0,0,114.4.96ZM133.28-5.76c0,3.072-1.408,4.448-5.152,4.448-2.912,0-4.512-1.792-4.512-3.744,0-2.432,1.792-4,4.544-4a11.472,11.472,0,0,1,5.088,1.216l.032,1.856Zm44.64,4.384v-3.36c-2.08,1.344-3.552,2.176-4.512,2.176-.672,0-.928-.16-.928-1.664,0-3.424.48-9.5.48-14.336,0-4.128-1.376-6.464-5.44-6.464-3.9,0-7.488,3.488-10.688,7.616.032-3.52.064-6.688.32-8.928H154.3c-.1,1.12-.16,2.688-.192,4.48h-5.568V-19.1h5.5c0,1.5,0,3.168-.032,4.768-1.92,2.752-3.488,4.928-5.344,7.392v4c2.176-2.752,4.064-5.408,5.344-7.136V1.44h2.816V-13.152c3.84-5.472,6.976-8.832,10.272-8.832,2.176,0,2.88,1.472,2.88,4.288,0,4.576-.48,11.36-.48,15.168,0,2.272.9,3.168,2.72,3.168A12.276,12.276,0,0,0,177.92-1.376ZM212.768-8.9c0-4.992-3.68-8.256-9.792-8.256a21.789,21.789,0,0,0-5.888.992l2.112-.96,9.632-5.728v-2.464H186.848v2.752l16.512-.1L184.928-11.232v3.616l5.248-3.488a20.149,20.149,0,0,1,11.52-3.68c5.216,0,7.936,2.56,7.936,5.952,0,3.616-1.952,6.976-7.552,7.84a6.3,6.3,0,0,0,.352-2.08c0-3.424-2.368-5.92-6.784-5.92-4.736,0-6.56,2.88-6.56,5.088,0,3.872,3.712,5.632,9.952,5.632C209.216,1.728,212.768-3.456,212.768-8.9ZM199.84-2.528a3.193,3.193,0,0,1-.416,1.76,3.675,3.675,0,0,1-.608.032c-4.192,0-7.168-.608-7.168-3.232,0-.928.736-2.816,3.776-2.816C197.952-6.784,199.84-5.344,199.84-2.528Zm49.952,4.576V-.576h-8.7V-4.8h8.1V-7.136h-8.1v-3.68H248.8v-15.36H231.008v15.36h7.52v3.68h-7.776V-4.8h7.776V-.576h-9.44V2.048ZM230.3-2.336V-5.184a26.732,26.732,0,0,1-3.552,1.312v-8.352h2.88v-2.592h-2.88v-8.1h3.168v-2.624h-9.536v2.624h3.68v8.1H220.64v2.592h3.424v9.152c-1.44.384-2.848.736-3.872.96V.608A76.3,76.3,0,0,0,230.3-2.336Zm16.128-17.28H240.96v-4.128h5.472Zm0,6.432H240.96v-4.288h5.472Zm-7.776-6.432h-5.344v-4.128h5.344Zm0,6.432h-5.344v-4.288h5.344ZM284.928,2.048V-22.624h-12.32v-4.352H269.76v4.352H257.408V2.048Zm-2.88-13.728h-9.44v-8.256h9.44Zm0,11.04h-9.44V-9.12h9.44ZM269.76-11.68h-9.5v-8.256h9.5Zm0,11.04h-9.5V-9.12h9.5Z" transform="translate(286 28)" fill="#1a1a17" stroke="#1a1a17" stroke-width="1.5"/>
  </g>
</svg>
