<svg xmlns="http://www.w3.org/2000/svg" width="254" height="16.162" viewBox="0 0 254 16.162">
  <g id="Group_272" data-name="Group 272" transform="translate(-14584 -4191.932)">
    <path id="Path_2917" data-name="Path 2917" d="M-46.848,1.312V-.016c-2.768-.256-4.96-1.376-6.1-3.216h5.968V-4.448h-6.736A8.06,8.06,0,0,0-53.536-5.9h5.328V-6.976H-53.52v-1.36h5.072v-.432h1.328v-3.584H-53.5v-1.136h-1.472v1.136h-6.352v3.584h1.36v.432h4.992v1.36h-5.312V-5.9h5.3a6.682,6.682,0,0,1-.192,1.456h-6.352v1.216h5.92C-56.688-1.184-58.928-.256-61.664.016v1.3c3.36-.3,6.192-1.632,7.44-4.24C-52.864-.448-50.272,1.024-46.848,1.312ZM-48.48-9.456h-5.04v-1.232h-1.456v1.232h-4.976v-1.68H-48.48ZM-28.8-7.84v-.976h-4.064v-.992h3.44v-.784h-3.44v-.944h3.808v-.976h-3.808v-1.024h-1.3v1.024h-3.632v.976h3.632v.944h-3.328v.784h3.328v.992h-4.048v.976Zm.032,9.152V.16a8.5,8.5,0,0,1-3.888-1.312h3.168V-7.088h-7.744v5.936h2.816A8.441,8.441,0,0,1-38.32.16V1.312A8.806,8.806,0,0,0-34.4.032V-1.152h1.728V.032A8.738,8.738,0,0,0-28.768,1.312Zm-8.96-6.128-.9-3.824h-.9l.416,1.9c-.576.08-1.328.128-2.112.16l3.1-5.5H-39.36L-40.512-10.1h-1.52l2-3.376h-1.216l-1.92,3.232v1.328h1.952L-42.56-6.544h-1.008v1.3h1.184q.648,0,1.3-.048V1.3h1.152V-5.392c.416-.032.784-.08,1.1-.128l.16.7ZM-37.952.112l-.336-4.544h-.88l.336,4.544Zm-4.016-4.544h-.944A41.767,41.767,0,0,1-43.568.9h.976A37.908,37.908,0,0,0-41.968-4.432Zm11.2-.912h-5.2v-.88h5.2Zm0,1.6h-5.2v-.832h5.2Zm0,1.7h-5.2V-2.96h5.2ZM-17.04-5.04v-1.9h-2.1v1.9ZM7.392,1.312V-.016C4.624-.272,2.432-1.392,1.3-3.232H7.264V-4.448H.528A8.06,8.06,0,0,0,.7-5.9H6.032V-6.976H.72v-1.36H5.792v-.432H7.12v-3.584H.736v-1.136H-.736v1.136H-7.088v3.584h1.36v.432H-.736v1.36H-6.048V-5.9h5.3A6.682,6.682,0,0,1-.944-4.448H-7.3v1.216h5.92C-2.448-1.184-4.688-.256-7.424.016v1.3c3.36-.3,6.192-1.632,7.44-4.24C1.376-.448,3.968,1.024,7.392,1.312ZM5.76-9.456H.72v-1.232H-.736v1.232H-5.712v-1.68H5.76ZM25.248-.3V-13.44H24V-.768c0,.432-.112.64-.56.64H21.3v1.36h2.416C24.864,1.232,25.248.8,25.248-.3ZM22.432-2.416V-12.544H21.216V-2.416Zm-1.76-9.36v-1.36H15.024v1.36h1.424a12.554,12.554,0,0,1-2.368,6.1v1.936a8.089,8.089,0,0,0,1.728-2.128l2.016,2.16a7.731,7.731,0,0,1-3.36,3.488V1.328c3.424-1.5,5.3-4.816,5.888-9.664V-9.664H17.328a16.346,16.346,0,0,0,.4-2.112Zm-6.064-1.712H13.264A13.328,13.328,0,0,1,10.592-7.3v2.048a12.7,12.7,0,0,0,1.584-1.888l-.064.864V1.312h1.28V-9.328A16.24,16.24,0,0,0,14.608-13.488Zm4.576,5.136a16.145,16.145,0,0,1-.848,3.488L16.32-6.832a10.716,10.716,0,0,0,.592-1.52Zm24.192-4.9H35.3v1.328h2.928a5.69,5.69,0,0,1-2.88,4.352v1.44c2.288-.928,3.68-3.072,4.16-5.792H42.1a26.471,26.471,0,0,1-.16,3.024c-.112.848-.4.928-1.216.928H39.312V-6.64H40.88c1.456,0,2.144-.208,2.336-1.84C43.344-9.648,43.376-11.584,43.376-13.248ZM43.136.912V-5.6H35.76V.912Zm-7.7-5.584-.9-3.968h-.976L34-6.736c-.672.08-1.584.128-2.448.16l3.152-5.5h-1.3L32.24-10.1H30.432l2.048-3.376H31.216L29.248-10.24v1.328H31.52L30.128-6.544H28.752v1.3h1.232c.48,0,1.04-.016,1.632-.048V1.312h1.216V-5.376c.544-.048,1.056-.1,1.44-.144l.208.848ZM35.04.112,34.7-4.432h-.912L34.128.112ZM30.592-4.432H29.6A40.826,40.826,0,0,1,28.864.9h1.024A34.847,34.847,0,0,0,30.592-4.432ZM41.808-.416h-4.72v-3.92h4.72ZM61.616-7.584v-1.5a13.075,13.075,0,0,1-6.544-4.48h-1.7a13.075,13.075,0,0,1-6.544,4.48v1.5a15.6,15.6,0,0,0,7.392-4.864A15.6,15.6,0,0,0,61.616-7.584Zm-3.7,8.768V-8.208H56.464V1.184Zm-6-7.408V-8.208H50.512v1.936c0,3.68-.864,5.2-3.12,6V1.2C50.736.1,51.92-1.952,51.92-6.224Z" transform="translate(14711 4206)" fill="#1a1a17" stroke="#1a1a17" stroke-width="1"/>
    <g id="Group_262" data-name="Group 262" transform="translate(-11.563 3467.5)">
      <path id="Path_26" data-name="Path 26" d="M9.724,0,0,15H6.592l9.73-15Z" transform="translate(14794.563 724.5)" fill="#1a1a17"/>
      <path id="Path_27" data-name="Path 27" d="M9.724,0,0,15H6.592l9.73-15Z" transform="translate(14807.454 724.5)" fill="#1a1a17"/>
      <path id="Path_28" data-name="Path 28" d="M9.724,0,0,15H6.592l9.73-15Z" transform="translate(14820.349 724.5)" fill="#1a1a17"/>
      <path id="Path_29" data-name="Path 29" d="M9.724,0,0,15H6.592l9.73-15Z" transform="translate(14833.239 724.5)" fill="#1a1a17"/>
    </g>
    <g id="Group_263" data-name="Group 263" transform="translate(-210.563 3467.5)">
      <path id="Path_26-2" data-name="Path 26" d="M9.724,0,0,15H6.592l9.73-15Z" transform="translate(14794.563 724.5)" fill="#1a1a17"/>
      <path id="Path_27-2" data-name="Path 27" d="M9.724,0,0,15H6.592l9.73-15Z" transform="translate(14807.454 724.5)" fill="#1a1a17"/>
      <path id="Path_28-2" data-name="Path 28" d="M9.724,0,0,15H6.592l9.73-15Z" transform="translate(14820.349 724.5)" fill="#1a1a17"/>
      <path id="Path_29-2" data-name="Path 29" d="M9.724,0,0,15H6.592l9.73-15Z" transform="translate(14833.239 724.5)" fill="#1a1a17"/>
    </g>
  </g>
</svg>
