<svg xmlns="http://www.w3.org/2000/svg" xmlns:xlink="http://www.w3.org/1999/xlink" width="570" height="30" viewBox="0 0 570 30">
  <defs>
    <clipPath id="clip-Artboard_3">
      <rect width="570" height="30"/>
    </clipPath>
  </defs>
  <g id="Artboard_3" data-name="Artboard – 3" clip-path="url(#clip-Artboard_3)">
    <path id="Path_2902" data-name="Path 2902" d="M-93.728-22.848v-1.984H-99.68l.96-2.112h-2.752l-.96,2.112h-4.992c-.32-.736-.64-1.472-.992-2.112H-111.2a17.846,17.846,0,0,1,.96,2.112h-5.408v1.984h9.12l-.64,1.7h-6.72v10.368h18.432V-21.152h-8.96l.672-1.7Zm-23.008,2.624v-2.752L-122.3-26.56v2.72ZM-93.7-7.264v-2.08h-14.56c-5.6,0-7.648-.96-8.416-3.136v-6.4h-6.656v2.464h4.192v4.256l-4.1,2.624v2.784l5.312-3.3c1.664,2.016,3.808,2.784,10.016,2.784h5.952v1.6H-123.3v2.3h21.344V-.416c0,.8-.256.832-1.248.832h-5.44v2.24h6.08c2.56,0,3.456-.48,3.456-2.592V-3.36h5.376v-2.3H-99.1v-1.6Zm-17.44,8.928a30.867,30.867,0,0,0-2.592-4.256h-3.04a25.919,25.919,0,0,1,2.528,4.256Zm13.088-19.84h-13.216v-1.568h13.216Zm0,2.912h-13.216V-16.9h13.216Zm0,2.976h-13.216v-1.728h13.216ZM-57.5,2.4V-1.088C-61.632-3.36-70.272-11.136-70.272-26.272H-82.464v2.848h8.7C-74.784-13.152-80.544-3.9-87.2-.928V2.4C-80.192-.416-74.432-8.224-72.064-17.664-69.536-6.592-62.368.32-57.5,2.4ZM-22.08-1.632V-4.768A35.893,35.893,0,0,0-31.3-8.9v-5.056h8.736V-16.48H-31.3v-4.608h8.736v-2.5H-31.3v-2.848H-34.08v2.848h-16v2.5h16v4.608H-50.208v2.528H-34.08v4.384a40.042,40.042,0,0,0-6.08-.48c-6.784,0-9.152,2.944-9.152,5.7,0,3.776,2.72,5.952,8.736,5.952,7.712,0,9.472-2.5,9.408-6.368L-31.2-6.3A41.869,41.869,0,0,1-22.08-1.632ZM-34.144-5.12c0,2.912-1.472,4.224-6.048,4.224-3.936,0-6.176-1.12-6.176-3.552,0-1.44,1.5-3.328,6.24-3.328a25.4,25.4,0,0,1,5.984.736Zm48.032-9.664V-19.2H11.936v4.416Zm-3.712,0V-19.2H8.224v4.416ZM13.792-21.6v-2.592H-13.76v2.784H1.216L4.864-21.7c-8.256,1.5-14.4,6.528-14.4,12.192C-9.536-2.848-4.1.9,6.048.928A34.623,34.623,0,0,0,12.16.416V-2.368a34.7,34.7,0,0,1-6.112.544c-8.384,0-12.576-2.976-12.576-7.84C-6.528-15.584,1.92-20.864,13.792-21.6Zm36.576,9.728c0-8.544-4.8-14.048-13.824-14.048-8.768,0-14.624,6.3-14.624,15.008,0,8.1,4.128,11.136,7.168,11.136,5.152,0,7.392-6.688,9.024-23.52,5.856.512,9.408,4.288,9.408,11.424C47.52-5.7,43.392-1.536,37.152-1.12V1.7C45.728.96,50.368-4.64,50.368-11.872ZM35.3-23.3C33.984-8.128,32.032-2.688,29.088-2.688c-1.92,0-4.48-2.592-4.48-8.256C24.608-17.536,28.576-22.688,35.3-23.3Zm51.584,1.44v-2.528H77.344V-27.1H74.528v2.72H65.536v2.528H72.32L69.376-15.9c-1.472.064-2.784.128-3.744.128v2.592c4.032-.16,12.832-.7,17.28-1.088a18.256,18.256,0,0,1,.832,2.048h2.912a69.107,69.107,0,0,0-4.1-8.288H79.712c.64,1.024,1.44,2.464,2.144,3.9-2.592.224-6.144.416-9.44.576l2.88-5.824Zm.1,21.888V-4.256H84.9V-.864c0,.64-.352.832-.864.832H82.688c-.544,0-.64-.192-.64-.7V-11.872h-2.4V.1c0,1.824.512,2.368,2.016,2.368h2.784A2.234,2.234,0,0,0,86.976.032ZM64.192-20.512v-3.072l-6.432-3.2v2.912ZM76.224,2.336V-11.872h-2.4V2.336ZM64.192-12.48v-3.008L57.76-18.752v2.976Zm6.528.608H68.288c0,8.032-2.016,10.72-4.8,11.776V2.656C67.936,1.376,70.72-2.208,70.72-11.872ZM64.288-9.5h-2.72a49.832,49.832,0,0,1-4.16,11.648h2.944A46.355,46.355,0,0,0,64.288-9.5ZM123.68-1.376v-3.36c-2.08,1.344-3.552,2.176-4.512,2.176-.672,0-.928-.16-.928-1.664,0-3.424.48-9.5.48-14.336,0-4.128-1.376-6.464-5.44-6.464-3.9,0-7.488,3.488-10.688,7.616.032-3.52.064-6.688.32-8.928h-2.848c-.1,1.12-.16,2.688-.192,4.48H94.3V-19.1h5.5c0,1.5,0,3.168-.032,4.768-1.92,2.752-3.488,4.928-5.344,7.392v4C96.608-5.7,98.5-8.352,99.776-10.08V1.44h2.816V-13.152c3.84-5.472,6.976-8.832,10.272-8.832,2.176,0,2.88,1.472,2.88,4.288,0,4.576-.48,11.36-.48,15.168,0,2.272.9,3.168,2.72,3.168A12.276,12.276,0,0,0,123.68-1.376Z" transform="translate(285 28)" fill="#1a1a17" stroke="#1a1a17" stroke-width="1.5"/>
  </g>
</svg>
