<svg xmlns="http://www.w3.org/2000/svg" width="308" height="40.641" viewBox="0 0 308 40.641">
  <g id="Group_270" data-name="Group 270" transform="translate(-14557 -2495.756)">
    <path id="Path_2919" data-name="Path 2919" d="M-73.68-11.52v-2.208h-.992v2.208Zm-1.872,0v-2.208h-.976v2.208ZM-74.3.784V-.944a5.676,5.676,0,0,1-2.608-3.808,25.873,25.873,0,0,1-.56-6.368v-1.6H-78.96v1.648a24.5,24.5,0,0,0,.736,7.216A6.984,6.984,0,0,0-74.3.784Zm-9.52-11.856V-12.72h-1.488v1.6a24.439,24.439,0,0,1-.608,6.448A5.773,5.773,0,0,1-88.48-.944V.784a7.023,7.023,0,0,0,3.936-4.672A25.054,25.054,0,0,0-83.824-11.072Zm26.88,5.232V-7.312H-69.632V-5.84Zm18.832-.208V-7.424h-3.664v-3.6l3.328-.256v-1.344l-5.136.384H-52.16v1.36h8.784l.1-.016v3.472h-9.008v1.376H-43.3c-.128,3.84-2.256,5.136-8.56,5.28V.656c7.36-.16,9.92-2.048,10.064-6.7Zm16.912-1.9V-9.68l-8.672.384-.16-1.392h-1.424l.144,1.456-1.632.08v1.344l1.824-.08L-30.128.8h1.44l-1.056-8.752,7.1-.288v.16c0,2.1-1.264,4.544-4.64,5.664V-.9C-22.832-2.384-21.2-5.552-21.2-7.952ZM-2.176-11.36H-3.568c0,7.568-1.264,10.384-5.824,10.448l.048-11.968h-1.424V.64c.72,0,1.344-.016,1.856-.048C-3.536.144-2.176-3.008-2.176-11.36Zm-11.056-1.52H-14.64a86.434,86.434,0,0,1-.768,13.5h1.456A93.638,93.638,0,0,0-13.232-12.88ZM16.432-6.848v-1.28h-1.36l.64-2.56h.672v-1.28H14.192V-13.36H12.9v1.392H10.832v1.28H11.5c.208.768.432,1.76.592,2.56h-1.52v1.28h2.336v1.824H10.9V-3.76h2.016V-.976H14.16V-3.76h2.128V-5.024H14.16V-6.848ZM4.944-10.4v-1.488l-2.976-1.5v1.44Zm5.488,9.184V-6.96H6.9c.032-.368.064-.784.064-1.232h3.328v-4.736H5.808V-9.2c0,3.12-.224,4.368-.816,5.264v2.16A6.5,6.5,0,0,0,6.8-5.984v4.768ZM4.944-7.056v-1.5l-2.976-1.5V-8.64ZM16.416,1.232V-.08h-7.6c-2.736,0-3.744-.528-4.24-1.712V-5.7H1.6v1.328H3.408V-1.44L1.632-.144V1.408L4.08-.336c.928,1.152,1.9,1.568,4.912,1.568ZM14.64-10.688l-.624,2.56H13.1c-.16-.8-.384-1.792-.576-2.56ZM9.248-9.36H6.976v-2.4H9.248Zm.16,6.912H7.824V-5.776H9.408ZM34.48,1.008V-.3H32.112V-2.656h2.08V-3.84h-2.08V-6.112h2.08V-7.28h-2.08V-9.488H34.48v-1.248H32.24l1.072-2.656H32.144l-1.088,2.656H29.264a12.481,12.481,0,0,0,1.056-2.72H29.072a13.137,13.137,0,0,1-1.808,3.824v1.984a8.6,8.6,0,0,0,.56-.72l-.032.816v8.56ZM27.52-11.184v-1.1H25.888V-13.5h-1.2v1.216H22.656V-13.5H21.472v1.216H19.7v1.1h1.776v1.248h-1.28V-6.5h2.8v1.088h-3.04v.96h3.04a7.8,7.8,0,0,1-.112,1.12H19.744V-2.3h2.848A3.826,3.826,0,0,1,19.856,0V1.3a5.33,5.33,0,0,0,3.776-2.96A6.356,6.356,0,0,0,27.04.944V-.32A4.857,4.857,0,0,1,24.48-2.3H27.2V-3.328H24.112a8.042,8.042,0,0,0,.112-1.12H27.04v-.96H24.224V-6.5h2.768v-3.44h-1.1v-1.248Zm3.472,3.9H29.008V-9.488h1.984Zm0,3.44H29.008V-6.112h1.984Zm-6.3-6.1H22.656v-1.248h2.032Zm1.28,2.544H24.176V-9.008h1.792ZM30.992-.3H29.008V-2.656h1.984ZM23.12-7.392H21.264V-9.008H23.12ZM52.336,1.392V-13.392H51.1V1.392ZM49.36-.048v-12.9H48.24v12.9ZM43.7-12.08V-13.2H38.24v1.12Zm.464,2.464v-1.248H37.744v1.248Zm2.384,2.1v-5.712H45.328V-7.52c0,4.528-.576,7.024-1.7,8.784h1.424C46.032-.5,46.544-3.216,46.544-7.52ZM43.7-7.36V-8.368H38.24V-7.36Zm0,2.24V-6.1H38.24v.976ZM43.68.944v-4.72H38.1V.944ZM42.512-.16H39.344V-2.688h3.168ZM70.688.912v-1.5a10.127,10.127,0,0,1-3.536-3.264H70.16V-9.808h-3.6v-1.248h4.112v-1.2H66.56V-13.5H65.248v1.248H61.44v1.2h3.808v1.248H61.936v5.952h2.72a10.275,10.275,0,0,1-3.168,3.1l-.368-3.68h-.864l.384,4.08h.432V.976a11.113,11.113,0,0,0,4.176-3.664v4H66.56V-2.752A10.826,10.826,0,0,0,70.688.912ZM61.616-4.816l-.88-3.824h-.864l.4,1.92c-.56.064-1.328.128-2.1.144l3.072-5.5H60.032L58.88-10.1H57.392l2-3.376h-1.2l-1.92,3.232v1.328h1.92L56.848-6.544h-.976v1.3H57.04c.432,0,.88-.016,1.312-.048V1.312H59.5v-6.7c.4-.032.752-.08,1.04-.128l.16.7Zm-4.144.384h-.944A41.767,41.767,0,0,1,55.872.9h.976A37.908,37.908,0,0,0,57.472-4.432Zm11.5-2.928H66.5V-8.816h2.48Zm0,2.48H66.5V-6.5h2.48ZM65.312-7.36h-2.32V-8.816h2.32Zm0,2.48h-2.32V-6.5h2.32Zm22.7-6.8v-2.064H87.04v2.064Zm-1.984,0v-2.064h-.976v2.064Zm2.48,10.3c0-6.208-.352-8.24-1.184-9.5H85.744c.944,1.008,1.344,2.88,1.344,9.5Zm-4.5-4.72c0-3.968-.528-4.8-2.9-4.8H78.368c.08-.752.144-1.488.176-2.224H77.136c-.032.736-.08,1.472-.144,2.224H74.32V-9.52h2.528A41.813,41.813,0,0,1,74.416.448h1.52a46.012,46.012,0,0,0,2.3-9.968h2.688c1.328,0,1.68.464,1.68,3.648,0,4.368-.56,5.072-1.984,5.072A12.17,12.17,0,0,1,78.4-1.056V.384a17.044,17.044,0,0,0,2.3.224C82.976.608,84.016-.08,84.016-6.1ZM-37.92,14.576V14.16h-1.152v.192c0,.576-.288.672-.9.672H-41.7c-.288,0-.368-.1-.368-.336V13.632h3.488V10.864H-43.3v.96h3.472v.96h-3.424V14.9c0,.736.368,1.072,1.136,1.072h2.432C-38.56,15.968-37.92,15.664-37.92,14.576Zm-5.808,0V14.16h-1.088v.192c0,.576-.272.672-.88.672h-1.376c-.256,0-.368-.1-.368-.336V13.632h3.28V10.864h-4.56v.96h3.376v.96h-3.248V14.9c0,.736.352,1.072,1.12,1.072h1.984C-44.368,15.968-43.728,15.664-43.728,14.576Zm-5.6-.1V12.8l-2.88-2.208v1.616Zm11.52,10.688v-1.3h-7.424a7.1,7.1,0,0,1-3.024-.512,13.612,13.612,0,0,0,4-1.408V20.736H-42.7v1.216a13.22,13.22,0,0,0,4.48,1.536v-1.28a12.624,12.624,0,0,1-4.336-1.472h4.608V19.664h-2.88v-1.44h2.608v-1.04h-2.608V16.3h-1.28v.88H-44.9V16.3h-1.3v.88h-2.224v1.04h2.224v1.44h-2.56v1.072h4.368a12.129,12.129,0,0,1-4,1.392V23.3A2.288,2.288,0,0,1-49.52,22V16.9h-3.1V18.24h1.808v4.144l-1.76,1.472v1.536l2.56-1.936c.784,1.056,1.856,1.712,4.96,1.712Zm-4.3-5.5H-44.9v-1.44h2.784Zm22.576-7.232V10.208h-.976v2.224Zm-1.856,0V10.208h-.976v2.224Zm1.68,10.256V20.944a20.106,20.106,0,0,0-2.816-1.792l-.176-4.64h2.272v-1.36h-2.736l-.1-2.5h-.944l.08,2.5H-29.9v1.36h5.824l.144,4a8.981,8.981,0,0,0-2.352-.336c-2.336,0-3.68,1.344-3.68,3.312,0,1.776,1.28,3.168,3.712,3.168,2.768,0,3.92-1.28,3.92-3.472v-.448A22.779,22.779,0,0,1-19.712,22.688ZM-31.744,24.48a40.358,40.358,0,0,1-.544-6.8,61.374,61.374,0,0,1,.384-6.688h-1.424a58.5,58.5,0,0,0-.4,6.688,41.023,41.023,0,0,0,.528,6.8Zm7.984-3.36c0,1.536-.7,2.224-2.576,2.224a2,2,0,0,1-2.256-1.872,2.014,2.014,0,0,1,2.272-2,5.736,5.736,0,0,1,2.544.608l.016.928Zm22.32,2.192v-1.68A5.524,5.524,0,0,1-3.7,22.72c-.336,0-.464-.08-.464-.832,0-1.712.24-4.752.24-7.168,0-2.064-.688-3.232-2.72-3.232-1.952,0-3.744,1.744-5.344,3.808.016-1.76.032-3.344.16-4.464h-1.424c-.048.56-.08,1.344-.1,2.24h-2.784v1.376h2.752c0,.752,0,1.584-.016,2.384-.96,1.376-1.744,2.464-2.672,3.7v2c1.088-1.376,2.032-2.7,2.672-3.568v5.76h1.408v-7.3c1.92-2.736,3.488-4.416,5.136-4.416,1.088,0,1.44.736,1.44,2.144,0,2.288-.24,5.68-.24,7.584,0,1.136.448,1.584,1.36,1.584A6.138,6.138,0,0,0-1.44,23.312Zm17.424-3.76c0-2.5-1.84-4.128-4.9-4.128a10.894,10.894,0,0,0-2.944.5L9.2,15.44l4.816-2.864V11.344H3.024V12.72l8.256-.048L2.064,18.384v1.808l2.624-1.744a10.074,10.074,0,0,1,5.76-1.84c2.608,0,3.968,1.28,3.968,2.976,0,1.808-.976,3.488-3.776,3.92a3.152,3.152,0,0,0,.176-1.04c0-1.712-1.184-2.96-3.392-2.96-2.368,0-3.28,1.44-3.28,2.544,0,1.936,1.856,2.816,4.976,2.816C14.208,24.864,15.984,22.272,15.984,19.552ZM9.52,22.736a1.6,1.6,0,0,1-.208.88,1.837,1.837,0,0,1-.3.016c-2.1,0-3.584-.3-3.584-1.616,0-.464.368-1.408,1.888-1.408A2.012,2.012,0,0,1,9.52,22.736ZM34.5,25.024V23.712H30.144V21.6h4.048V20.432H30.144v-1.84H34v-7.68H25.1v7.68h3.76v1.84H24.976V21.6h3.888v2.112h-4.72v1.312Zm-9.744-2.192V21.408a13.366,13.366,0,0,1-1.776.656V17.888h1.44v-1.3h-1.44V12.544H24.56V11.232H19.792v1.312h1.84v4.048H19.92v1.3h1.712v4.576c-.72.192-1.424.368-1.936.48V24.3A38.148,38.148,0,0,0,24.752,22.832Zm8.064-8.64H30.08V12.128h2.736Zm0,3.216H30.08V15.264h2.736Zm-3.888-3.216H26.256V12.128h2.672Zm0,3.216H26.256V15.264h2.672Zm23.136,7.616V12.688H45.9V10.512H44.48v2.176H38.3V25.024Zm-1.44-6.864H45.9V14.032h4.72Zm0,5.52H45.9V19.44h4.72ZM44.48,18.16H39.728V14.032H44.48Zm0,5.52H39.728V19.44H44.48Z" transform="translate(14711 2510)" fill="#1a1a17" stroke="#1a1a17" stroke-width="1"/>
    <g id="Group_259" data-name="Group 259" transform="translate(15.438 1796.5)">
      <path id="Path_26" data-name="Path 26" d="M9.724,0,0,15H6.592l9.73-15Z" transform="translate(14794.563 724.5)" fill="#1a1a17"/>
      <path id="Path_27" data-name="Path 27" d="M9.724,0,0,15H6.592l9.73-15Z" transform="translate(14807.454 724.5)" fill="#1a1a17"/>
      <path id="Path_28" data-name="Path 28" d="M9.724,0,0,15H6.592l9.73-15Z" transform="translate(14820.349 724.5)" fill="#1a1a17"/>
      <path id="Path_29" data-name="Path 29" d="M9.724,0,0,15H6.592l9.73-15Z" transform="translate(14833.239 724.5)" fill="#1a1a17"/>
    </g>
    <g id="Group_258" data-name="Group 258" transform="translate(-237.563 1796.5)">
      <path id="Path_26-2" data-name="Path 26" d="M9.724,0,0,15H6.592l9.73-15Z" transform="translate(14794.563 724.5)" fill="#1a1a17"/>
      <path id="Path_27-2" data-name="Path 27" d="M9.724,0,0,15H6.592l9.73-15Z" transform="translate(14807.454 724.5)" fill="#1a1a17"/>
      <path id="Path_28-2" data-name="Path 28" d="M9.724,0,0,15H6.592l9.73-15Z" transform="translate(14820.349 724.5)" fill="#1a1a17"/>
      <path id="Path_29-2" data-name="Path 29" d="M9.724,0,0,15H6.592l9.73-15Z" transform="translate(14833.239 724.5)" fill="#1a1a17"/>
    </g>
  </g>
</svg>
