<svg xmlns="http://www.w3.org/2000/svg" xmlns:xlink="http://www.w3.org/1999/xlink" width="570" height="30" viewBox="0 0 570 30">
  <defs>
    <clipPath id="clip-Artboard_2">
      <rect width="570" height="30"/>
    </clipPath>
  </defs>
  <g id="Artboard_2" data-name="Artboard – 2" clip-path="url(#clip-Artboard_2)">
    <path id="Path_2900" data-name="Path 2900" d="M-93.7,2.624V-.032c-5.536-.512-9.92-2.752-12.192-6.432h11.936V-8.9h-13.472a16.121,16.121,0,0,0,.352-2.912h10.656v-2.144H-107.04v-2.72H-96.9v-.864h2.656V-24.7h-12.768v-2.272h-2.944V-24.7h-12.7v7.168h2.72v.864h9.984v2.72h-10.624v2.144h10.592a13.365,13.365,0,0,1-.384,2.912h-12.7v2.432h11.84c-2.144,4.1-6.624,5.952-12.1,6.5V2.624c6.72-.608,12.384-3.264,14.88-8.48C-105.728-.9-100.544,2.048-93.7,2.624ZM-96.96-18.912h-10.08v-2.464h-2.912v2.464H-119.9v-3.36H-96.96ZM-57.6-15.68v-1.952h-8.128v-1.984h6.88v-1.568h-6.88v-1.888h7.616v-1.952h-7.616v-2.048H-68.32v2.048h-7.264v1.952h7.264v1.888h-6.656v1.568h6.656v1.984h-8.1v1.952Zm.064,18.3V.32A17.008,17.008,0,0,1-65.312-2.3h6.336V-14.176H-74.464V-2.3h5.632A16.881,16.881,0,0,1-76.64.32v2.3A17.613,17.613,0,0,0-68.8.064V-2.3h3.456V.064A17.475,17.475,0,0,0-57.536,2.624ZM-75.456-9.632l-1.792-7.648H-79.04l.832,3.808c-1.152.16-2.656.256-4.224.32l6.208-11.008h-2.5l-2.3,3.968h-3.04l4-6.752H-82.5l-3.84,6.464v2.656h3.9l-2.688,4.736h-2.016V-10.5h2.368q1.3,0,2.592-.1V2.592h2.3V-10.784c.832-.064,1.568-.16,2.208-.256l.32,1.408ZM-75.9.224l-.672-9.088h-1.76l.672,9.088Zm-8.032-9.088h-1.888A83.533,83.533,0,0,1-87.136,1.792h1.952A75.816,75.816,0,0,0-83.936-8.864Zm22.4-1.824h-10.4v-1.76h10.4Zm0,3.2h-10.4V-9.152h10.4Zm0,3.392h-10.4V-5.92h10.4ZM-34.08-10.08v-3.808h-4.192v3.808ZM14.976-6.464V-8.928H13.024v-4.16H1.344v-1.824H12.672V-20.96H1.344v-1.856H14.752v-2.208H1.344v-2.208H-1.408v2.208H-14.656v2.208H-1.408v1.856H-12.544v6.048H-1.408v1.824H-13.792V-11.1H-1.408v2.4H-14.88v2.016H-1.408v2.4H-13.792v1.952H-1.408V-.512c0,.512-.192.7-.736.7H-6.3V2.4h5.12C.96,2.4,1.344,1.728,1.344,0V-2.08h11.68V-6.464ZM9.92-16.672H1.344V-19.2H9.92Zm.448,8.032H1.344V-11.1h9.024ZM-1.408-16.672H-9.824V-19.2h8.416ZM10.368-4.288H1.344V-6.752h9.024ZM50.5-.608V-26.88H48V-1.536c0,.864-.224,1.28-1.12,1.28H42.592v2.72h4.832C49.728,2.464,50.5,1.6,50.5-.608ZM44.864-4.832V-25.088H42.432V-4.832Zm-3.52-18.72v-2.72h-11.3v2.72H32.9A25.109,25.109,0,0,1,28.16-11.36v3.872a16.177,16.177,0,0,0,3.456-4.256l4.032,4.32a15.461,15.461,0,0,1-6.72,6.976v3.1C35.776-.352,39.52-6.976,40.7-16.672v-2.656H34.656a32.691,32.691,0,0,0,.8-4.224ZM29.216-26.976H26.528a26.656,26.656,0,0,1-5.344,12.384v4.1a25.4,25.4,0,0,0,3.168-3.776l-.128,1.728V2.624h2.56v-21.28A32.479,32.479,0,0,0,29.216-26.976ZM38.368-16.7a32.29,32.29,0,0,1-1.7,6.976L32.64-13.664a21.432,21.432,0,0,0,1.184-3.04ZM86.752-26.5H70.592v2.656h5.856c-.736,4.128-2.816,7.328-5.76,8.7v2.88c4.576-1.856,7.36-6.144,8.32-11.584h5.184a52.942,52.942,0,0,1-.32,6.048c-.224,1.7-.8,1.856-2.432,1.856H78.624v2.656H81.76c2.912,0,4.288-.416,4.672-3.68C86.688-19.3,86.752-23.168,86.752-26.5Zm-.48,28.32V-11.2H71.52V1.824ZM70.88-9.344,69.088-17.28H67.136L68-13.472c-1.344.16-3.168.256-4.9.32l6.3-11.008H66.816L64.48-20.192H60.864l4.1-6.752H62.432L58.5-20.48v2.656H63.04l-2.784,4.736H57.5V-10.5h2.464c.96,0,2.08-.032,3.264-.1V2.624h2.432V-10.752c1.088-.1,2.112-.192,2.88-.288l.416,1.7ZM70.08.224l-.672-9.088H67.584L68.256.224Zm-8.9-9.088H59.2A81.652,81.652,0,0,1,57.728,1.792h2.048A69.694,69.694,0,0,0,61.184-8.864ZM83.616-.832h-9.44v-7.84h9.44Zm39.616-14.336v-3.008c-4.864-1.376-10.848-5.408-13.088-8.96h-3.392c-2.24,3.552-8.224,7.584-13.088,8.96v3.008c5.152-1.44,11.616-5.5,14.784-9.728C111.616-20.672,118.08-16.608,123.232-15.168ZM115.84,2.368V-16.416h-2.912V2.368Zm-12-14.816v-3.968h-2.816v3.872c0,7.36-1.728,10.4-6.24,12V2.4C101.472.192,103.84-3.9,103.84-12.448Z" transform="translate(286 28)" fill="#1a1a17" stroke="#1a1a17" stroke-width="1.5"/>
  </g>
</svg>
