<svg xmlns="http://www.w3.org/2000/svg" xmlns:xlink="http://www.w3.org/1999/xlink" width="570" height="30" viewBox="0 0 570 30">
  <defs>
    <clipPath id="clip-Artboard_3">
      <rect width="570" height="30"/>
    </clipPath>
  </defs>
  <g id="Artboard_3" data-name="Artboard – 3" clip-path="url(#clip-Artboard_3)">
    <path id="Path_2901" data-name="Path 2901" d="M-76.544-.32V-3.872l-8.992-7.136A43.3,43.3,0,0,0-78.56-25.6h-3.072a39.5,39.5,0,0,1-6.3,12.736L-101.568-23.68v3.552L-89.7-10.72a31.144,31.144,0,0,1-14.336,9.056v3.1A35.237,35.237,0,0,0-87.36-8.864Zm37.6-22.72v-4.416H-40.9v4.416Zm-3.744,0v-4.416h-1.92v4.416ZM-46.5-21.952l-.032-2.72H-67.9v2.72Zm5.984,9.184V-15.52H-67.9v2.752h16.352c-.192,7.584-3.232,10.624-15.584,11.1v2.88c14.4-.416,18.4-4.9,18.624-13.984Zm34.4-8.256H-9.024c-1.12,4.416-3.52,6.3-16.288,7.584l-4.48.448v2.656l4.544-.416c2.912-.256,5.344-.64,7.456-1.024V1.76h2.72V-12.416C-8.928-14.112-6.976-16.8-6.112-21.024ZM31.808-22.5V-24.96H4.48v2.752H28.736c0,9.28-5.024,12.224-12,12.576a39.93,39.93,0,0,0,.64-7.712H14.56c0,10.336-1.984,14.56-10.176,16.16V1.632C10.784.512,14.208-2.24,15.9-6.72,24.576-6.944,31.808-10.88,31.808-22.5Zm36.864,8.864H55.744a21.379,21.379,0,0,0,1.312-2.144H67.808V-26.368H50.464v10.592h3.648a18.245,18.245,0,0,1-4.288,4.64v-2.5c-.9.416-2.144.864-3.456,1.312v-6.56H49.6V-21.5H46.368v-5.44H43.744v5.44H39.488v2.624h4.256v7.36c-1.792.512-3.456.96-4.352,1.184V-7.68c.9-.224,2.592-.672,4.352-1.216v8c0,.576-.192.7-.96.7H39.712V2.464H43.52c2.208,0,2.848-.576,2.848-2.3V-9.728c1.12-.352,2.112-.7,2.912-.992a10.772,10.772,0,0,1-1.12.7v3.04a28.46,28.46,0,0,0,2.752-1.76v6.08c0,1.6.768,2.336,2.24,2.336H59.52a6.816,6.816,0,0,0,.864-.064V2.3h3.392c2.784,0,3.616-.736,4.128-3.2A94.8,94.8,0,0,0,68.672-13.632ZM65.12-21.888h-12V-24.32h12Zm0,4.128h-12v-2.464h12Zm.9,6.432c-.032,3.712-.128,7.456-.544,8.96-.352,1.376-.512,1.92-2.016,1.92H60.8A2.751,2.751,0,0,0,63.1-3.52V-5.28H60.736V-4.1c0,1.248-.576,1.44-1.856,1.44h-4.7c-.576,0-.768-.224-.768-.736V-5.248l9.056-2.5v-2.08L53.408-7.392V-9.824H52.192a14.427,14.427,0,0,0,1.632-1.5Zm38.176-10.048c-.224-.768-1.248-3.936-1.792-5.152H100a37.928,37.928,0,0,1,1.76,5.152ZM105.248.32V-3.36c-1.632,1.952-2.464,2.816-3.136,2.816-.768,0-1.792-1.024-2.688-3.936A30.181,30.181,0,0,0,104.192-16H101.76a23.854,23.854,0,0,1-3.072,8.192,68.866,68.866,0,0,1-.832-10.176h7.36v-2.368H97.824v-6.624H95.168v6.432c0,.064.032.128.032.192H86.368V-22.4h6.816v-1.984H86.368V-27.04H83.776v2.656h-7.3V-22.4h7.3v2.048H75.584v2.368h8.128v1.792h-7.84v1.728h7.84v1.7h-6.88v8.16h6.88V-2.88H75.584V-.832h8.128V2.624h2.624V-.832h5.152a2.96,2.96,0,0,1-.32.16V2.56A20.5,20.5,0,0,0,97.5-2.112c1.44,3.552,3.2,4.64,4.448,4.64C103.04,2.528,103.936,1.76,105.248.32ZM96.64-5.024a18.985,18.985,0,0,1-3.232,2.976V-2.88H86.336V-4.608H93.28v-8.16H86.272v-1.7h7.84v-1.728h-7.84v-1.792H95.2A59.577,59.577,0,0,0,96.64-5.024ZM91.1-9.376H86.24v-1.888H91.1Zm0,3.3H86.24V-7.968H91.1Zm-7.328-3.3H79.008v-1.888h4.768Zm0,3.3H79.008V-7.968h4.768Z" transform="translate(285 28)" fill="#1a1a17" stroke="#1a1a17" stroke-width="1.5"/>
  </g>
</svg>
