<svg xmlns="http://www.w3.org/2000/svg" width="308" height="63.911" viewBox="0 0 308 63.911">
  <g id="Group_269" data-name="Group 269" transform="translate(-14557 -1971.044)">
    <path id="Path_2920" data-name="Path 2920" d="M-46.96-6.384V-7.76h-2.512a53.071,53.071,0,0,0-8.192.64c.736-.24,1.472-.48,1.808-.624a66.711,66.711,0,0,0,6.96-3.344V-12.4H-60.48v1.36l9.12-.064C-54.1-9.52-59.248-7.264-61.536-6.928V-5.52c1.792-.288,3.392-.512,4.88-.672C-58.1-5.6-59.6-4.32-59.6-2.64c0,2.08,1.7,3.264,6.368,3.264,1.392,0,4.432-.16,5.488-.24V-1.088c-1.232.128-3.84.384-5.408.384-3.664,0-4.912-.816-4.912-2.128,0-2.192,3.488-3.552,6.608-3.552Zm17.952-1.552H-30.5c-.32,5.264-1.552,7.088-3.376,7.088-.88,0-1.3-.416-1.3-1.376V-6.272c0-1.5-.576-2.3-1.824-2.3a4.5,4.5,0,0,0-3.28,1.808c.432-1.7,1.28-4.784,1.712-6.336H-40.1C-41.52-7.744-42.736-2.88-43.44.672H-41.9c.208-.96.672-3.392.944-4.464,1.1-2.32,2.32-3.248,3.456-3.248.608,0,.9.4.9,1.424v3.664A2.291,2.291,0,0,0-34,.624C-31.232.624-29.312-1.28-29.008-7.936ZM-10.368-.88V-2.688A16.746,16.746,0,0,0-13.28-4.624v-5.744h2.608v-1.36h-4.016V-5.2a7.943,7.943,0,0,0-2.672-.48c-2.56,0-3.984,1.344-3.984,3.184,0,2.08,1.7,3.264,3.856,3.264,2.752,0,4.144-1.168,4.144-3.728v-.128A20.041,20.041,0,0,1-10.368-.88Zm-6.256-9.488v-1.376h-5.024c.048-.528.1-1.056.112-1.552h-1.472c-.016.5-.048,1.024-.1,1.552h-2.08v1.376h1.936A54.74,54.74,0,0,1-25.616-.384h1.472a58.432,58.432,0,0,0,2.336-9.984Zm1.856,7.232c0,1.76-.784,2.576-2.688,2.576-1.392,0-2.528-.7-2.528-1.936,0-1.088.816-1.936,2.64-1.936a5.527,5.527,0,0,1,2.576.64ZM7.5-8.544c-.256-3.008-1.632-4.24-3.712-4.656v1.344c1.088.3,2.128,1.216,2.352,3.312ZM6.88-3.68c0-3.328-2.4-4.656-6.16-4.656-.576,0-1.008.032-1.424.048V-10.4H3.248v-1.312H-.7v-1.5H-2.112v1.5h-4.32V-10.4h4.32v2.272c-2.88.416-4.8,2.272-4.8,5.008A3.935,3.935,0,0,0-2.7.768C-1.312.768-.72.288-.72-.992V-7.024C-.3-7.056.144-7.072.688-7.072c3.04,0,4.736,1.072,4.736,3.344,0,2.256-1.568,3.136-3.84,3.136-.384,0-.656,0-.992-.016V.8H1.6C4.512.8,6.88-.384,6.88-3.68ZM-2.048-1.5c0,.656-.176.944-.832.944A2.563,2.563,0,0,1-5.536-3.152c0-1.888,1.152-3.312,3.488-3.664Zm27.52-11.68H24.128L22.4-8.608h1.344ZM21.408-9.04a34.313,34.313,0,0,0-1.2-4.4h-1.36a40.651,40.651,0,0,1,1.232,4.4ZM18.1-8.608a42.694,42.694,0,0,0-1.376-4.576H15.392a33.6,33.6,0,0,1,1.424,4.576Zm5.44,7.376L21.12-4.24a14.65,14.65,0,0,0,1.76-3.92H21.7a12.965,12.965,0,0,1-1.3,3.024l-1.712-2.1h-1.3L19.776-4.24a8.336,8.336,0,0,1-2.56,2.416V-.512A10.4,10.4,0,0,0,20.48-3.344l1.68,2.112Zm1.584,2.3v-9.04h-1.3v7.76H16.768V-7.952h-1.28l-.528-2.3h-.848l.72,3.3h.64V1.072Zm-11.28.256V-13.456H12.56V1.328ZM11.9-10.208h-.88c-.016.912-.288,3.792-.464,4.88h.9C11.632-6.48,11.872-9.232,11.9-10.208ZM43.536-5.024V-6.5c-.48-.16-.976-.32-1.472-.448v-5.584H40.656v5.216a26.417,26.417,0,0,0-4.384-.7c.128-1.248.224-3.024.288-4.528h-6.7v1.392h5.216c-.064.8-.112,2.064-.192,3.072-.144,0-.288-.016-.432-.016-3.408,0-5.3,2.016-5.3,4.848,0,2.272,1.408,3.5,2.832,3.5,2.1,0,3.3-1.824,4.112-6.928a23.847,23.847,0,0,1,4.544.752c-.08,3.792-.96,4.96-4.3,5.36V.88C40.544.368,41.9-1.1,42.048-5.52,42.528-5.36,43.024-5.2,43.536-5.024ZM34.72-6.736c-.64,3.952-1.376,5.52-2.736,5.52-.72,0-1.52-.832-1.52-2.192,0-1.9,1.36-3.344,3.808-3.344C34.432-6.752,34.576-6.736,34.72-6.736Zm26.816.608V-7.536c-1.344.16-2.752.4-3.92.624-.176-1.312-.976-1.936-2.464-1.936a8.957,8.957,0,0,0-4.224,1.2c.192-.208.336-.352.368-.4a10.87,10.87,0,0,0,1.344-2.528h8.592V-11.9H53.088c.112-.448.24-.928.336-1.44H51.936a12.632,12.632,0,0,1-.352,1.44H47.232v1.328H51.12A13.08,13.08,0,0,1,46.9-5.344v1.856c.256-.24,1.76-1.6,2.064-1.856a9.282,9.282,0,0,1,5.824-2.544,1.253,1.253,0,0,1,1.392,1.3c-5.008,1.12-6.4,2.768-6.4,4.352,0,1.776,1.424,2.96,5.44,2.96,2.32,0,5.168-.24,5.856-.32V-1.024a48.874,48.874,0,0,1-5.792.432c-2.976,0-3.92-.656-3.92-1.744,0-1.12,1.344-2.224,4.832-2.976v2.864H57.68V-5.584C58.912-5.776,60.176-5.968,61.536-6.128ZM-73.68,12.48V10.272h-.992V12.48Zm-1.872,0V10.272h-.976V12.48Zm1.248,12.3V23.056a5.676,5.676,0,0,1-2.608-3.808,25.873,25.873,0,0,1-.56-6.368v-1.6H-78.96v1.648a24.5,24.5,0,0,0,.736,7.216A6.984,6.984,0,0,0-74.3,24.784Zm-9.52-11.856V11.28h-1.488v1.6a24.439,24.439,0,0,1-.608,6.448,5.773,5.773,0,0,1-2.56,3.728v1.728a7.023,7.023,0,0,0,3.936-4.672A25.054,25.054,0,0,0-83.824,12.928Zm26.88,5.232V16.688H-69.632V18.16Zm18.832-.208V16.576h-3.664v-3.6l3.328-.256V11.376l-5.136.384H-52.16v1.36h8.784l.1-.016v3.472h-9.008v1.376H-43.3c-.128,3.84-2.256,5.136-8.56,5.28v1.424c7.36-.16,9.92-2.048,10.064-6.7Zm16.912-1.9V14.32l-8.672.384-.16-1.392h-1.424l.144,1.456-1.632.08v1.344l1.824-.08.992,8.688h1.44l-1.056-8.752,7.1-.288v.16c0,2.1-1.264,4.544-4.64,5.664V23.1C-22.832,21.616-21.2,18.448-21.2,16.048ZM-2.176,12.64H-3.568c0,7.568-1.264,10.384-5.824,10.448l.048-11.968h-1.424V24.64c.72,0,1.344-.016,1.856-.048C-3.536,24.144-2.176,20.992-2.176,12.64Zm-11.056-1.52H-14.64a86.434,86.434,0,0,1-.768,13.5h1.456A93.638,93.638,0,0,0-13.232,11.12Zm29.664,6.032v-1.28h-1.36l.64-2.56h.672v-1.28H14.192V10.64H12.9v1.392H10.832v1.28H11.5c.208.768.432,1.76.592,2.56h-1.52v1.28h2.336v1.824H10.9V20.24h2.016v2.784H14.16V20.24h2.128V18.976H14.16V17.152ZM4.944,13.6V12.112l-2.976-1.5v1.44Zm5.488,9.184V17.04H6.9c.032-.368.064-.784.064-1.232h3.328V11.072H5.808V14.8c0,3.12-.224,4.368-.816,5.264v2.16A6.5,6.5,0,0,0,6.8,18.016v4.768Zm-5.488-5.84v-1.5l-2.976-1.5V15.36Zm11.472,8.288V23.92h-7.6c-2.736,0-3.744-.528-4.24-1.712V18.3H1.6v1.328H3.408V22.56l-1.776,1.3v1.552L4.08,23.664c.928,1.152,1.9,1.568,4.912,1.568ZM14.64,13.312l-.624,2.56H13.1c-.16-.8-.384-1.792-.576-2.56ZM9.248,14.64H6.976v-2.4H9.248Zm.16,6.912H7.824V18.224H9.408ZM34.48,25.008V23.7H32.112V21.344h2.08V20.16h-2.08V17.888h2.08V16.72h-2.08V14.512H34.48V13.264H32.24l1.072-2.656H32.144l-1.088,2.656H29.264a12.481,12.481,0,0,0,1.056-2.72H29.072a13.137,13.137,0,0,1-1.808,3.824v1.984a8.6,8.6,0,0,0,.56-.72l-.032.816v8.56ZM27.52,12.816v-1.1H25.888V10.5h-1.2v1.216H22.656V10.5H21.472v1.216H19.7v1.1h1.776v1.248h-1.28V17.5h2.8v1.088h-3.04v.96h3.04a7.8,7.8,0,0,1-.112,1.12H19.744V21.7h2.848A3.826,3.826,0,0,1,19.856,24v1.3a5.33,5.33,0,0,0,3.776-2.96,6.356,6.356,0,0,0,3.408,2.608V23.68A4.857,4.857,0,0,1,24.48,21.7H27.2V20.672H24.112a8.042,8.042,0,0,0,.112-1.12H27.04v-.96H24.224V17.5h2.768v-3.44h-1.1V12.816Zm3.472,3.9H29.008V14.512h1.984Zm0,3.44H29.008V17.888h1.984Zm-6.3-6.1H22.656V12.816h2.032Zm1.28,2.544H24.176V14.992h1.792ZM30.992,23.7H29.008V21.344h1.984ZM23.12,16.608H21.264V14.992H23.12Zm29.216,8.784V10.608H51.1V25.392Zm-2.976-1.44v-12.9H48.24v12.9ZM43.7,11.92V10.8H38.24v1.12Zm.464,2.464V13.136H37.744v1.248Zm2.384,2.1V10.768H45.328V16.48c0,4.528-.576,7.024-1.7,8.784h1.424C46.032,23.5,46.544,20.784,46.544,16.48Zm-2.848.16V15.632H38.24V16.64Zm0,2.24V17.9H38.24v.976Zm-.016,6.064v-4.72H38.1v4.72Zm-1.168-1.1H39.344V21.312h3.168Zm28.176,1.072v-1.5a10.127,10.127,0,0,1-3.536-3.264H70.16V14.192h-3.6V12.944h4.112v-1.2H66.56V10.5H65.248v1.248H61.44v1.2h3.808v1.248H61.936v5.952h2.72a10.275,10.275,0,0,1-3.168,3.1l-.368-3.68h-.864l.384,4.08h.432v1.328a11.113,11.113,0,0,0,4.176-3.664v4H66.56V21.248A10.826,10.826,0,0,0,70.688,24.912Zm-9.072-5.728-.88-3.824h-.864l.4,1.92c-.56.064-1.328.128-2.1.144l3.072-5.5H60.032L58.88,13.9H57.392l2-3.376h-1.2l-1.92,3.232v1.328h1.92l-1.344,2.368h-.976v1.3H57.04c.432,0,.88-.016,1.312-.048v6.608H59.5v-6.7c.4-.032.752-.08,1.04-.128l.16.7Zm-4.144.384h-.944a41.767,41.767,0,0,1-.656,5.328h.976A37.908,37.908,0,0,0,57.472,19.568Zm11.5-2.928H66.5V15.184h2.48Zm0,2.48H66.5V17.5h2.48Zm-3.664-2.48h-2.32V15.184h2.32Zm0,2.48h-2.32V17.5h2.32Zm22.7-6.8V10.256H87.04V12.32Zm-1.984,0V10.256h-.976V12.32Zm2.48,10.3c0-6.208-.352-8.24-1.184-9.5H85.744c.944,1.008,1.344,2.88,1.344,9.5Zm-4.5-4.72c0-3.968-.528-4.8-2.9-4.8H78.368c.08-.752.144-1.488.176-2.224H77.136c-.032.736-.08,1.472-.144,2.224H74.32V14.48h2.528a41.813,41.813,0,0,1-2.432,9.968h1.52a46.012,46.012,0,0,0,2.3-9.968h2.688c1.328,0,1.68.464,1.68,3.648,0,4.368-.56,5.072-1.984,5.072a12.17,12.17,0,0,1-2.224-.256v1.44a17.044,17.044,0,0,0,2.3.224C82.976,24.608,84.016,23.92,84.016,17.9ZM-38.176,34.944h-6.64v1.248h2.1a3.861,3.861,0,0,1-2.4,2.832v1.36a5.338,5.338,0,0,0,3.664-4.192H-39.5a13.6,13.6,0,0,1-.144,1.968c-.1.624-.352.72-.88.72h-1.04v1.168H-40.4c1.36,0,1.856-.256,2.048-1.456A34.512,34.512,0,0,0-38.176,34.944Zm.368,11.744V45.424H-40.48V43.232h2.512V41.968H-40.48v-1.6h-1.328v1.6h-1.616a8.654,8.654,0,0,0,.288-1.392h-1.088a10.082,10.082,0,0,1-1.28,3.712h1.216a7.655,7.655,0,0,0,.448-1.056h2.032v2.192h-3.376v1.264h3.376V49.3h1.328V46.688Zm-7.792,1.3V38.016h-1.728a15.753,15.753,0,0,0,1.2-1.936V34.96h-4.128a7.5,7.5,0,0,1-2.4,3.152v1.712a7.465,7.465,0,0,0,.928-.736v4.048a13.218,13.218,0,0,1-1.024,5.952h1.328a12.016,12.016,0,0,0,.848-3.648h3.76v2.208c0,.224-.208.336-.608.336H-48.9v1.248h1.68C-46.08,49.232-45.6,48.928-45.6,47.984Zm-1.872-11.84a11.407,11.407,0,0,1-1.216,1.872h-2a14.963,14.963,0,0,0,1.28-1.872Zm.784,5.04H-48.24V39.216h1.552Zm-2.4,0h-1.536V39.216h1.536Zm2.4,3.088H-48.24V42.224h1.552Zm-2.4,0h-1.536V42.224h1.536Zm18.32-6.512V36.224l-3.584-1.616v1.44Zm11.056,11.52V47.84a8.265,8.265,0,0,1-5.216-4.96h5.216V41.52h-1.264v-4.9H-25.12V34.5h-1.344v2.128H-30.1v1.36h3.632v1.824a11.394,11.394,0,0,1-.112,1.712h-4.192V40.3l-3.584-1.664v1.472l3.248,1.52V42.88h4.256a6.753,6.753,0,0,1-4.832,4.88v1.488a8.629,8.629,0,0,0,5.84-5.264A9.847,9.847,0,0,0-19.712,49.28Zm-11.04-6.08h-1.424a23.706,23.706,0,0,1-2.352,5.872h1.536A22.88,22.88,0,0,0-30.752,43.2Zm8.432-1.68h-2.9a12.649,12.649,0,0,0,.1-1.6V37.984h2.8Zm19.664-.672c0-.5-.016-1.056-.064-1.632H-4.112c.048.592.048,1.152.048,1.664-.048,4.448-2.4,6.352-5.3,6.352-2.912,0-4.288-1.264-4.288-4.64,0-3.04.144-6.208.256-7.568h-1.424c-.08,1.424-.208,4.784-.208,7.728,0,4.16,1.856,5.824,5.552,5.824C-5.6,48.576-2.672,46.208-2.656,40.848ZM16.08,47.184V45.616a17.946,17.946,0,0,0-4.608-2.064V41.024H15.84V39.76H11.472v-2.3H15.84V36.208H11.472V34.784H10.08v1.424h-8v1.248h8v2.3H2.016v1.264H10.08v2.192a20.021,20.021,0,0,0-3.04-.24c-3.392,0-4.576,1.472-4.576,2.848,0,1.888,1.36,2.976,4.368,2.976,3.856,0,4.736-1.248,4.7-3.184l-.016-.768A20.935,20.935,0,0,1,16.08,47.184ZM10.048,45.44c0,1.456-.736,2.112-3.024,2.112-1.968,0-3.088-.56-3.088-1.776,0-.72.752-1.664,3.12-1.664a12.7,12.7,0,0,1,2.992.368Zm24.224-7.728V36.4h-2.4V34.912H30.384V36.4H19.952v1.312h10.5v2.336A7.217,7.217,0,0,0,26.7,39.28c-2.8,0-4.528,1.152-4.528,2.864,0,1.68,1.536,2.816,4.128,2.816,2.384,0,3.76-.672,4.448-1.76v.624c0,2.352-1.392,3.664-6.688,3.664-.7,0-1.856-.032-2.48-.08v1.344c.56.032,1.632.064,2.336.064,6.736,0,8.288-2.064,8.288-4.96a7.075,7.075,0,0,0-.336-2.72V37.712Zm-4.048,3.9c0,.992-.752,2.176-3.44,2.176-2.176,0-3.072-.7-3.072-1.712,0-.816.864-1.68,3.248-1.68C29.408,40.4,30.224,41.088,30.224,41.616ZM45.872,40.1V34.752H44.256V40.1l.256,5.632h1.12ZM46,49.136V47.488H44.208v1.648Z" transform="translate(14711 1985)" fill="#1a1a17" stroke="#1a1a17" stroke-width="1"/>
    <g id="Group_256" data-name="Group 256" transform="translate(15.438 1271.5)">
      <path id="Path_26" data-name="Path 26" d="M9.724,0,0,15H6.592l9.73-15Z" transform="translate(14794.563 724.5)" fill="#1a1a17"/>
      <path id="Path_27" data-name="Path 27" d="M9.724,0,0,15H6.592l9.73-15Z" transform="translate(14807.454 724.5)" fill="#1a1a17"/>
      <path id="Path_28" data-name="Path 28" d="M9.724,0,0,15H6.592l9.73-15Z" transform="translate(14820.349 724.5)" fill="#1a1a17"/>
      <path id="Path_29" data-name="Path 29" d="M9.724,0,0,15H6.592l9.73-15Z" transform="translate(14833.239 724.5)" fill="#1a1a17"/>
    </g>
    <g id="Group_257" data-name="Group 257" transform="translate(-237.563 1271.5)">
      <path id="Path_26-2" data-name="Path 26" d="M9.724,0,0,15H6.592l9.73-15Z" transform="translate(14794.563 724.5)" fill="#1a1a17"/>
      <path id="Path_27-2" data-name="Path 27" d="M9.724,0,0,15H6.592l9.73-15Z" transform="translate(14807.454 724.5)" fill="#1a1a17"/>
      <path id="Path_28-2" data-name="Path 28" d="M9.724,0,0,15H6.592l9.73-15Z" transform="translate(14820.349 724.5)" fill="#1a1a17"/>
      <path id="Path_29-2" data-name="Path 29" d="M9.724,0,0,15H6.592l9.73-15Z" transform="translate(14833.239 724.5)" fill="#1a1a17"/>
    </g>
  </g>
</svg>
