<svg xmlns="http://www.w3.org/2000/svg" width="254" height="16.191" viewBox="0 0 254 16.191">
  <g id="Group_274" data-name="Group 274" transform="translate(-14584 -5357.801)">
    <path id="Path_2915" data-name="Path 2915" d="M-46.864-11.424v-.992H-49.84l.48-1.056h-1.376l-.48,1.056h-2.5c-.16-.368-.32-.736-.5-1.056H-55.6a8.923,8.923,0,0,1,.48,1.056h-2.7v.992h4.56l-.32.848h-3.36v5.184h9.216v-5.184h-4.48l.336-.848Zm-11.5,1.312v-1.376l-2.784-1.792v1.36Zm11.52,6.48v-1.04h-7.28c-2.8,0-3.824-.48-4.208-1.568v-3.2h-3.328v1.232h2.1V-6.08l-2.048,1.312v1.392l2.656-1.648c.832,1.008,1.9,1.392,5.008,1.392h2.976v.8H-61.648V-1.68h10.672V-.208c0,.4-.128.416-.624.416h-2.72v1.12h3.04c1.28,0,1.728-.24,1.728-1.3V-1.68h2.688V-2.832h-2.688v-.8ZM-55.568.832a15.434,15.434,0,0,0-1.3-2.128h-1.52A12.96,12.96,0,0,1-57.12.832Zm6.544-9.92h-6.608v-.784h6.608Zm0,1.456h-6.608v-.816h6.608Zm0,1.488h-6.608v-.864h6.608ZM-28.752,1.2V-.544c-2.064-1.136-6.384-5.024-6.384-12.592h-6.1v1.424h4.352c-.512,5.136-3.392,9.76-6.72,11.248V1.2c3.5-1.408,6.384-5.312,7.568-10.032C-34.768-3.3-31.184.16-28.752,1.2ZM-11.04-.816V-2.384a17.946,17.946,0,0,0-4.608-2.064V-6.976h4.368V-8.24h-4.368v-2.3h4.368v-1.248h-4.368v-1.424H-17.04v1.424h-8v1.248h8v2.3H-25.1v1.264h8.064v2.192a20.021,20.021,0,0,0-3.04-.24c-3.392,0-4.576,1.472-4.576,2.848C-24.656-.288-23.3.8-20.288.8c3.856,0,4.736-1.248,4.7-3.184l-.016-.768A20.934,20.934,0,0,1-11.04-.816ZM-17.072-2.56c0,1.456-.736,2.112-3.024,2.112-1.968,0-3.088-.56-3.088-1.776,0-.72.752-1.664,3.12-1.664a12.7,12.7,0,0,1,2.992.368ZM6.944-7.392V-9.6H5.968v2.208Zm-1.856,0V-9.6H4.112v2.208ZM6.9-10.8v-1.3H-6.88V-10.7H.608l1.824-.144c-4.128.752-7.2,3.264-7.2,6.1,0,3.328,2.72,5.2,7.792,5.216A17.311,17.311,0,0,0,6.08.208V-1.184a17.351,17.351,0,0,1-3.056.272c-4.192,0-6.288-1.488-6.288-3.92C-3.264-7.792.96-10.432,6.9-10.8ZM25.184-5.936c0-4.272-2.4-7.024-6.912-7.024-4.384,0-7.312,3.152-7.312,7.5,0,4.048,2.064,5.568,3.584,5.568,2.576,0,3.7-3.344,4.512-11.76,2.928.256,4.7,2.144,4.7,5.712A5.175,5.175,0,0,1,18.576-.56V.848C22.864.48,25.184-2.32,25.184-5.936Zm-7.536-5.712c-.656,7.584-1.632,10.3-3.1,10.3-.96,0-2.24-1.3-2.24-4.128C12.3-8.768,14.288-11.344,17.648-11.648Zm25.792.72v-1.264H38.672v-1.36H37.264v1.36h-4.5v1.264H36.16L34.688-7.952c-.736.032-1.392.064-1.872.064v1.3c2.016-.08,6.416-.352,8.64-.544a9.128,9.128,0,0,1,.416,1.024h1.456a34.553,34.553,0,0,0-2.048-4.144H39.856c.32.512.72,1.232,1.072,1.952-1.3.112-3.072.208-4.72.288l1.44-2.912ZM43.488.016V-2.128h-1.04v1.7c0,.32-.176.416-.432.416h-.672c-.272,0-.32-.1-.32-.352V-5.936h-1.2V.048c0,.912.256,1.184,1.008,1.184h1.392A1.117,1.117,0,0,0,43.488.016ZM32.1-10.256v-1.536l-3.216-1.6v1.456ZM38.112,1.168v-7.1h-1.2v7.1ZM32.1-6.24v-1.5L28.88-9.376v1.488Zm3.264.3H34.144c0,4.016-1.008,5.36-2.4,5.888V1.328C33.968.688,35.36-1.1,35.36-5.936ZM32.144-4.752h-1.36A24.916,24.916,0,0,1,28.7,1.072h1.472A23.178,23.178,0,0,0,32.144-4.752ZM61.84-.688v-1.68A5.524,5.524,0,0,1,59.584-1.28c-.336,0-.464-.08-.464-.832,0-1.712.24-4.752.24-7.168,0-2.064-.688-3.232-2.72-3.232-1.952,0-3.744,1.744-5.344,3.808.016-1.76.032-3.344.16-4.464H50.032c-.048.56-.08,1.344-.1,2.24H47.152v1.376H49.9c0,.752,0,1.584-.016,2.384-.96,1.376-1.744,2.464-2.672,3.7v2c1.088-1.376,2.032-2.7,2.672-3.568V.72H51.3v-7.3c1.92-2.736,3.488-4.416,5.136-4.416,1.088,0,1.44.736,1.44,2.144,0,2.288-.24,5.68-.24,7.584,0,1.136.448,1.584,1.36,1.584A6.138,6.138,0,0,0,61.84-.688Z" transform="translate(14711 5372)" fill="#1a1a17" stroke="#1a1a17" stroke-width="1"/>
    <g id="Group_267" data-name="Group 267" transform="translate(-11.563 4633.5)">
      <path id="Path_26" data-name="Path 26" d="M9.724,0,0,15H6.592l9.73-15Z" transform="translate(14794.563 724.5)" fill="#1a1a17"/>
      <path id="Path_27" data-name="Path 27" d="M9.724,0,0,15H6.592l9.73-15Z" transform="translate(14807.454 724.5)" fill="#1a1a17"/>
      <path id="Path_28" data-name="Path 28" d="M9.724,0,0,15H6.592l9.73-15Z" transform="translate(14820.349 724.5)" fill="#1a1a17"/>
      <path id="Path_29" data-name="Path 29" d="M9.724,0,0,15H6.592l9.73-15Z" transform="translate(14833.239 724.5)" fill="#1a1a17"/>
    </g>
    <g id="Group_266" data-name="Group 266" transform="translate(-210.563 4633.5)">
      <path id="Path_26-2" data-name="Path 26" d="M9.724,0,0,15H6.592l9.73-15Z" transform="translate(14794.563 724.5)" fill="#1a1a17"/>
      <path id="Path_27-2" data-name="Path 27" d="M9.724,0,0,15H6.592l9.73-15Z" transform="translate(14807.454 724.5)" fill="#1a1a17"/>
      <path id="Path_28-2" data-name="Path 28" d="M9.724,0,0,15H6.592l9.73-15Z" transform="translate(14820.349 724.5)" fill="#1a1a17"/>
      <path id="Path_29-2" data-name="Path 29" d="M9.724,0,0,15H6.592l9.73-15Z" transform="translate(14833.239 724.5)" fill="#1a1a17"/>
    </g>
  </g>
</svg>
