<svg xmlns="http://www.w3.org/2000/svg" width="254" height="39.956" viewBox="0 0 254 39.956">
  <g id="Group_268" data-name="Group 268" transform="translate(-14592.5 -699.044)">
    <path id="Path_2921" data-name="Path 2921" d="M-39.184-10.736v-1.392c-.848.048-2.432.1-4.08.1-2.176,0-5.5-.08-7.248-.224v1.392c1.68.128,4.928.224,7.232.224C-41.5-10.64-40.112-10.688-39.184-10.736Zm.592,10.8V-1.36a53.485,53.485,0,0,1-6.176.448h-.08c-3.424,0-5.3-.96-5.3-2.9,0-1.04.608-2,1.792-3.168h-1.76A4.907,4.907,0,0,0-51.68-3.6c0,2.656,2.368,4.048,6.656,4.048A57.958,57.958,0,0,0-38.592.064Zm18.624-8h-1.488c-.32,5.264-1.552,7.088-3.376,7.088-.88,0-1.3-.416-1.3-1.376V-6.272c0-1.5-.576-2.3-1.824-2.3a4.5,4.5,0,0,0-3.28,1.808c.432-1.7,1.28-4.784,1.712-6.336h-1.536C-32.48-7.744-33.7-2.88-34.4.672h1.536c.208-.96.672-3.392.944-4.464,1.1-2.32,2.32-3.248,3.456-3.248.608,0,.9.4.9,1.424v3.664A2.291,2.291,0,0,0-24.96.624C-22.192.624-20.272-1.28-19.968-7.936ZM-1.328-.88V-2.688A16.746,16.746,0,0,0-4.24-4.624v-5.744h2.608v-1.36H-5.648V-5.2A7.943,7.943,0,0,0-8.32-5.68C-10.88-5.68-12.3-4.336-12.3-2.5c0,2.08,1.7,3.264,3.856,3.264C-5.7.768-4.3-.4-4.3-2.96v-.128A20.041,20.041,0,0,1-1.328-.88Zm-6.256-9.488v-1.376h-5.024c.048-.528.1-1.056.112-1.552h-1.472c-.016.5-.048,1.024-.1,1.552h-2.08v1.376h1.936A54.74,54.74,0,0,1-16.576-.384H-15.1a58.432,58.432,0,0,0,2.336-9.984Zm1.856,7.232c0,1.76-.784,2.576-2.688,2.576-1.392,0-2.528-.7-2.528-1.936,0-1.088.816-1.936,2.64-1.936a5.527,5.527,0,0,1,2.576.64ZM16.544-8.544c-.256-3.008-1.632-4.24-3.712-4.656v1.344c1.088.3,2.128,1.216,2.352,3.312ZM15.92-3.68c0-3.328-2.4-4.656-6.16-4.656-.576,0-1.008.032-1.424.048V-10.4h3.952v-1.312H8.336v-1.5H6.928v1.5H2.608V-10.4h4.32v2.272c-2.88.416-4.8,2.272-4.8,5.008A3.935,3.935,0,0,0,6.336.768C7.728.768,8.32.288,8.32-.992V-7.024c.416-.032.864-.048,1.408-.048,3.04,0,4.736,1.072,4.736,3.344,0,2.256-1.568,3.136-3.84,3.136-.384,0-.656,0-.992-.016V.8H10.64C13.552.8,15.92-.384,15.92-3.68ZM6.992-1.5c0,.656-.176.944-.832.944A2.563,2.563,0,0,1,3.5-3.152c0-1.888,1.152-3.312,3.488-3.664Zm27.52-11.68H33.168L31.44-8.608h1.344ZM30.448-9.04a34.313,34.313,0,0,0-1.2-4.4h-1.36a40.651,40.651,0,0,1,1.232,4.4Zm-3.312.432a42.694,42.694,0,0,0-1.376-4.576H24.432a33.6,33.6,0,0,1,1.424,4.576Zm5.44,7.376L30.16-4.24a14.65,14.65,0,0,0,1.76-3.92H30.736a12.965,12.965,0,0,1-1.3,3.024l-1.712-2.1h-1.3L28.816-4.24a8.336,8.336,0,0,1-2.56,2.416V-.512A10.4,10.4,0,0,0,29.52-3.344L31.2-1.232Zm1.584,2.3v-9.04h-1.3v7.76H25.808V-7.952h-1.28L24-10.256h-.848l.72,3.3h.64V1.072Zm-11.28.256V-13.456H21.6V1.328ZM20.944-10.208h-.88c-.016.912-.288,3.792-.464,4.88h.9C20.672-6.48,20.912-9.232,20.944-10.208ZM52.576-5.024V-6.5c-.48-.16-.976-.32-1.472-.448v-5.584H49.7v5.216a26.417,26.417,0,0,0-4.384-.7c.128-1.248.224-3.024.288-4.528H38.9v1.392h5.216c-.064.8-.112,2.064-.192,3.072-.144,0-.288-.016-.432-.016-3.408,0-5.3,2.016-5.3,4.848,0,2.272,1.408,3.5,2.832,3.5,2.1,0,3.3-1.824,4.112-6.928a23.847,23.847,0,0,1,4.544.752c-.08,3.792-.96,4.96-4.3,5.36V.88c4.208-.512,5.568-1.984,5.712-6.4C51.568-5.36,52.064-5.2,52.576-5.024ZM43.76-6.736c-.64,3.952-1.376,5.52-2.736,5.52-.72,0-1.52-.832-1.52-2.192,0-1.9,1.36-3.344,3.808-3.344C43.472-6.752,43.616-6.736,43.76-6.736Zm-90.912,26.7c0-2.848-1.9-5.152-6.752-5.152a10.39,10.39,0,0,0-1.632.128V13.3h8.272v-1.28H-55.52V10.752h-1.456v1.264h-4.24V13.3h4.208v2a6.02,6.02,0,0,0-4.352,5.76c0,2.608,1.776,3.584,3.12,3.584,1.072,0,3.3-.5,7.232-8.08a3.44,3.44,0,0,1,2.448,3.392c0,2.4-1.776,3.552-4.576,3.552h-.688V24.9C-50.592,24.9-47.152,23.888-47.152,19.968Zm-5.1-3.744a31.242,31.242,0,0,1-2.912,4.832,14.424,14.424,0,0,1-.5-4.816,9.076,9.076,0,0,1,1.68-.16A9.549,9.549,0,0,1-52.256,16.224Zm-3.9,6a2.938,2.938,0,0,1-1.92,1.088,2.081,2.081,0,0,1-1.9-2.336,4.624,4.624,0,0,1,3.04-4.352C-56.912,19.5-56.736,21.072-56.16,22.224Zm26.1-4.416c0-3.952-2-6.3-5.392-6.3a5.785,5.785,0,0,0-5.136,3.152,33.289,33.289,0,0,1,.416-3.68H-41.6a73.27,73.27,0,0,0-.544,9.5h1.36v-.544c0-.56-.032-1.072-.032-1.568.5-3.6,2.672-5.52,5.232-5.52,2.624,0,4.048,1.9,4.048,4.944,0,4.16-2.32,5.456-8.24,5.456h-1.168V24.64h1.216C-32.832,24.64-30.064,22.736-30.064,17.808Zm19.024,5.376V21.616a17.946,17.946,0,0,0-4.608-2.064V17.024h4.368V15.76h-4.368v-2.3h4.368V12.208h-4.368V10.784H-17.04v1.424h-8v1.248h8v2.3H-25.1v1.264h8.064v2.192a20.021,20.021,0,0,0-3.04-.24c-3.392,0-4.576,1.472-4.576,2.848,0,1.888,1.36,2.976,4.368,2.976,3.856,0,4.736-1.248,4.7-3.184l-.016-.768A20.934,20.934,0,0,1-11.04,23.184Zm-6.032-1.744c0,1.456-.736,2.112-3.024,2.112-1.968,0-3.088-.56-3.088-1.776,0-.72.752-1.664,3.12-1.664a12.7,12.7,0,0,1,2.992.368Zm24.1-6.464V13.648H4.8v-2.72H3.408v2.72H-3.664V10.9H-5.056v2.752H-6.992v1.328h1.936v5.7c0,3.136,1.408,3.92,4.848,3.92,2.544,0,5.184-.24,6.448-.368V22.816a48.785,48.785,0,0,1-6.4.432c-2.752,0-3.5-.768-3.5-2.8V14.976H3.408V17.44c0,1.152-.256,1.488-1.328,1.488a19.824,19.824,0,0,1-2.336-.144v1.344a23.832,23.832,0,0,0,2.592.144c1.76,0,2.464-.624,2.464-2.544V14.976Zm18.208,1.088H23.744c-.32,5.264-1.552,7.088-3.376,7.088-.88,0-1.3-.416-1.3-1.376V17.728c0-1.5-.576-2.3-1.824-2.3a4.5,4.5,0,0,0-3.28,1.808c.432-1.7,1.28-4.784,1.712-6.336H14.144C12.72,16.256,11.5,21.12,10.8,24.672h1.536c.208-.96.672-3.392.944-4.464,1.1-2.32,2.32-3.248,3.456-3.248.608,0,.9.4.9,1.424v3.664a2.291,2.291,0,0,0,2.608,2.576C23.008,24.624,24.928,22.72,25.232,16.064Zm18.08,6.624c0-9.552-1.1-10.656-4.048-11.184V12.9c1.792.528,2.624,1.376,2.624,9.792Zm-4.5-4.784c0-3.968-.528-4.8-2.9-4.8H33.168c.08-.736.144-1.488.176-2.224H31.936c-.032.736-.08,1.488-.144,2.224H29.12V14.5h2.528a41.875,41.875,0,0,1-2.432,9.952h1.52a46.087,46.087,0,0,0,2.3-9.952h2.688c1.328,0,1.68.448,1.68,3.632,0,4.368-.56,5.072-1.984,5.072a13.912,13.912,0,0,1-2.224-.24v1.424a17.044,17.044,0,0,0,2.3.224C37.776,24.608,38.816,23.92,38.816,17.9Zm21.312-3.088c0-2.56-1.808-4.048-4.784-4.048H53.008a4.277,4.277,0,0,0-4.624,4.512v.864h1.5V15.28a2.819,2.819,0,0,1,3.12-3.024h2.336c2.368,0,3.3.976,3.3,2.56,0,1.328-.512,1.824-3.008,2.736-1.776.64-2.256,1.584-2.256,4.416h1.552c0-1.984.112-2.72,1.632-3.28C59.1,17.744,60.128,16.992,60.128,14.816Zm-5.072,10.32V23.488H53.248v1.648Z" transform="translate(14719.5 713)" fill="#1a1a17" stroke="#1a1a17" stroke-width="1"/>
    <g id="Group_254" data-name="Group 254" transform="translate(-3.063 -0.5)">
      <path id="Path_26" data-name="Path 26" d="M9.724,0,0,15H6.592l9.73-15Z" transform="translate(14794.563 724.5)" fill="#1a1a17"/>
      <path id="Path_27" data-name="Path 27" d="M9.724,0,0,15H6.592l9.73-15Z" transform="translate(14807.454 724.5)" fill="#1a1a17"/>
      <path id="Path_28" data-name="Path 28" d="M9.724,0,0,15H6.592l9.73-15Z" transform="translate(14820.349 724.5)" fill="#1a1a17"/>
      <path id="Path_29" data-name="Path 29" d="M9.724,0,0,15H6.592l9.73-15Z" transform="translate(14833.239 724.5)" fill="#1a1a17"/>
    </g>
    <g id="Group_255" data-name="Group 255" transform="translate(-202.063 -0.5)">
      <path id="Path_26-2" data-name="Path 26" d="M9.724,0,0,15H6.592l9.73-15Z" transform="translate(14794.563 724.5)" fill="#1a1a17"/>
      <path id="Path_27-2" data-name="Path 27" d="M9.724,0,0,15H6.592l9.73-15Z" transform="translate(14807.454 724.5)" fill="#1a1a17"/>
      <path id="Path_28-2" data-name="Path 28" d="M9.724,0,0,15H6.592l9.73-15Z" transform="translate(14820.349 724.5)" fill="#1a1a17"/>
      <path id="Path_29-2" data-name="Path 29" d="M9.724,0,0,15H6.592l9.73-15Z" transform="translate(14833.239 724.5)" fill="#1a1a17"/>
    </g>
  </g>
</svg>
