<svg xmlns="http://www.w3.org/2000/svg" xmlns:xlink="http://www.w3.org/1999/xlink" width="570" height="80" viewBox="0 0 570 80">
  <defs>
    <clipPath id="clip-Artboard_3">
      <rect width="570" height="80"/>
    </clipPath>
  </defs>
  <g id="Artboard_3" data-name="Artboard – 3" clip-path="url(#clip-Artboard_3)">
    <path id="Path_2898" data-name="Path 2898" d="M-93.92-12.768V-15.52h-5.024a106.142,106.142,0,0,0-16.384,1.28c1.472-.48,2.944-.96,3.616-1.248a133.422,133.422,0,0,0,13.92-6.688V-24.8H-120.96v2.72l18.24-.128c-5.472,3.168-15.776,7.68-20.352,8.352v2.816c3.584-.576,6.784-1.024,9.76-1.344-2.88,1.184-5.888,3.744-5.888,7.1,0,4.16,3.392,6.528,12.736,6.528,2.784,0,8.864-.32,10.976-.48V-2.176c-2.464.256-7.68.768-10.816.768-7.328,0-9.824-1.632-9.824-4.256,0-4.384,6.976-7.1,13.216-7.1Zm35.9-3.1h-2.976C-61.632-5.344-64.1-1.7-67.744-1.7c-1.76,0-2.592-.832-2.592-2.752v-8.1c0-3.008-1.152-4.608-3.648-4.608-1.984,0-4.352,1.056-6.56,3.616.864-3.392,2.56-9.568,3.424-12.672h-3.072C-83.04-15.488-85.472-5.76-86.88,1.344h3.072c.416-1.92,1.344-6.784,1.888-8.928,2.208-4.64,4.64-6.5,6.912-6.5,1.216,0,1.792.8,1.792,2.848V-3.9c0,3.52,1.824,5.152,5.216,5.152C-62.464,1.248-58.624-2.56-58.016-15.872ZM-20.736-1.76V-5.376A33.493,33.493,0,0,0-26.56-9.248V-20.736h5.216v-2.72h-8.032V-10.4a15.886,15.886,0,0,0-5.344-.96c-5.12,0-7.968,2.688-7.968,6.368,0,4.16,3.392,6.528,7.712,6.528,5.5,0,8.288-2.336,8.288-7.456v-.256A40.083,40.083,0,0,1-20.736-1.76ZM-33.248-20.736v-2.752H-43.3c.1-1.056.192-2.112.224-3.1h-2.944c-.032.992-.1,2.048-.192,3.1h-4.16v2.752H-46.5A109.48,109.48,0,0,1-51.232-.768h2.944a116.864,116.864,0,0,0,4.672-19.968Zm3.712,14.464c0,3.52-1.568,5.152-5.376,5.152-2.784,0-5.056-1.408-5.056-3.872,0-2.176,1.632-3.872,5.28-3.872a11.054,11.054,0,0,1,5.152,1.28ZM15.008-17.088C14.5-23.1,11.744-25.568,7.584-26.4v2.688c2.176.608,4.256,2.432,4.7,6.624ZM13.76-7.36c0-6.656-4.8-9.312-12.32-9.312-1.152,0-2.016.064-2.848.1V-20.8H6.5v-2.624h-7.9v-3.008H-4.224v3.008h-8.64V-20.8h8.64v4.544c-5.76.832-9.6,4.544-9.6,10.016,0,5.44,4.608,7.776,8.416,7.776,2.784,0,3.968-.96,3.968-3.52V-14.048c.832-.064,1.728-.1,2.816-.1,6.08,0,9.472,2.144,9.472,6.688,0,4.512-3.136,6.272-7.68,6.272-.768,0-1.312,0-1.984-.032V1.6H3.2C9.024,1.6,13.76-.768,13.76-7.36ZM-4.1-3.008C-4.1-1.7-4.448-1.12-5.76-1.12A5.126,5.126,0,0,1-11.072-6.3c0-3.776,2.3-6.624,6.976-7.328Zm55.04-23.36H48.256L44.8-17.216h2.688ZM42.816-18.08a68.627,68.627,0,0,0-2.4-8.8H37.7a81.3,81.3,0,0,1,2.464,8.8Zm-6.624.864a85.388,85.388,0,0,0-2.752-9.152H30.784a67.193,67.193,0,0,1,2.848,9.152ZM47.072-2.464,42.24-8.48a29.3,29.3,0,0,0,3.52-7.84H43.392A25.93,25.93,0,0,1,40.8-10.272l-3.424-4.192H34.784L39.552-8.48a16.673,16.673,0,0,1-5.12,4.832v2.624A20.791,20.791,0,0,0,40.96-6.688l3.36,4.224ZM50.24,2.144v-18.08H47.648V-.416H33.536V-15.9h-2.56L29.92-20.512h-1.7l1.44,6.592h1.28V2.144Zm-22.56.512V-26.912H25.12V2.656ZM23.808-20.416h-1.76c-.032,1.824-.576,7.584-.928,9.76h1.792C23.264-12.96,23.744-18.464,23.808-20.416ZM87.072-10.048v-2.944c-.96-.32-1.952-.64-2.944-.9V-25.056H81.312v10.432a52.834,52.834,0,0,0-8.768-1.408c.256-2.5.448-6.048.576-9.056H59.712V-22.3H70.144c-.128,1.6-.224,4.128-.384,6.144-.288,0-.576-.032-.864-.032C62.08-16.192,58.3-12.16,58.3-6.5,58.3-1.952,61.12.512,63.968.512c4.192,0,6.592-3.648,8.224-13.856a47.694,47.694,0,0,1,9.088,1.5c-.16,7.584-1.92,9.92-8.608,10.72V1.76C81.088.736,83.808-2.208,84.1-11.04,85.056-10.72,86.048-10.4,87.072-10.048ZM69.44-13.472c-1.28,7.9-2.752,11.04-5.472,11.04-1.44,0-3.04-1.664-3.04-4.384,0-3.808,2.72-6.688,7.616-6.688C68.864-13.5,69.152-13.472,69.44-13.472Zm53.632,1.216v-2.816c-2.688.32-5.5.8-7.84,1.248-.352-2.624-1.952-3.872-4.928-3.872a17.913,17.913,0,0,0-8.448,2.4c.384-.416.672-.7.736-.8a21.74,21.74,0,0,0,2.688-5.056h17.184v-2.656H106.176c.224-.9.48-1.856.672-2.88h-2.976a25.263,25.263,0,0,1-.7,2.88h-8.7v2.656h7.776c-1.856,4.448-4.768,7.488-8.448,10.464v3.712c.512-.48,3.52-3.2,4.128-3.712,4.352-3.648,8.32-5.088,11.648-5.088a2.507,2.507,0,0,1,2.784,2.592c-10.016,2.24-12.8,5.536-12.8,8.7,0,3.552,2.848,5.92,10.88,5.92,4.64,0,10.336-.48,11.712-.64V-2.048a97.749,97.749,0,0,1-11.584.864c-5.952,0-7.84-1.312-7.84-3.488,0-2.24,2.688-4.448,9.664-5.952V-4.9h2.976v-6.272C117.824-11.552,120.352-11.936,123.072-12.256ZM-255.84,26.96V22.544h-1.984V26.96Zm-3.744,0V22.544h-1.952V26.96Zm2.5,24.608V48.112c-1.92-1.152-3.872-2.88-5.216-7.616-.8-2.848-1.12-7.2-1.12-12.736v-3.2H-266.4v3.3c0,6.208.352,11.136,1.472,14.432C-263.168,47.536-260.832,49.68-257.088,51.568Zm-19.04-23.712v-3.3H-279.1v3.2c0,5.632-.352,10.048-1.216,12.9-1.376,4.608-3.264,6.3-5.12,7.456v3.456c3.776-1.888,6.112-4.1,7.872-9.344C-276.48,38.9-276.128,34.032-276.128,27.856Zm53.76,10.464V35.376h-25.376V38.32ZM-184.7,37.9V35.152h-7.328v-7.2l6.656-.512V24.752l-10.272.768H-212.8v2.72h17.568l.192-.032v6.944h-18.016V37.9h17.984c-.256,7.68-4.512,10.272-17.12,10.56v2.848c14.72-.32,19.84-4.1,20.128-13.408ZM-150.88,34.1V30.64l-17.344.768-.32-2.784h-2.848l.288,2.912-3.264.16v2.688l3.648-.16,1.984,17.376h2.88l-2.112-17.5,14.208-.576v.32c0,4.192-2.528,9.088-9.28,11.328v3.04C-154.144,45.232-150.88,38.9-150.88,34.1Zm38.048-6.816h-2.784c0,15.136-2.528,20.768-11.648,20.9l.1-23.936h-2.848V51.28c1.44,0,2.688-.032,3.712-.1C-115.552,50.288-112.832,43.984-112.832,27.28Zm-22.112-3.04h-2.816c0,12.256-.576,21.824-1.536,27.008h2.912C-135.52,46.1-134.944,36.688-134.944,24.24ZM-75.616,36.3v-2.56h-2.72l1.28-5.12h1.344v-2.56H-80.1V23.28h-2.592v2.784h-4.128v2.56h1.344c.416,1.536.864,3.52,1.184,5.12h-3.04V36.3h4.672v3.648h-4.032V42.48h4.032v5.568h2.5V42.48H-75.9V39.952H-80.16V36.3Zm-22.976-7.1V26.224l-5.952-3.008V26.1Zm10.976,18.368V36.08h-7.072c.064-.736.128-1.568.128-2.464H-87.9V24.144h-8.96V31.6c0,6.24-.448,8.736-1.632,10.528v4.32c1.856-1.76,3.072-4.192,3.616-8.416v9.536Zm-10.976-11.68V32.88l-5.952-3.008V32.72Zm22.944,16.576V49.84h-15.2c-5.472,0-7.488-1.056-8.48-3.424V38.608h-5.952v2.656h3.616V47.12l-3.552,2.592v3.1l4.9-3.488c1.856,2.3,3.808,3.136,9.824,3.136ZM-79.2,28.624l-1.248,5.12h-1.824c-.32-1.6-.768-3.584-1.152-5.12ZM-89.984,31.28h-4.544v-4.8h4.544Zm.32,13.824h-3.168V38.448h3.168Zm50.144,6.912V49.392h-4.736v-4.7h4.16V42.32h-4.16V37.776h4.16V35.44h-4.16V31.024h4.736v-2.5H-44l2.144-5.312h-2.336l-2.176,5.312h-3.584a24.962,24.962,0,0,0,2.112-5.44h-2.5a26.274,26.274,0,0,1-3.616,7.648V34.7a17.2,17.2,0,0,0,1.12-1.44L-52.9,34.9v17.12ZM-53.44,27.632V25.424H-56.7V22.992h-2.4v2.432h-4.064V22.992h-2.368v2.432h-3.552v2.208h3.552v2.5H-68.1v6.88h5.6v2.176h-6.08V41.1h6.08a15.6,15.6,0,0,1-.224,2.24h-6.272v2.048h5.7A7.652,7.652,0,0,1-68.768,50v2.592a10.659,10.659,0,0,0,7.552-5.92A12.711,12.711,0,0,0-54.4,51.888V49.36a9.714,9.714,0,0,1-5.12-3.968h5.44V43.344h-6.176a16.084,16.084,0,0,0,.224-2.24H-54.4v-1.92h-5.632V37.008H-54.5v-6.88H-56.7v-2.5ZM-46.5,35.44h-3.968V31.024H-46.5Zm0,6.88h-3.968V37.776H-46.5ZM-59.1,30.128h-4.064v-2.5H-59.1Zm2.56,5.088h-3.584V31.984h3.584ZM-46.5,49.392h-3.968v-4.7H-46.5ZM-62.24,35.216h-3.712V31.984h3.712ZM-3.808,52.784V23.216H-6.272V52.784ZM-9.76,49.9V24.112H-12V49.9ZM-21.088,25.84V23.6H-32v2.24Zm.928,4.928v-2.5H-32.992v2.5Zm4.768,4.192V23.536h-2.432V34.96c0,9.056-1.152,14.048-3.392,17.568h2.848C-16.416,49.008-15.392,43.568-15.392,34.96Zm-5.7.32V33.264H-32V35.28Zm0,4.48V37.808H-32V39.76Zm-.032,12.128v-9.44H-32.288v9.44Zm-2.336-2.208h-6.336V44.624h6.336ZM32.9,51.824V48.816a20.253,20.253,0,0,1-7.072-6.528H31.84v-11.9h-7.2v-2.5h8.224v-2.4H24.64v-2.5H22.016v2.5H14.4v2.4h7.616v2.5H15.392v11.9h5.44A20.55,20.55,0,0,1,14.5,48.5l-.736-7.36H12.032L12.8,49.3h.864v2.656a22.227,22.227,0,0,0,8.352-7.328v8H24.64V44.5A21.652,21.652,0,0,0,32.9,51.824ZM14.752,40.368l-1.76-7.648H11.264l.8,3.84c-1.12.128-2.656.256-4.192.288L14.016,25.84H11.584l-2.3,3.968H6.3l4-6.752H7.9L4.064,29.52v2.656H7.9L5.216,36.912H3.264V39.5H5.6c.864,0,1.76-.032,2.624-.1V52.624h2.3V39.216c.8-.064,1.5-.16,2.08-.256l.32,1.408Zm-8.288.768H4.576A83.533,83.533,0,0,1,3.264,51.792H5.216A75.815,75.815,0,0,0,6.464,41.136ZM29.472,35.28h-4.96V32.368h4.96Zm0,4.96h-4.96V37.008h4.96Zm-7.328-4.96H17.5V32.368h4.64Zm0,4.96H17.5V37.008h4.64Zm45.408-13.6V22.512H65.6V26.64Zm-3.968,0V22.512H61.632V26.64Zm4.96,20.608c0-12.416-.7-16.48-2.368-19.008H63.008C64.9,30.256,65.7,34,65.7,47.248Zm-8.992-9.44c0-7.936-1.056-9.6-5.792-9.6h-5.5c.16-1.5.288-2.976.352-4.448H45.792c-.064,1.472-.16,2.944-.288,4.448H40.16V30.96h5.056A83.626,83.626,0,0,1,40.352,50.9h3.04A92.024,92.024,0,0,0,48,30.96h5.376c2.656,0,3.36.928,3.36,7.3,0,8.736-1.12,10.144-3.968,10.144a24.341,24.341,0,0,1-4.448-.512v2.88a34.088,34.088,0,0,0,4.608.448C57.472,51.216,59.552,49.84,59.552,37.808Zm44.9-13.92H91.168v2.5H95.36a7.722,7.722,0,0,1-4.8,5.664v2.72a10.676,10.676,0,0,0,7.328-8.384h3.9a27.211,27.211,0,0,1-.288,3.936c-.192,1.248-.7,1.44-1.76,1.44h-2.08V34.1H100c2.72,0,3.712-.512,4.1-2.912A69.029,69.029,0,0,0,104.448,23.888Zm.736,23.488V44.848H99.84V40.464h5.024V37.936H99.84v-3.2H97.184v3.2H93.952a17.31,17.31,0,0,0,.576-2.784H92.352a20.163,20.163,0,0,1-2.56,7.424h2.432a15.309,15.309,0,0,0,.9-2.112h4.064v4.384H90.432v2.528h6.752v5.216H99.84V47.376ZM89.6,49.968V30.032H86.144a31.506,31.506,0,0,0,2.4-3.872V23.92H80.288a15.005,15.005,0,0,1-4.8,6.3v3.424a14.93,14.93,0,0,0,1.856-1.472v8.1c0,5.44-.608,8.9-2.048,11.9h2.656a24.031,24.031,0,0,0,1.7-7.3h7.52V49.3c0,.448-.416.672-1.216.672H83.008v2.5h3.36C88.64,52.464,89.6,51.856,89.6,49.968Zm-3.744-23.68a22.815,22.815,0,0,1-2.432,3.744h-4a29.925,29.925,0,0,0,2.56-3.744Zm1.568,10.08h-3.1V32.432h3.1Zm-4.8,0H79.552V32.432h3.072Zm4.8,6.176h-3.1v-4.1h3.1Zm-4.8,0H79.552v-4.1h3.072Zm36.64-13.024V26.448L112.1,23.216V26.1Zm22.112,23.04V49.68c-4.608-1.7-8.672-4.864-10.432-9.92h10.432V37.04h-2.528V27.248H130.56V22.992h-2.688v4.256h-7.264v2.72h7.264v3.648a22.788,22.788,0,0,1-.224,3.424h-8.384V34.608L112.1,31.28v2.944l6.5,3.04v2.5H127.1a13.507,13.507,0,0,1-9.664,9.76V52.5a17.259,17.259,0,0,0,11.68-10.528A19.694,19.694,0,0,0,141.376,52.56ZM119.3,40.4h-2.848a47.412,47.412,0,0,1-4.7,11.744h3.072A45.76,45.76,0,0,0,119.3,40.4Zm16.864-3.36h-5.792a25.3,25.3,0,0,0,.192-3.2V29.968h5.6ZM175.488,35.7c0-.992-.032-2.112-.128-3.264h-2.784c.1,1.184.1,2.3.1,3.328-.1,8.9-4.8,12.7-10.592,12.7-5.824,0-8.576-2.528-8.576-9.28,0-6.08.288-12.416.512-15.136h-2.848c-.16,2.848-.416,9.568-.416,15.456,0,8.32,3.712,11.648,11.1,11.648C169.6,51.152,175.456,46.416,175.488,35.7ZM212.96,48.368V45.232a35.893,35.893,0,0,0-9.216-4.128V36.048h8.736V33.52h-8.736V28.912h8.736v-2.5h-8.736V23.568H200.96v2.848h-16v2.5h16V33.52H184.832v2.528H200.96v4.384a40.042,40.042,0,0,0-6.08-.48c-6.784,0-9.152,2.944-9.152,5.7,0,3.776,2.72,5.952,8.736,5.952,7.712,0,9.472-2.5,9.408-6.368L203.84,43.7A41.869,41.869,0,0,1,212.96,48.368ZM200.9,44.88c0,2.912-1.472,4.224-6.048,4.224-3.936,0-6.176-1.12-6.176-3.552,0-1.44,1.5-3.328,6.24-3.328a25.4,25.4,0,0,1,5.984.736Zm48.448-15.456V26.8h-4.8V23.824h-2.976V26.8H220.7v2.624H241.7V34.1c-1.472-.864-3.68-1.536-7.488-1.536-5.6,0-9.056,2.3-9.056,5.728,0,3.36,3.072,5.632,8.256,5.632,4.768,0,7.52-1.344,8.9-3.52v1.248c0,4.7-2.784,7.328-13.376,7.328-1.408,0-3.712-.064-4.96-.16V51.5c1.12.064,3.264.128,4.672.128,13.472,0,16.576-4.128,16.576-9.92,0-2.624-.16-4.288-.672-5.44V29.424Zm-8.1,7.808c0,1.984-1.5,4.352-6.88,4.352-4.352,0-6.144-1.408-6.144-3.424,0-1.632,1.728-3.36,6.5-3.36C239.616,34.8,241.248,36.176,241.248,37.232Zm31.3-3.04V23.5h-3.232V34.192l.512,11.264h2.24Zm.256,18.08v-3.3h-3.584v3.3Z" transform="translate(292 28)" fill="#1a1a17" stroke="#1a1a17" stroke-width="1.5"/>
  </g>
</svg>
