<svg xmlns="http://www.w3.org/2000/svg" width="236" height="16.298" viewBox="0 0 236 16.298">
  <g id="Group_273" data-name="Group 273" transform="translate(-14593 -4730.772)">
    <path id="Path_2916" data-name="Path 2916" d="M-38.272-.16V-1.936l-4.5-3.568a21.649,21.649,0,0,0,3.488-7.3h-1.536a19.751,19.751,0,0,1-3.152,6.368l-6.816-5.408v1.776l5.936,4.7A15.572,15.572,0,0,1-52.016-.832V.72A17.619,17.619,0,0,0-43.68-4.432Zm18.8-11.36v-2.208h-.976v2.208Zm-1.872,0v-2.208h-.96v2.208Zm-1.9.544-.016-1.36H-33.952v1.36Zm2.992,4.592V-7.76h-13.7v1.376h8.176c-.1,3.792-1.616,5.312-7.792,5.552V.608c7.2-.208,9.2-2.448,9.312-6.992Zm17.2-4.128H-4.512C-5.072-8.3-6.272-7.36-12.656-6.72L-14.9-6.5v1.328l2.272-.208C-11.168-5.5-9.952-5.7-8.9-5.888V.88h1.36V-6.208C-4.464-7.056-3.488-8.4-3.056-10.512Zm18.96-.736V-12.48H2.24V-11.1H14.368c0,4.64-2.512,6.112-6,6.288a19.965,19.965,0,0,0,.32-3.856H7.28c0,5.168-.992,7.28-5.088,8.08V.816C5.392.256,7.1-1.12,7.952-3.36,12.288-3.472,15.9-5.44,15.9-11.248ZM34.336-6.816H27.872a10.69,10.69,0,0,0,.656-1.072H33.9v-5.3H25.232v5.3h1.824a9.123,9.123,0,0,1-2.144,2.32V-6.816c-.448.208-1.072.432-1.728.656V-9.44H24.8v-1.312H23.184v-2.72H21.872v2.72H19.744V-9.44h2.128v3.68c-.9.256-1.728.48-2.176.592V-3.84c.448-.112,1.3-.336,2.176-.608v4c0,.288-.1.352-.48.352H19.856V1.232h1.9c1.1,0,1.424-.288,1.424-1.152V-4.864c.56-.176,1.056-.352,1.456-.5a5.386,5.386,0,0,1-.56.352v1.52a14.23,14.23,0,0,0,1.376-.88v3.04c0,.8.384,1.168,1.12,1.168H29.76a3.408,3.408,0,0,0,.432-.032V1.152h1.7c1.392,0,1.808-.368,2.064-1.6A47.4,47.4,0,0,0,34.336-6.816ZM32.56-10.944h-6V-12.16h6Zm0,2.064h-6v-1.232h6Zm.448,3.216a25.161,25.161,0,0,1-.272,4.48c-.176.688-.256.96-1.008.96H30.4A1.375,1.375,0,0,0,31.552-1.76v-.88H30.368v.592c0,.624-.288.72-.928.72H27.088c-.288,0-.384-.112-.384-.368v-.928l4.528-1.248v-1.04L26.7-3.7V-4.912H26.1a7.214,7.214,0,0,0,.816-.752ZM52.1-10.688c-.112-.384-.624-1.968-.9-2.576H50a18.964,18.964,0,0,1,.88,2.576ZM52.624.16V-1.68C51.808-.7,51.392-.272,51.056-.272c-.384,0-.9-.512-1.344-1.968A15.091,15.091,0,0,0,52.1-8H50.88a11.927,11.927,0,0,1-1.536,4.1,34.433,34.433,0,0,1-.416-5.088h3.68v-1.184h-3.7v-3.312H47.584v3.216c0,.032.016.064.016.1H43.184V-11.2h3.408v-.992H43.184V-13.52h-1.3v1.328H38.24v.992h3.648v1.024h-4.1v1.184h4.064v.9h-3.92v.864h3.92v.848h-3.44V-2.3h3.44v.864H37.792V-.416h4.064V1.312h1.312V-.416h2.576a1.48,1.48,0,0,1-.16.08V1.28a10.251,10.251,0,0,0,3.168-2.336c.72,1.776,1.6,2.32,2.224,2.32C51.52,1.264,51.968.88,52.624.16Zm-4.3-2.672A9.492,9.492,0,0,1,46.7-1.024V-1.44H43.168V-2.3H46.64v-4.08h-3.5v-.848h3.92V-8.1h-3.92v-.9H47.6A29.789,29.789,0,0,0,48.32-2.512ZM45.552-4.688H43.12v-.944h2.432Zm0,1.648H43.12v-.944h2.432ZM41.888-4.688H39.5v-.944h2.384Zm0,1.648H39.5v-.944h2.384Z" transform="translate(14711 4745)" fill="#1a1a17" stroke="#1a1a17" stroke-width="1"/>
    <g id="Group_264" data-name="Group 264" transform="translate(-20.563 4006.5)">
      <path id="Path_26" data-name="Path 26" d="M9.724,0,0,15H6.592l9.73-15Z" transform="translate(14794.563 724.5)" fill="#1a1a17"/>
      <path id="Path_27" data-name="Path 27" d="M9.724,0,0,15H6.592l9.73-15Z" transform="translate(14807.454 724.5)" fill="#1a1a17"/>
      <path id="Path_28" data-name="Path 28" d="M9.724,0,0,15H6.592l9.73-15Z" transform="translate(14820.349 724.5)" fill="#1a1a17"/>
      <path id="Path_29" data-name="Path 29" d="M9.724,0,0,15H6.592l9.73-15Z" transform="translate(14833.239 724.5)" fill="#1a1a17"/>
    </g>
    <g id="Group_265" data-name="Group 265" transform="translate(-201.563 4006.5)">
      <path id="Path_26-2" data-name="Path 26" d="M9.724,0,0,15H6.592l9.73-15Z" transform="translate(14794.563 724.5)" fill="#1a1a17"/>
      <path id="Path_27-2" data-name="Path 27" d="M9.724,0,0,15H6.592l9.73-15Z" transform="translate(14807.454 724.5)" fill="#1a1a17"/>
      <path id="Path_28-2" data-name="Path 28" d="M9.724,0,0,15H6.592l9.73-15Z" transform="translate(14820.349 724.5)" fill="#1a1a17"/>
      <path id="Path_29-2" data-name="Path 29" d="M9.724,0,0,15H6.592l9.73-15Z" transform="translate(14833.239 724.5)" fill="#1a1a17"/>
    </g>
  </g>
</svg>
